/* XPM */
static char *bf9421e1bad142c484f4222d77689631NBQhs8upmCmhcckB[] = {
/* columns rows colors chars-per-pixel */
"33 65 211 2 ",
"   c None",
".  c #000000",
"X  c #090403",
"o  c #00000B",
"O  c #0C0C0C",
"+  c #090A07",
"@  c #1C0100",
"#  c #00041A",
"$  c #060810",
"%  c #041519",
"&  c #141312",
"*  c #181613",
"=  c #1A1A17",
"-  c #1D1D1C",
";  c #171E1C",
":  c #230000",
">  c #26000D",
",  c #3B0000",
"<  c #201C0E",
"1  c #351800",
"2  c #251D18",
"3  c #21211E",
"4  c #3B221B",
"5  c #011D24",
"6  c #001520",
"7  c #271D22",
"8  c #012426",
"9  c #082526",
"0  c #142626",
"q  c #192728",
"w  c #1F2D30",
"e  c #1E3132",
"r  c #242422",
"t  c #292725",
"y  c #292826",
"u  c #2C2C2A",
"i  c #252A2A",
"p  c #342622",
"a  c #312E2C",
"s  c #3D2621",
"d  c #2F302F",
"f  c #31302E",
"g  c #38302D",
"h  c #292D30",
"j  c #233233",
"k  c #2B3637",
"l  c #343433",
"z  c #383633",
"x  c #3A3937",
"c  c #3C3B3B",
"v  c #383738",
"b  c #401F10",
"n  c #402218",
"m  c #463C38",
"M  c #4C342C",
"N  c #42423D",
"B  c #4C423D",
"V  c #50443D",
"C  c #165556",
"Z  c #294647",
"A  c #374949",
"S  c #005262",
"D  c #2F586E",
"F  c #00707C",
"G  c #327376",
"H  c #444342",
"J  c #4A4946",
"K  c #4D4C4A",
"L  c #474B4A",
"P  c #504E4B",
"I  c #5A4C43",
"U  c #53524E",
"Y  c #4C5655",
"T  c #565552",
"R  c #595652",
"E  c #545856",
"W  c #5B5A56",
"Q  c #5D5D59",
"!  c #694D44",
"~  c #6D554E",
"^  c #6A5747",
"/  c #74564D",
"(  c #645E59",
")  c #675C54",
"_  c #745D54",
"`  c #785F54",
"'  c #63615D",
"]  c #6E635A",
"[  c #7C635A",
"{  c #776059",
"}  c #405F60",
"|  c #4A6C6C",
" . c #53706E",
".. c #4E7B7A",
"X. c #487271",
"o. c #567D7C",
"O. c #5C6664",
"+. c #666563",
"@. c #6E6D6A",
"#. c #6B6864",
"$. c #7C6963",
"%. c #716E66",
"&. c #70706E",
"*. c #7A736F",
"=. c #707175",
"-. c #815F54",
";. c #82675C",
":. c #8D7A44",
">. c #886D62",
",. c #837974",
"<. c #937E74",
"1. c #8C766A",
"2. c #918153",
"3. c #8E8369",
"4. c #9C8B7F",
"5. c #A9916F",
"6. c #C4B176",
"7. c #C1AD72",
"8. c #DAC27E",
"9. c #2D7781",
"0. c #32878B",
"q. c #488688",
"w. c #548586",
"e. c #598C8D",
"r. c #558889",
"t. c #5E8F90",
"y. c #4C9191",
"u. c #589293",
"i. c #4A8F9D",
"p. c #629B9B",
"a. c #659697",
"s. c #7B8C8B",
"d. c #5F9FA0",
"f. c #5AA3A3",
"g. c #6CA3A4",
"h. c #66B1B2",
"j. c #75B5B6",
"k. c #76B7B8",
"l. c #77B9BA",
"z. c #79BBBC",
"x. c #7BBFC0",
"c. c #7BC0C2",
"v. c #998C86",
"b. c #949193",
"n. c #9A9995",
"m. c #92908D",
"M. c #A7968D",
"N. c #A49993",
"B. c #AA9A90",
"V. c #A0999A",
"C. c #B19D91",
"Z. c #B39688",
"A. c #A9A29D",
"S. c #BBA79A",
"D. c #B8A498",
"F. c #BDB69E",
"G. c #A8A9A9",
"H. c #B7ADA6",
"J. c #BCB3AB",
"K. c #B8B3A8",
"L. c #BDBAB9",
"P. c #A9B5B1",
"I. c #C5AD9E",
"U. c #C5B5AA",
"Y. c #D3BBAB",
"T. c #D8BFAF",
"R. c #C3BDB9",
"E. c #C8BBB3",
"W. c #D3BFB0",
"Q. c #C5AFA1",
"!. c #FDE69D",
"~. c #CAC4BE",
"^. c #D5C5BB",
"/. c #D9C4B6",
"(. c #E3CBBA",
"). c #EACFBD",
"_. c #ECD0BE",
"`. c #FFEFA2",
"'. c #86BAC0",
"]. c #BDC5C5",
"[. c #B8C7CD",
"{. c #BCD1D0",
"}. c #C9C6C4",
"|. c #D5CCC6",
" X c #CDD5CC",
".X c #C5D8D9",
"XX c #D8D9D7",
"oX c #E7D4C8",
"OX c #F4DCCC",
"+X c #E5DAD5",
"@X c #E3CDC0",
"#X c #FCE1CF",
"$X c #EAE4DB",
"%X c #FDE4D2",
"&X c #FFE9D5",
"*X c #FEEBDD",
"=X c #F5E6DC",
"-X c #FFF0DD",
";X c #CFDEE0",
":X c #C8E0E0",
">X c #E6E4E3",
",X c #EDEBEA",
"<X c #EBE8E6",
"1X c #FEEDE1",
"2X c #F2EDEB",
"3X c #FFF3E4",
"4X c #FFF3EA",
"5X c #FFFBED",
"6X c #FFFCF3",
"7X c #FEFEFE",
"8X c #F5F3F3",
/* pixels */
"                                                                  ",
"                                                                  ",
"                                                                  ",
"                                                                  ",
"                                                                  ",
"                                                                  ",
"                                      .                           ",
"                                    r u t                         ",
"                          . . . . . x K c X                       ",
"                        r y u y r t J W U a *                     ",
"                      X x K P K K K R W R P x O . .       & &     ",
"                    & u K W Q W W Q R R R Q K u 2 y r     & &     ",
"        & &       O x K R R R R Q Q P H K R R K K K N r .         ",
"        & &     & u K Q W R R R R R J v J R W R Q Q K y .         ",
"            . r c U R R R R R R J c H J T R W R R R J - .         ",
"            . t K Q W R R W Q W K c K Q W R R R W Q U f &         ",
"            . t K Q W W +.@.@.@.#.+.@.@.T 5 k E +.@.+.R c t       ",
"            . r J R R R +.&.&.&.&.&.&.&.#.( R U Q @.@.Q K u .     ",
"            . - c J J J U E E E E R L T B./.D.i . U R U H y .     ",
"            & r l c c c v v v v v v o q D.OX/.) . v v v l - +     ",
"          - u v v c c c v v v v c c . . ] M.Q.Y.B.R # u r =       ",
"        + - v c c c c c c c c c c v c v . . B.%X(.] . O .         ",
"          - t l v H H v 5 o h c . . +.b.=.# B.%X(.( . .           ",
"            . = l c c c K U J c = c V.}.G.D A.%X(.) .             ",
"              & r d 6 P C.Y.<.o ,.E.+X,X[.i.P.*X@X_ .             ",
"                . & . R W.%XS.P J.3X6X6X;X'.{.4XoX[ .             ",
"                  O . J P. X~.Y.oX*X3X3X$XXX<X6XoX>..             ",
"                    . j 0.j. X%X%X%X#X#X*X3X4X4X^.{ .             ",
"                      8 S F m.I._.&X&X&X3X5X1X^.v.~               ",
"                        < 2 . M S.#X&X#X*X3X^.~ .                 ",
"                        8.6.:.. $.D.S.S.U.J.M.                    ",
"                        `.!.6.5 . O u v l O .                     ",
"                      1 5.7.2.. . % w j . . . .                   ",
"                    0 0 q q 9 0 H R W R K c u = +                 ",
"                  $ X.e.q.9.q.w.| x @ 3 b.}.G.c .                 ",
"                . Z u.k.l.j.z.j.w.0 . = L.7XXXE .                 ",
"              Z X.p.j.c.x.z.z.z.d.w.s.G. X<X}.( . *               ",
"            . Z p.l.z.k.j.j.j.j.h.j.{.<X+XR.n.%.N r .             ",
"            . % G u.t.a.g.j.j.j.h.z.:X7X2X|.J.N.*.g .             ",
"            . o 9 k a Y a.k.l.j.h.j..X7X7X,XXXR.m.m .             ",
"          ' A.U.E.D.[ 0 r.k.z.j.f.p..X7X7X7X>X}.n.} o .           ",
"        . #.|.4X6X=XN.5 q.k.z.j.y...].7X7X7X<X~.n.o.C s ,         ",
"        . Q H.|.|.E.,.8 q.k.z.j.y.X.].7X7X7X<XR.H.K.K.I.4.`       ",
"        8 0 h u u t . e e.k.z.j.y...].7X7X7X<XR.W.OX%X%XT.;..     ",
"        X V 1.4.M.v.~ a e.k.z.j.y...].7X7X7X>XL.^.&X3X5XOX<..     ",
"        . [ Y.%X1X$XM.4 w.k.z.j.y...].7X7X7X>XL.^.%X3X5X+X<..     ",
"        . >.).3X6X1XD.n r.z.c.k.u. .G.$X7X7X,X~.U.T./.oXJ.$.      ",
"        . >.(.-X3X%XZ.s r.z.c.l.t.Q 3.F.$X7X8X}.N.$.! [ ~         ",
"          ` S.(.(.Y.1.p | a.g.p.o.P ^ 3.K.XX}.A.*.: . .           ",
"            / [ ;._ m 3 j A E O.E H B I #.*.@.J v                 ",
"              . . . . ; 2 4 m I B l 7 > : @ 1 b n                 ",
"                    . - N R W W H r & 2 p M ! -.-.                ",
"                    d c U W R K c u r i z B ! / /                 ",
"                + t H R R R H u l v v v J R P m p                 ",
"                . u K Q ' R H O r v c c P R L % .                 ",
"                . r J Q ' W     O y v c P R K r .                 ",
"                f c J U R K       = u v J U K c f                 ",
"            . t H U K H c u         3 t v N K U J y & = - - 3     ",
"            - x R W K v t O           = u v K R U a - u u y -     ",
"        = r d H R R U c v             3 l c K R P a u v v u -     ",
"        - u v c K P J v               - u x J P J z l v v t =     ",
"        - y u l v z l t                 u a v z v c v f r         ",
"        - 3 r t r 3 3 - -                 t t 3 u v z r           ",
"            r r r 3 3 - 3 3               r r 3 r u y             ",
"            - 3 3 - - 3 r r -             - 3 - - - -             "
};
