/* XPM */
static char *_3a5937756ef4ab3cfbdb5876325f738q9j5l2qbkC3JF4ne[] = {
/* columns rows colors chars-per-pixel */
"33 65 228 2 ",
"   c #020201",
".  c #0B0301",
"X  c #07080A",
"o  c #160804",
"O  c #17180C",
"+  c #080D11",
"@  c #0C1C19",
"#  c #181917",
"$  c #1D1D1B",
"%  c #280904",
"&  c #261D17",
"*  c #1B231E",
"=  c #1F301E",
"-  c #22221E",
";  c #2A261D",
":  c #231F20",
">  c #1D2C2F",
",  c #1A3836",
"<  c #242423",
"1  c #2A2623",
"2  c #262824",
"3  c #292926",
"4  c #262A29",
"5  c #2C2D2B",
"6  c #372B24",
"7  c #332D2B",
"8  c #27322B",
"9  c #34322D",
"0  c #3C332C",
"q  c #382D33",
"w  c #2D3332",
"e  c #26393B",
"r  c #353434",
"t  c #393432",
"y  c #333936",
"u  c #3B3B36",
"i  c #3A3639",
"p  c #343B3C",
"a  c #3C3C3B",
"s  c #4A2E24",
"d  c #45342F",
"f  c #51342C",
"g  c #453C37",
"h  c #433C3A",
"j  c #2E423B",
"k  c #34403D",
"l  c #3C443D",
"z  c #43423E",
"x  c #52403C",
"c  c #123940",
"v  c #363B41",
"b  c #3E3D42",
"n  c #453B43",
"m  c #274749",
"M  c #3B4442",
"N  c #374949",
"B  c #3E514F",
"V  c #375957",
"C  c #3F6F6C",
"Z  c #444442",
"A  c #4B4542",
"S  c #4A4A46",
"D  c #444948",
"F  c #4C4C4A",
"G  c #574C46",
"H  c #544E4B",
"J  c #4E514A",
"K  c #52514E",
"L  c #5A514A",
"P  c #514E52",
"I  c #4D5856",
"U  c #545552",
"Y  c #595451",
"T  c #565854",
"R  c #595A55",
"E  c #525B5B",
"W  c #5C5D5A",
"Q  c #634D49",
"!  c #605552",
"~  c #665C57",
"^  c #645D59",
"/  c #5A615E",
"(  c #63635E",
")  c #6B625B",
"_  c #73755F",
"`  c #4D6564",
"'  c #426B6C",
"]  c #4F6B6A",
"[  c #576C69",
"{  c #4C726E",
"}  c #57746D",
"|  c #487474",
" . c #557372",
".. c #5A7572",
"X. c #567977",
"o. c #52777C",
"O. c #5D7C7C",
"+. c #676763",
"@. c #6B6B64",
"#. c #6D6E6A",
"$. c #746B64",
"%. c #766C66",
"&. c #6A736C",
"*. c #73756D",
"=. c #7B736A",
"-. c #687677",
";. c #627D7B",
":. c #767673",
">. c #82746E",
",. c #867C78",
"<. c #4C837E",
"1. c #5C837D",
"2. c #64817E",
"3. c #8A857B",
"4. c #527E81",
"5. c #4B8A89",
"6. c #568786",
"7. c #5C8383",
"8. c #5C8C8B",
"9. c #5E8E92",
"0. c #5B9892",
"q. c #638483",
"w. c #668987",
"e. c #638D8C",
"r. c #6A8D8E",
"t. c #778D8A",
"y. c #63918B",
"u. c #6A8F90",
"i. c #669797",
"p. c #6B9492",
"a. c #6F9C9C",
"s. c #739696",
"d. c #749C99",
"f. c #6FA29F",
"g. c #719DA0",
"h. c #5AAEAE",
"j. c #5BB7B7",
"k. c #5EB8B8",
"l. c #6BA7A3",
"z. c #73A4A4",
"x. c #75A9A6",
"c. c #74ACAC",
"v. c #7BADAD",
"b. c #72B1AC",
"n. c #74AEB0",
"m. c #6DB1B1",
"M. c #64BABA",
"N. c #6BBCBC",
"B. c #75B3B3",
"V. c #7BB3B5",
"C. c #75B9B7",
"Z. c #7BB9B6",
"A. c #74B7B9",
"S. c #74BCBC",
"D. c #7CBCBB",
"F. c #858B89",
"G. c #958D8B",
"H. c #85908B",
"J. c #9C958C",
"K. c #8B9D98",
"L. c #929691",
"P. c #9C9F97",
"I. c #9A9B99",
"U. c #A79E99",
"Y. c #88A39C",
"T. c #ABA29A",
"R. c #A7A89F",
"E. c #B2A49B",
"W. c #B9AB9E",
"Q. c #87AAA8",
"!. c #9BAAA5",
"~. c #87B6B4",
"^. c #81BCBD",
"/. c #A6A8A7",
"(. c #ACADA5",
"). c #A3AEAA",
"_. c #B4ABA3",
"`. c #B7AEA6",
"'. c #B9B4A9",
"]. c #AFBFBF",
"[. c #B4B6B2",
"{. c #B9BAB6",
"}. c #C4B5A8",
"|. c #C5BAB4",
" X c #C3BDBB",
".X c #C5C7BE",
"XX c #CDC3BD",
"oX c #D6C8BE",
"OX c #81C1C1",
"+X c #A0CBC4",
"@X c #B8C7C6",
"#X c #B8D6D3",
"$X c #C6C4C1",
"%X c #CBC8C6",
"&X c #D5CBC6",
"*X c #D4CCC4",
"=X c #C8D2C9",
"-X c #DAD0C7",
";X c #D3D1CB",
":X c #DDD1CB",
">X c #D6DAD6",
",X c #E9D7CA",
"<X c #ECDCD2",
"1X c #E6DADA",
"2X c #F6DED2",
"3X c #DDE5DA",
"4X c #EBE5DC",
"5X c #FBE1D2",
"6X c #F5E4DC",
"7X c #FBE6DA",
"8X c #FEEADB",
"9X c #E9DEE2",
"0X c #C2E5E3",
"qX c #D8EEEB",
"wX c #ECEAE2",
"eX c #E9E8E5",
"rX c #F4EBE7",
"tX c #F9EBE2",
"yX c #FAF1E7",
"uX c #F6F4EA",
"iX c #FDF3EB",
"pX c #FEF9EC",
"aX c #F7EAF1",
"sX c #E8F9F9",
"dX c #FCF8F5",
"fX c #FEFDF4",
"gX c #F3FDFC",
"hX c #FDFDFD",
/* pixels */
"j.j.j.j.j.j.j.j.j.j.j.j.j.j.j.j.j.j.j.j.j.j.j.j.j.j.j.j.j.j.j.j.j.",
"j.j.j.j.j.j.j.j.j.j.j.j.j.j.j.j.j.j.j.j.j.j.j.j.j.j.j.j.j.j.j.j.j.",
"j.j.j.j.j.j.j.j.j.j.j.j.j.j.j.j.j.j.j.j.j.j.j.j.j.j.j.j.j.j.j.j.j.",
"j.j.j.j.j.j.j.j.j.j.j.j.j.j.j.j.j.j.j.j.j.j.j.j.j.j.j.j.j.j.j.j.j.",
"j.j.j.j.j.j.j.j.j.j.j.j.j.j.j.j.j.j.j.j.j.j.j.j.j.j.j.j.j.j.j.j.j.",
"j.j.j.j.j.j.j.j.j.j.j.j.j.j.j.j.j.j.j.j.j.j.j.j.j.j.j.j.j.j.j.j.j.",
"j.j.j.j.j.j.j.j.j.j.j.j.{ K h.j.j.j.j.j.j.j.j.j.j.j.j.j.j.j.j.j.j.",
"j.j.j.j.j.j.j.j.j.j.j.C U W S 3 - 5 5 5.j.j.j.j.j.j.j.j.j.j.j.j.j.",
"j.j.8.6.j.j.j.j.j.j.6.S R W U J F F K F 6.j.j.j.j.j.j.j.j.j.j.j.j.",
"j.k. .N j.j.j.k < 3 S +.T K R T W W W / F | j.j.j.j.j.j.j.j.j.j.j.",
"j.j.j.m.e.7.X.S F F T R S z K W R R W W R F 6.j.j.j.j.j.j.j.j.j.j.",
"j.j.j.j.` < U / R ( W J Z a Z U R U T R W ( K | j.j.j.M 8.j.j.j.j.",
"j.j.j.M.] $ S T W R R R T S z z S T R K T R U T I ;.e.j.j.j.j.j.j.",
"j.j.j.D.[ 3 U W U W U K W R Z Z F R ( R R W W T F - ] j.j.j.j.j.j.",
"j.M.f.[ I R +.#.@.T < # K :.#.+.#.( #.*.( R W W K 3  .j.j.j.j.j.j.",
"j.S.B 5 Z ( #.#.R Y R ) @.#.*.&.#.:.*.#.@.W P W S $  .N.j.j.j.j.j.",
"j.S.k 3 z J T K   1 E.oXU.H S I E U T K U S Z P i $ X.M.j.j.j.j.j.",
"j.S...$ 9 u u u . $.*X<XE.&   a a r i p r y Z r i :  .S.j.j.j.j.j.",
"j.j.S.d.l - X K (.'.'.T.! .   i h h v p p M a u h q b E z.N.j.j.j.",
"j.j.j.N.O.X   +.;XwXU.    i b a g h b v p k y u A h n $  .N.j.j.j.",
"j.j.j.j.S.p.D ) ;XrXR.  #.I.W     t 7   # a M M y 5 D s.S.M.j.j.j.",
"j.j.j.j.j.N...L *X4X/.F /.%X/.z < z A G H i M p w # 7.M.j.j.j.j.j.",
"j.j.j.j.j.N.-.~ -XuX(.F.@XeX1X X:.  3.oXU.Y + e V f.S.j.j.j.j.j.j.",
"j.j.j.j.j.N.[ %.:XuX;X/.>XdXfXiX'.Y _.4X%XK   @ 8.M.j.j.j.j.j.j.j.",
"j.j.j.j.j.N.E =.,XfXwX>XeXtXiX7X,X|.&X;X).l j a.S.j.j.j.j.j.j.j.j.",
"j.j.j.j.j.N.;.) oXyXpXuXwXtX2X8X5X7X;X!.[ 8 y.M.j.j.j.j.j.j.j.j.j.",
"j.j.j.j.j.j.C.Q.P.XX4XfXyX6X8X8X,XW.3.J ..f.S.j.j.j.j.j.j.j.j.j.j.",
"j.j.j.j.j.j.j.M.;.L XXtXtXtX7X<XE.6 . ; d.k.j.j.j.j.j.j.j.j.j.j.j.",
"j.j.j.j.j.j.j.j.S.z.).}.`.E._.T.@.  _ '.+Xj.j.j.j.j.j.j.j.j.j.j.j.",
"j.j.j.j.j.j.j.j.j.M.q.. ; 0 -     O '.4X#XM.j.j.j.j.j.j.j.j.j.j.j.",
"j.j.j.j.j.j.j.j.S.a.M . . 7 5 #     *.R.!.p.C.j.j.j.j.j.j.j.j.j.j.",
"j.j.j.j.j.j.j.N.O.$ t A K U W E l = * @ * 8 y.M.j.j.j.j.j.j.j.j.j.",
"j.j.j.j.j.j.j.M. .a (..XL.$ X p ] e.<.C <.6.p.8.A.j.j.j.j.j.j.j.j.",
"j.j.j.j.j.j.j.N.O.^ >XfX{.<   > 7.n.B.S.C.Z.e.m 6.N.j.j.j.j.j.j.j.",
"j.j.j.j.j.j.B.s.p W $XeX>X!.t.q.g.^.OXD.D.Z.c.p.o.z.A.k.j.j.j.j.j.",
"j.j.j.j.j.N...1 z #.U.{.>XqX#XQ.x.B.B.V.^.V.V.~.g.N o.N.j.j.j.j.j.",
"j.j.j.j.j.N.` t ,.U.[.;XsXsX0X~.Z.B.a.9.i.V.D.^.l.m ' N.j.j.j.j.j.",
"j.j.j.j.j.N. .S G. X>XrXgXgX0Xv.l.Z.8.c o.v.^.Z.i.V | N.j.j.j.j.j.",
"j.j.j.j.j.N.{ k I.$X9XhXhXgX#Xd.l.Z.4.X m O.8.6.' , | N.j.j.j.j.j.",
"j.j.j.j.j.N.X.M H.$XrXhXhXhX@XX.0.b.u., X e e , , > 7.N.j.j.j.j.j.",
"j.j.j.j.j.M.1.I L. XaXhXhXhX]. .0.b.e.e -.(.[.[.L.S ` N.j.j.j.j.j.",
"j.j.j.j.j.N.d.*.P. XrXhXhXhX@XX.8.~.q.> /.rXfXiX*X( [ M.j.j.j.j.j.",
"j.j.j.M.C.~.). X[. XeXhXhXhX@X} ] 2.N   ,.XX<X*X(.Y.v.j.j.j.j.j.j.",
"j.j.j.N...%.XX4X*X|.4XhXhXgX=X&.k w     O g G G t.j.j.j.j.j.j.j.j.",
"j.j.j.S.M >.6XtX:X|.eXfXfX3X(.R =.G.`.U.$.  8 } B.j.j.j.j.j.j.j.j.",
"j.j.j.S.I >.<XpX:X XuXfX4X'.$.g U.<X6XtXXXK O.M.j.j.j.j.j.j.j.j.j.",
"j.j.j.N.x.K.`.-XT.J..X;X'.,.s s }.pXpXiX:X^ w.j.j.j.j.j.j.j.j.j.j.",
"j.j.j.j.j.D.H.) G z ( =.) G % f }.8XfXfXXX! q.j.j.j.j.j.j.j.j.j.j.",
"j.j.j.j.j.k.v./ 9 6 & o o o . d J.-X:X&XT.A q.j.j.j.j.j.j.j.j.j.j.",
"j.j.j.j.j.j.j.S.K.$.Q d 6 ; $ y H ^ ) ^ H 9 w.j.j.j.j.j.j.j.j.j.j.",
"j.j.j.j.j.j.j.k.Q.~ Q x 6 & ` q.D   . . o O p.j.j.j.j.j.j.j.j.j.j.",
"j.j.j.j.j.j.j.N.t.6 G ! h 2 z.j.a.3 h Y S 3 u.j.j.j.j.j.j.j.j.j.j.",
"j.j.j.j.j.j.j.N.O.& A ! A < B.j.c.- A W H - e.j.j.j.j.j.j.j.j.j.j.",
"j.j.j.j.j.j.j.N.;.2 H Y S 4 c.j.z.- A U S 2 e.j.j.j.j.j.j.j.j.j.j.",
"j.j.j.j.j.j.j.N.2.3 K U Z 4 v.j.z.< F T F 5 e.j.j.j.j.j.j.j.j.j.j.",
"j.j.j.j.j.j.j.N.q.< H W D 4 c.j.x.* D W S < w.k.j.j.j.j.j.j.j.j.j.",
"j.j.j.j.j.j.j.N.q.< S U a < B.j.x.< Z U Z 4 r.k.j.j.j.j.j.j.j.j.j.",
"j.j.j.j.j.j.j.M.q.3 a Z r 5 B.j.c.< r Z l < r.k.j.j.j.j.j.j.j.j.j.",
"j.j.j.j.j.j.j.M.q.2 9 i r 4 n.j.c.4 w r i $ r.k.j.j.j.j.j.j.j.j.j.",
"j.j.j.j.j.j.j.M.e.< r h r 5 n.j.c.4 y r r < r.k.j.j.j.j.j.j.j.j.j.",
"j.j.j.j.j.j.j.j.u.< u u r w V.j.v.* i a r 2 r.j.j.j.j.j.j.j.j.j.j.",
"j.j.j.j.j.j.j.j.i.< u a r 4 V.j.v.< r Z r 2 r.k.j.j.j.j.j.j.j.j.j.",
"j.j.j.j.j.j.j.j.h.2 9 a 9 2 d.S.p.2 5 u t 3 u.k.j.j.j.j.j.j.j.j.j.",
"j.j.j.j.j.j.j.j.5.$ - 2 3 3 I [ D $ - 5 5 3 s.j.j.j.j.j.j.j.j.j.j.",
"j.j.j.j.j.j.j.p 3 - # $ 3 5 7 5 3 - $ $ 2 5 s.j.j.j.j.j.j.j.j.j.j."
};
