/* XPM */
static char *_00d7844455541da852c197fe2c97093s8TqEDqqDoCvtPwi[] = {
/* columns rows colors chars-per-pixel */
"33 65 229 2 ",
"   c #030201",
".  c #0C0301",
"X  c #02090A",
"o  c #170A06",
"O  c #121208",
"+  c #161716",
"@  c #1C1B14",
"#  c #1D1C1C",
"$  c #250603",
"%  c #211D1A",
"&  c #2C1E1C",
"*  c #0E2614",
"=  c #1E201E",
"-  c #1A2C1C",
";  c #26221D",
":  c #342F1C",
">  c #141F21",
",  c #1E2925",
"<  c #103232",
"1  c #183434",
"2  c #242523",
"3  c #292625",
"4  c #242826",
"5  c #2A2926",
"6  c #252B2A",
"7  c #2C2C2B",
"8  c #362825",
"9  c #312B2B",
"0  c #2C312D",
"q  c #36322E",
"w  c #2E3332",
"e  c #283838",
"r  c #2F3C3E",
"t  c #343533",
"y  c #3A3534",
"u  c #353A36",
"i  c #3A3A36",
"p  c #333B3A",
"a  c #3B3D3B",
"s  c #42271C",
"d  c #462F2B",
"f  c #4E3C31",
"g  c #463C3A",
"h  c #493B38",
"j  c #2D4C3D",
"k  c #35413B",
"l  c #3D413C",
"z  c #42433D",
"x  c #49423F",
"c  c #5D413E",
"v  c #283D40",
"b  c #3E3F43",
"n  c #354444",
"m  c #3B4544",
"M  c #364A48",
"N  c #3D4A49",
"B  c #365050",
"V  c #434442",
"C  c #464944",
"Z  c #4B4A46",
"A  c #474A49",
"S  c #4D4D4B",
"D  c #574B48",
"F  c #544D4A",
"G  c #4C5649",
"H  c #4E504C",
"J  c #52524E",
"K  c #5A514D",
"L  c #4B4F50",
"P  c #455554",
"I  c #4C5452",
"U  c #495D5B",
"Y  c #555553",
"T  c #5A5553",
"R  c #5A5A55",
"E  c #555958",
"W  c #5C5D5A",
"Q  c #63564D",
"!  c #675C59",
"~  c #6B5E5A",
"^  c #4E605F",
"/  c #5D625A",
"(  c #62625E",
")  c #69615F",
"_  c #76695D",
"`  c #4C6564",
"'  c #476866",
"]  c #4A6C6C",
"[  c #556867",
"{  c #526B6A",
"}  c #477366",
"|  c #54726E",
" . c #5A756C",
".. c #4A7A79",
"X. c #557373",
"o. c #5A7473",
"O. c #577975",
"+. c #527A79",
"@. c #5C7D7C",
"#. c #636462",
"$. c #646C62",
"%. c #696969",
"&. c #746562",
"*. c #736C64",
"=. c #6F736A",
"-. c #71726D",
";. c #7C736C",
":. c #726D71",
">. c #637D74",
",. c #617C7A",
"<. c #767771",
"1. c #82796D",
"2. c #887877",
"3. c #917874",
"4. c #5D807D",
"5. c #648879",
"6. c #7C8372",
"7. c #597E80",
"8. c #607F81",
"9. c #5C8384",
"0. c #538A87",
"q. c #5D8A83",
"w. c #558B88",
"e. c #5A8C8A",
"r. c #559B9A",
"t. c #638584",
"y. c #678B89",
"u. c #648C8B",
"i. c #738E8B",
"p. c #64928D",
"a. c #6C968E",
"s. c #639494",
"d. c #6B9594",
"f. c #689897",
"g. c #6E9B9D",
"h. c #769794",
"j. c #719C9C",
"k. c #72A29E",
"l. c #5AACAB",
"z. c #5AB7B7",
"x. c #5EB8B8",
"c. c #6AA3A4",
"v. c #73A5A4",
"b. c #73A8A7",
"n. c #75ADAC",
"m. c #78ACAB",
"M. c #6BB0AD",
"N. c #74B1AD",
"B. c #7DB8A8",
"V. c #63B3B3",
"C. c #63BABA",
"Z. c #6BBCBC",
"A. c #74B4B4",
"S. c #7BB4B4",
"D. c #73B9B4",
"F. c #7FBCB5",
"G. c #75B6BA",
"H. c #7EB5B8",
"J. c #72BBBB",
"K. c #7ABCBB",
"L. c #7EC3BA",
"P. c #7FC1C0",
"I. c #978888",
"U. c #8A9188",
"Y. c #98948B",
"T. c #8E9896",
"R. c #9A9492",
"E. c #969B95",
"W. c #A59C96",
"Q. c #A69C9C",
"!. c #AB9C98",
"~. c #88A19E",
"^. c #99A599",
"/. c #A5A497",
"(. c #ACA09B",
"). c #B4A99A",
"_. c #87A8A5",
"`. c #8CB2AE",
"'. c #AEABA4",
"]. c #A6A8A8",
"[. c #B5ACAA",
"{. c #AAB2AA",
"}. c #BAB7A8",
"|. c #BBB4AB",
" X c #AAAFB1",
".X c #B0B7B7",
"XX c #BAB5B4",
"oX c #BEBEB6",
"OX c #C6B5AC",
"+X c #C6BBB6",
"@X c #BCC3BC",
"#X c #C0C4BD",
"$X c #CDC4BD",
"%X c #D3C3BB",
"&X c #82B9C0",
"*X c #CDBFC0",
"=X c #AECBCD",
"-X c #B8C8C8",
";X c #B8D9D6",
":X c #CACAC7",
">X c #D7CAC5",
",X c #CED6CB",
"<X c #D9D7CC",
"1X c #C1D5DC",
"2X c #DAD8D4",
"3X c #E5D3C9",
"4X c #E2D4D3",
"5X c #E8DCD9",
"6X c #F4DCD8",
"7X c #E7E2D9",
"8X c #FBE3D5",
"9X c #F2E5DB",
"0X c #F8EBDD",
"qX c #C0DEE0",
"wX c #C3E2E4",
"eX c #E6E8E5",
"rX c #EAEDE4",
"tX c #ECECE9",
"yX c #EDEEEC",
"uX c #F5EBE2",
"iX c #FCEDE5",
"pX c #F7EAEB",
"aX c #FBF6EA",
"sX c #FDF4EB",
"dX c #FFF5F3",
"fX c #F8FAF7",
"gX c #FEFCF4",
"hX c #F5FDFF",
"jX c #FEFDFD",
/* pixels */
"z.z.z.z.z.z.z.z.z.z.z.z.z.z.z.z.z.z.z.z.z.z.z.z.z.z.z.z.z.z.z.z.z.",
"z.z.z.z.z.z.z.z.z.z.z.z.z.z.z.z.z.z.z.z.z.z.z.z.z.z.z.z.z.z.z.z.z.",
"z.z.z.z.z.z.z.z.z.z.z.z.z.z.z.z.z.z.z.z.z.z.z.z.z.z.z.z.z.z.z.z.z.",
"z.z.z.z.z.z.z.z.z.z.z.z.z.z.z.z.z.z.z.z.z.z.z.z.z.z.z.z.z.z.z.z.z.",
"z.z.z.z.z.z.z.z.z.z.z.z.z.z.z.z.z.z.z.z.z.z.z.z.z.z.z.z.z.z.z.z.z.",
"z.z.z.z.z.z.z.z.z.z.z.z.z.z.z.z.z.z.z...l.z.z.z.z.z.z.z.z.z.z.z.z.",
"z.z.z.z.z.z.z.z.z.z.z.z.z.l.r.l.r.w.r.Y P ] V.z.z.z.z.z.z.z.z.z.z.",
"z.z.z.z.z.z.z.z.z.z.z.z.l.B 0 5 2 2 Z W S p @.Z.x.Z.x.z.z.x.z.z.z.",
"z.z.z.z.z.z.z.z.z.z.z.' ` Z Y S Z H Y W Y J U [ ` P b.z.x.X.t.C.z.",
"z.z.z.z.z.z.z.z.z.z.e.w Y W W W R W R J W #.S 7 2 5 @.Z.G.N [ Z.z.",
"z.z.z.z.s.@.z.z.V.[ P S R R R R ( Y Z C S J Y S V S ^ o.u.n.J.z.z.",
"z.z.z.z.O.n x.z.O.5 Z #.R Y W Y R R Z i z R ( Y #.#.S 5 P C.z.z.z.",
"z.z.z.z.z.V.s.@.I Y R Y R Y J R z a a Z Y R W W Y Y Z 2 ] C.z.z.z.",
"z.z.z.z.z.z.` 2 C #./ R / R R W H C Z R W J S Y W ( Y 7 { G.z.z.z.",
"z.z.z.z.z.z.{ 5 Y R Y R ( -.<.$.#.( -.<.Z @ 5 R #.%.#.J H o.v.C.z.",
"z.z.z.z.z.Z.X.2 Z Y R R ( -.-.=.-.-.-.-.%.( R T W -.%.#.S 7 M J.z.",
"z.z.z.z.z.C.O.# a C Z Z F T T T Y T C J Q.>X(.;   J R E p 6 r J.z.",
"z.z.z.z.z.J.X.2 t a a i i a i y i q X # [.6X%X_ . i i p e > @.J.z.",
"z.z.z.Z.j.` m 0 i z V p p k a t i z     ! R.OX+XW.R   7 n g.J.z.z.",
"z.z.z.Z.o.# t V a a a m k p a V V t a b     !.9X<X*.  O 9.Z.z.z.z.",
"z.z.z.C.G.j.m 7 a V V a +   2 a     #.E.%.  W.uX%X! A f.J.z.z.z.z.",
"z.z.z.z.z.C.t.% t a a V Z Y Y t 7 V E.:X].C '.5X3XQ X.Z.z.z.z.z.z.",
"z.z.z.z.z.z.J.j.P 4 + S Q.*X2.. ;.:X5XtX-X6.|.iX>X_ o.C.z.z.z.z.z.",
"z.z.z.z.z.z.z.C.9.#   Y :XeX[.J OXiXdXjX2X{.>XiX3X~ o.Z.z.z.z.z.z.",
"z.z.z.z.z.z.z.z.J.g.r V {.,X:X$X3XiXsXuXrX<X9XsX3X1.U Z.z.z.z.z.z.",
"z.z.z.z.z.z.z.z.z.C.u.0 $.^.,X7X0X8X6XuXrXaXuXsX%X! @.Z.z.z.z.z.z.",
"z.z.z.z.z.z.z.z.z.z.J.k.>.G U.).3X8XsX9XaXaXiX+X/.`.J.z.z.z.z.z.z.",
"z.z.z.z.z.z.z.z.z.z.z.x.h.=   : ).8X9XuXsXsX$XQ ,.C.z.z.z.z.z.z.z.",
"z.z.z.z.z.z.z.z.z.z.z.z.=X|.1.. _ ).(.'.[.[.].k.J.z.z.z.z.z.z.z.z.",
"z.z.z.z.z.z.z.z.z.z.z.C.;X7X|.O     ; i 9 . t.C.z.z.z.z.z.z.z.z.z.",
"z.z.z.z.z.z.z.z.z.z.D.a.]./.6.    % w 7     n d.J.z.z.z.z.z.z.z.z.",
"z.z.z.z.z.z.z.z.z.C.d., * * * - C I E E Y V i + @.C.z.z.z.z.z.z.z.",
"z.z.z.z.z.z.z.z.J.s.t.p.....0.0.[ r X # R.#X{.l O.C.z.z.z.z.z.z.z.",
"z.z.z.z.z.z.z.Z.9.B u.S.K.J.G.H.+.1   2 XXjX2XY @.Z.z.z.z.z.z.z.z.",
"z.z.z.z.z.x.A.v.@.p.N.K.P.G.&XH.g.0.h.].2XuX+X) n d.A.z.z.z.z.z.z.",
"z.z.z.z.z.Z.7.M d.F.D.D.A.H.`.H.N.N.;XeX5X+XW.&.g 9 @.x.z.z.z.z.z.",
"z.z.z.z.z.Z.' M k.L.L.A.c.e.f.S.M.F.wXhXyX>X+X(.2.y [ Z.z.z.z.z.z.",
"z.z.z.z.z.Z.] B s.F.F.n...< e.H.A.H.qXhXjXyX2XXXY.g o.Z.z.z.z.z.z.",
"z.z.z.z.z.C.+.e ' q.t.8.v X 0.N.c.g.1XhXjXfXtX:XR.z | Z.z.z.z.z.z.",
"z.z.z.z.z.z.t., e 1 v e   1 w.D.s.+.-XhXjXjXeX@XU.z | Z.z.z.z.z.z.",
"z.z.z.z.z.Z.` L T..XXX[.:.e q.B.e.+.-XjXjXjXtX@XE.G 4.C.z.z.z.z.z.",
"z.z.z.z.z.Z.{ ( ,XjXdXpX'.0 5.B.p.+.-XjXjXjXtX#XE.=.h.Z.z.z.z.z.z.",
"z.z.z.z.z.x.n.~. X2X4X*XI.. k 5.} X.-XjXjXjXeXoX|.+X{.`.D.x.z.z.z.",
"z.z.z.z.z.z.z.J.i.F D h o     0 j  .-XfXjXfXeXoX$X6X+X&.@.Z.z.z.z.",
"z.z.z.z.z.z.z.z.A.| 0   2.(.W.Y.$./ {.7XfXfXtXoX<XiX6X3.V J.z.z.z.",
"z.z.z.z.z.z.z.z.z.Z.@.J |.uXsX5X).f ;.|.7XjXtXoX4XsX6X3.I Z.z.z.z.",
"z.z.z.z.z.z.z.z.z.z.q.T <XgXgXiXOXs d 3.|.2X#XE.'.>X|.T.b.z.z.z.z.",
"z.z.z.z.z.z.z.z.z.C.y.T :XgXdXsXOXf $ c &.;.( z Z &.U.C.z.z.z.z.z.",
"z.z.z.z.z.z.z.z.z.C.t.Z Q.>X4X>X!.d . o . o & 8 9 [ m.z.z.z.z.z.z.",
"z.z.z.z.z.z.z.z.z.x.t.7 K &.&.~ Z a % & 8 h K &.~.x.z.z.z.z.z.z.z.",
"z.z.z.z.z.z.z.z.z.z.d.@ o .     N t.` % y h K ~ _.z.z.z.z.z.z.z.z.",
"z.z.z.z.z.z.z.z.z.z.y.3 x T g 2 k.z.b.0 x K D y i.z.z.z.z.z.z.z.z.",
"z.z.z.z.z.z.z.z.z.z.t.7 Z R Z 2 n.z.A.0 C R F % O.z.z.z.z.z.z.z.z.",
"z.z.z.z.z.z.z.z.z.z.u.5 Z T Z % b.z.n.6 C T S 2 ,.z.z.z.z.z.z.z.z.",
"z.z.z.z.z.z.z.z.z.z.u.2 Z R C 2 b.z.n.4 V Y Z 7 @.z.z.z.z.z.z.z.z.",
"z.z.z.z.z.z.z.z.z.z.s.2 H ( z 2 b.z.n.4 C W S 5 4.z.z.z.z.z.z.z.z.",
"z.z.z.z.z.z.z.z.z.z.l.2 V Y z 4 b.z.n., V J C 3 4.x.z.z.z.z.z.z.z.",
"z.z.z.z.z.z.z.z.z.z.z.2 a V t = b.z.n.w a V a 5 y.C.z.z.z.z.z.z.z.",
"z.z.z.z.z.z.z.z.z.z.z.4 t a 0 2 m.z.n.7 5 i t 2 t.C.z.z.z.z.z.z.z.",
"z.z.z.z.z.z.z.z.z.z.z.2 t a t 2 m.z.A.5 7 a y 2 t.C.z.z.z.z.z.z.z.",
"z.z.z.z.z.z.z.z.z.z.z.2 y a t 2 n.z.N.4 i a t 4 y.C.z.z.z.z.z.z.z.",
"z.z.z.z.z.z.z.z.z.z.z.2 y V t 2 n.z.A.5 t a u 2 y.x.z.z.z.z.z.z.z.",
"z.z.z.z.z.z.z.z.z.z.z.5 t y 7 2 j.G.k.7 7 u i 2 o.G.C.z.z.z.z.z.z.",
"z.z.z.z.z.z.z.z.z.z.z.r 7 2 2 # N  .A 5 5 2 2 = 0 P v.x.z.z.z.z.z.",
"z.z.z.z.z.z.z.z.z.z.z.n 2 # # ; 5 7 9 7 5 # # = 5 0 ,.Z.z.z.z.z.z."
};
