/* XPM */
static char *e84ff9f08c754502c8b1094c595df30d9hnCeFTVRbDZXoIk[] = {
/* columns rows colors chars-per-pixel */
"65 65 251 2 ",
"   c #010001",
".  c #0B0606",
"X  c #160705",
"o  c #080A17",
"O  c #160B18",
"+  c #1A1818",
"@  c #2B0409",
"#  c #241B1D",
"$  c #21211E",
"%  c #2D2518",
"&  c #352618",
"*  c #02012A",
"=  c #0E0B2C",
"-  c #1B1528",
";  c #191A36",
":  c #23172B",
">  c #331A2C",
",  c #271131",
"<  c #182827",
"1  c #143135",
"2  c #242322",
"3  c #292927",
"4  c #292529",
"5  c #2C2C2A",
"6  c #342B2B",
"7  c #332735",
"8  c #382638",
"9  c #2D3134",
"0  c #343333",
"q  c #393938",
"w  c #3C3D3D",
"e  c #4B1422",
"r  c #512C2D",
"t  c #472832",
"y  c #492A39",
"u  c #473937",
"i  c #55373A",
"p  c #68323A",
"a  c #3E403E",
"s  c #47413D",
"d  c #5E4030",
"f  c #65493C",
"g  c #2C1342",
"h  c #032646",
"j  c #1B2548",
"k  c #19304F",
"l  c #252648",
"z  c #392746",
"x  c #3C2C4A",
"c  c #3A3647",
"v  c #2E3253",
"b  c #3B3963",
"n  c #492D4B",
"m  c #45334A",
"M  c #523545",
"N  c #593848",
"B  c #5A295B",
"V  c #493A55",
"C  c #6D3348",
"Z  c #663A54",
"A  c #7A3855",
"S  c #0D4A4D",
"D  c #284646",
"F  c #3B4748",
"G  c #284D53",
"H  c #2E4F54",
"J  c #375557",
"K  c #365468",
"L  c #0A6566",
"P  c #33676D",
"I  c #3A7679",
"U  c #444543",
"Y  c #474746",
"T  c #4A4946",
"R  c #4D4D4A",
"E  c #55494A",
"W  c #53534E",
"Q  c #484A58",
"!  c #4D5058",
"~  c #565551",
"^  c #565857",
"/  c #5B5A55",
"(  c #5E5D59",
")  c #66474A",
"_  c #6F474F",
"`  c #76554C",
"'  c #754A55",
"]  c #665A59",
"[  c #765657",
"{  c #7D5A53",
"}  c #4B635D",
"|  c #62615D",
" . c #7B625B",
".. c #484665",
"X. c #50566B",
"o. c #6A5366",
"O. c #75536A",
"+. c #765968",
"@. c #596668",
"#. c #4F6A73",
"$. c #487679",
"%. c #57787A",
"&. c #686865",
"*. c #67676C",
"=. c #75696A",
"-. c #62726D",
";. c #72716E",
":. c #666975",
">. c #6B6B78",
",. c #756C74",
"<. c #6A777A",
"1. c #767576",
"2. c #7B7976",
"3. c #831C20",
"4. c #A6423C",
"5. c #8A3850",
"6. c #844B57",
"7. c #8F4C50",
"8. c #875957",
"9. c #845B5C",
"0. c #95585A",
"q. c #A95055",
"w. c #89635D",
"e. c #96635C",
"r. c #AB655B",
"t. c #8B5962",
"y. c #955C63",
"u. c #A75962",
"i. c #896665",
"p. c #826D65",
"a. c #966664",
"s. c #99736A",
"d. c #887A74",
"f. c #877B79",
"g. c #907373",
"h. c #AB706A",
"j. c #B4776D",
"k. c #A77B74",
"l. c #C6705C",
"z. c #C97765",
"x. c #5A887D",
"c. c #71837B",
"v. c #948779",
"b. c #A98278",
"n. c #B08A79",
"m. c #AFA275",
"M. c #CA826C",
"N. c #387A83",
"B. c #4B7583",
"V. c #5A7886",
"C. c #6A6F84",
"Z. c #6B7086",
"A. c #687A87",
"S. c #777785",
"D. c #837C83",
"F. c #359396",
"G. c #279FA1",
"H. c #2BA1A2",
"J. c #39A5A6",
"K. c #3AAEAE",
"L. c #478889",
"P. c #598788",
"I. c #4D9897",
"U. c #499799",
"Y. c #579897",
"T. c #668A87",
"R. c #718F92",
"E. c #629E9F",
"W. c #73A699",
"Q. c #5B9CA2",
"!. c #47A7A7",
"~. c #4DA1A1",
"^. c #55A6A6",
"/. c #56A9AA",
"(. c #4CB5B5",
"). c #55B3B3",
"_. c #5AB7B7",
"`. c #58B8B7",
"'. c #54BABA",
"]. c #5DBABA",
"[. c #68A7A5",
"{. c #6EAFB0",
"}. c #63BABA",
"|. c #76B7B8",
" X c #5CC1C0",
".X c #888589",
"XX c #868988",
"oX c #958C8B",
"OX c #9B938C",
"+X c #878995",
"@X c #8D8C93",
"#X c #958D91",
"$X c #8A9798",
"%X c #9B9394",
"&X c #989798",
"*X c #A88F88",
"=X c #A59A96",
"-X c #A49B99",
";X c #90A39B",
":X c #B0A49B",
">X c #8A98A3",
",X c #9B9BA2",
"<X c #A59EA1",
"1X c #99A6A6",
"2X c #9DAAA8",
"3X c #90B1AE",
"4X c #A7A7A7",
"5X c #ABA9A7",
"6X c #B4ACA9",
"7X c #ABB1AD",
"8X c #BAB3AA",
"9X c #A5ABB4",
"0X c #A9B6B4",
"qX c #B8B8B7",
"wX c #BAB9B7",
"eX c #CCB28F",
"rX c #C1AEA7",
"tX c #C5B7AC",
"yX c #C5BCB7",
"uX c #C4BBB9",
"iX c #93CAB4",
"pX c #B5C3BB",
"aX c #C6C1BC",
"sX c #CBC3BB",
"dX c #D4C6B5",
"fX c #EADBA3",
"gX c #E3CFBB",
"hX c #B9BCC3",
"jX c #C3BCC1",
"kX c #B3C8C6",
"lX c #CBC5C2",
"zX c #C9C9C7",
"xX c #D4CBC4",
"cX c #D5CCC7",
"vX c #C9D3CC",
"bX c #DAD3CB",
"nX c #D4CFD0",
"mX c #CBD9D5",
"MX c #D7D8D6",
"NX c #E9D6CB",
"BX c #E7D9CB",
"VX c #F0DECC",
"CX c #E5DDD6",
"ZX c #DCE2DB",
"AX c #E6E4DC",
"SX c #F8EAD9",
"DX c #EAE8E6",
"FX c #F2F1E8",
"GX c #FAF3EB",
"HX c #F9F8F4",
"JX c #FEFEFE",
/* pixels */
"_._._._._._._._._.`.G.)._._._._._.`.`._._._._._._._._._._._._._._._._._._._._._._._._._._._._._._._._._.).G.).`._._._._._._._._._.",
"_._._._._._._._.`.U.:X$X(.}.}._._._._._._._._._._._._._._._._._._._._._._._._._._._._._._._._._._._.}.'.R.rXP.'._._._._._._._._._.",
"_._._._._._._.}.K.k.tXY.!.!.!._._._._._._._._._._._._._._._._._._._._._._._._._._._._._._._._._._.!.!.!.F.tXj.H.}._._._._._._._._.",
"_._._._._._._.}.H.*XyXF.9XyX-XF. X}._._._._._._._._._._._._._._._._._._._._._._._.}._._._._._.}.H.#XlX0XY.tX*XH.}._._._._._._._._.",
"_._._._._._._._.`.$.yXnX,X#.sX$XU.K.K.K.K.(.K.K.K.K.K.K.(.K.K.K.K.K.K.(.K.K.K.K.K.K.(.K.K.K.K.U.R.yXZ.@XxXlXP _.`._._._._._._._._.",
"_._._._._._._._.`.Y.*.X.A.S.8XyXf.XXXXXX$XR.2X2X2X2X1X2XR.1X2X2X1X2X1XR.2X2X2X2X2X2XR.1X2X4X;X4XAXxX1.:.X.:.R._._._._._._._._._._.",
"_._._._._._._.].U.:X6X1.@X+X2.Y q T 0 0 2..XqXsXsXxXlXxX<XyXlXxXxXxXyX-XxXlXxXlXlXlX.XxXlXlXlX<XyX:X&X@X*.7X6XU.]._._._._._._._._.",
"_._._._._._._.`./.1.@.2.>.b c 0 q 0 0 5 7 8 v l b V V ..c ....X.X.....c ......b b K c ..b b ..Q Z.X.Q S..X,.<./.`._._._._._._._._.",
"_._._._._._._._.].U.] 4 . O q W ~ R W R q O 7 8 8 : : m 7 V 8 x m 8 V 7 V 8 x m 8 V 7 m n 8 V : n - m - .X-XY.]._._._._._.`.`.`._.",
"`._._.).~.~.)._._.L.w 5 2 5 U ~ / ( ( ( R 5 4 7 7 + # M > M 7 y M 7 N > N y y m 7 N > M n y M > N > M 8 .XS.!._._._._._._._._._._.",
"`.`._.~.H D U.`.I D U R R R U U R ( ( / ~ R q O = ; - l - k ; j j - k O j ; l l - l - j ; ; k - l - v g U.)._._.`.'.`._._._._._._.",
"_._._.I.9 < #.L.J q W ( ( / T q U ~ ~ / ( ( R 9 < K G N.; $.v P P v B.; $.G K I ; N.l I G G I 1 I l I G L.]._.).Y.Q.).`._._._._._.",
"_._._.).~.#.T R U W ~ ~ / / ~ R U w T ~ / ~ W R a 9 D iXh iXJ W.W.G iX1 3Xx.x.3XS iXS 3Xx.x.3XG iXG W.R.} [./.U.6X*XP.'._._._._._.",
"_._._._.'.<.u q W ( ( / / / ( ( R U T ~ ( ( ( | W 6 < &.G 1.Q -.*.J c.G 1.@.@.1.J 1.H <.^ -.1.J .XH <.*.S R.7X$Xk.j.<.'._._._._._.",
"_._._.^.P F s W ~ ( &.&.| / &.;.&.&.( / | &.;.;.&.W q t O 0.C 5.7.y u.> 0.C C 7., u.y 7.5.p q.> u.y 7.6.e 6.+.^ [ _ Y.`._._._._._.",
"_._._.I.< 5 R ( / / &.;.&./ &.;.1.;.&./ | ;.1.;.&.| R 5 . y : y i O N o N y > i o N O M y > N o ) # i 8 y 0.0.e   N.]._._._._._._.",
"_._._./.1 6 W ( ( ( | &.( / ] &.&.&.| / ( &.&.&.| ] R 9 o : : : : : - : : : : - : - : : : : - - , - : : o * + I Y._._._._._._._._.",
"_._._.I.D 0 R / ^ ~ ~ ~ ~ ~ ~ ~ ~ ~ ~ ~ ~ ~ ~ ~ ~ / R 0 4 z x x x x x m z z m m x x x x z z x 8 x z Z n a.h.e /.}._._._._._._._._.",
"_.~.J 9 q w U T T T Y U T T T U U U T T T U U U T T U w 0 2 O z x , 8 z _ ) * z 8 - ; l v l ; z ' n z e.h.] U._._._._._._._._._._.",
"_.I.1 # 0 w w w w w w w w w q w w w w w w w w w w w w w 0 # # ' t._ ) ) ` a.a.' ' ` a.N k b l N M.i 8 p - ! )._._._._._._._._._._.",
"_./.L.P q 9 q w w w w w w w w w w w w w w q w w w w q 0 6 i ` a.h.h.a.e.e.8.i.[ h.w.j.- v H h E z.i [ a.=.!._._._._._._._._._._._.",
"_.`.`.~.1 + 0 w w w w w w w w w w w w w w w w w w a 0 + 6 s.k.b.k.b.b.n.k.b.b.k.b.s.s.k.k.s.s.9.z._ g.s.*X!.]._._._._._._._._._._.",
"_.`.`.~.< + 0 c w w w w w w w w w w w w w w w w w U 0 + X t M M M M y y y y i y y i N i +.D.S.+.M.C i.i.) !._._._._._._._._._._._.",
"_._.`.I.D + 0 u w w w w w w w w w w w w w w w w w w 0 + O l j j k j l l l l j l l j h 1 %X.X4XoXM.N * y.q.U.]._._._._._._._._._._.",
"_._._./.L.} u i u w w w w w w w w w w w w w w a q 0 4 5 7 z c z c c z n m x m x x m z ! -X#X&XoXM.' y i.R./._._._._._._._._._._._.",
"_._._._._././ r u w w w w w w w w w w w w w w u 0 + < l X.K b m V H #.K G K G K P X.n ^ :X,XqXOXM.) y @.(._._._._._._._._._._._._.",
"_._._._._._.Y.@.T u u w w w w w w w w w s a 7 O - F ^ .XA.V.X.n V X.V.+Xf.A.$X.XR.V.C v 6X6XsX-Xz.) 5.T.'._._._._._._._._._._._._.",
"_._._._._._._./.( r u w w w w w w w w w w w s d ` oXv..X.X#X,.k.i.<.] oX.XoXoXf.A.f.a.* D.%X#Xi.l.o.F.).`._._._._._._._._._._._._.",
"_._._._._._._._.P.~ u u u a w w w w w w 7 6 b.eXm.T.%.A.A.V.@.n.e.#.%.V.A.A.#.#.R.=.h.o.oX* * y z.:.'._._._._._._._._._._._._._._.",
"_._._._._._._.).E.x.W r u w w w w w w w O @ m.fXfXkXmXpXkXmXkXj.w.kXmXkXkXmXkXmXkX&X0.+.OXb 6Xi.z.:.)._._._._._._._._._._._._._._.",
"_._._._._._._.).E.T.T.%.F 5 0 w 0 3 3 5 : O v.eXdXR.pXFXvXvXAXj.s.mXpXmXFX;X;XzXR.v.h.+.-X@X6Xg.l.,.'._._._._._._._._._._._._._._.",
"_._._._._._._.).Y.T./.).G + 0 w 0 + O + 4 * R.&X&XS pXHXpXR.;Xn.a.R.R.vXHXR.$.vXvXoXa.+.%XoX6Xf.z.,.'._._._._._._._._._._._._._._.",
"_._._._._.`._._.$.F G P 1   5 R R U w 9 4   ^ 0 ^ MXAXHX;Xc.} n.8.#.P.pXHXMXZXR.mXsX7.+.-X#X#X,.l.,.'._._._._._._._._._._._._._._.",
"_._._._._.`._.^.H +   . 3 w R / ( / R w 9 < < < -.zX%.;XqXvXlXj.a.kXkX0XR.R.FXnX;XsX0.O.-X1.qXf.z.,.'._._._._._._._._._._._._._._.",
"_._._._.`._.L.G + U 4XvXvXqXXX$     X 2 } P.E.P.$.@.2.pXMXMXZXh.a.mXmXMX2XpXzXR.$Xv.a.+.%X1.qXf.z.:.'._._._._._._._._._._._._._._.",
"_._.`.`.`.~.1 . X 2.nXJXJXHXqX5         %.{.|.|.E.D R 7XFXMXR.n.e.R.FXmXvXZX;X2XS f h.o.-X&X%X=.z.:.'._._._._._._._._._._._._._._.",
"_._._./.L.P.2XnXvXzXzXnXHXJXDXqXqXqXXX& G P.[.|.|.E.%.T.$XvXS n.8.P.FX0XZX0XAX7X2X<Xe.O.-X#X&Xf.l.*.'._._.`._._._._._._._._._._._.",
"_._._.I.1 &.MXJXJXHX5X&.zXJXJXJXJXJXzX&.  X $.{.|.|.E.H w R.T.j.i.T.0XvX1X$X0XkXHXyX7.+.%X.XsXg.z.,.(._._.`._._._._._._._._._._._.",
"_._._.Y.r a.uXMXMXnXqX5XlXAXDXDXDXDXMXlX.X@ P {.{.Y.I D + &XMXr.i.mX$XT.x.0XZX;XvXqX7.+.-X@X@X,.l.*.'._._._._._._._._._._._._._._.",
"_._._.[.0.4._ ! R f.zXDXnXqX8XqX8XqXDXJXzXU L {.E.J . + < V.qX0.[ ;XP.P %.$XR.;XQ.+Xy.O.%X%X6X,.q.*.'._._._._._._._._._._._._._._.",
"_._._.[.p 3.@ 1 ~ OXnXHXDXnXnXnXnXnXHXJXnXU L {.0X8X*X) 6 d.=.R.%.[ OXn.n.v.n.OXOXw.a.O.-XS.&Xf.q.:.'._._._._._._._._._._._._._._.",
"_._._.^.u e G %.&XuXMXFXHXJXJXJXJXJXJXJXzXU L [.kXGXNXp.+ r %.W.R.! i E E E E N M f a.+.%X.X#X=.q.@.'._.]._._._._._._._._._._._._.",
"_./.L.T.&X8XqXqX-X-XcXFXJXJXJXJXJXJXJXJXlXU L {.kXsX:X] # p P X.X.v ` 9.i.t.i.t.8.8.a.+.oX%X6XV h.:.'.J.F.'._._._._._._._._._._._.",
"_.I.1 p.xXGXGXCXoX) qXFXJXJXJXJXJXJXJXJXzXU L |.[.F X + 6 _ 8 v l i s.s.i.a.s.a.w.8.a.O.%X#X6X+.j.<.J.zXCXR.)._._._._._._._._._._.",
"_.I.+ v.VXHXJXGX*X@ 6XFXJXJXJXJXJXJXJXJXzXU S Y.>XOXd.s + E y , * E ] ] [ [ [ [ ] ` a.O.OX:.6Xo.q.#.U.4XhX:./._._._._._._._._._._.",
"_.I.< s.gXSXHXSX*Xr qXFXJXJXJXJXJXJXJXJXzXY   I 0XSXbXp.# N _ o.n n ' _ _ _ Z Z n ` a.o.%X@X4X*.5.%.Y.-X4X%.)._._._._._._._._._._.",
"_.^.P 1.:XgXbXdXOXoXzXFXHXJXJXJXJXJXJXJXzXY   P qXGXSXg.# 6.a.n.8.6.h.e.7.a.w.s.u.e.a.O.OXX.@XX.B #.L.@X$XJ /._._._._._._._._._._.",
"`._._.Y.| { ` p.=XuXCXFXFXHXJXJXJXJXJXJXzXY   P qXGXVXg.+ 6.9.j.0.' a.[ g.i.C 9.y.e.a.O.%XX.R.Q 5.#.!.,.D.B.]._._._._._._._._._._.",
"_._._.).P 1 D q XX5XqXzXlXaXzXMXMXMXMXMX5XR o H &XxXrXw.i 7.9.j.0.[ a.k.i.a.a.9.0.w.a.O.%X:.,Xo.5.K R.MXCXS.F.]._.`._._._._._._._.",
"_._._._./.^.).Y.} R &.1.&.] =.2.1.&.1.2.;./ F 1 T  . .{ 9.) ' j.0.Z 9.9.s.a.8.[ y.8.y.O.%XX.S.X.B $.F.o.f.= ).`._.`._._._._._._._.",
"_._._._._._._.).W & & % @ @ X         % T ( R < . + i ` ) 6.' j.8.' 6.N a.t.E C t.8.y.O.#X:.S.Q B P R.qXqX4XU._._.'.'.`._._._._._.",
"_._._._._._._./.c.8.) u E ~ U 5 + $ s ~ ( / T 5 6 ` 8.) y.' ' j.0._ 8._ ) i.6.0.o.[ a.O.#XZ.,...Z   #XpX0XlX$.]._._.`.`._._._._._.",
"_._._._._._._./.<.` ) s R R 0 - O 9 U R ~ / R 5 : n g N ) Z Z h.8.N N ) n g M N A ` y.O.#XX.S.V _   #XzX0XxXB.]._._._._._._._._._.",
"_._._._._._._./.} u R W U 5 + m 8 1.R 5 T / R 5 u s.k.k.k.k.f.+.=.f.b.k.b.b.b.b.k.g.+.V .XD.@X^ m   #XpX7XyXP.]._._._._._._._._._.",
"_._._._._._._.^.D < R / U +   ,   X.Q + s ~ R 5 6 C A A A C o.H :.o.A A ' A A 6.A g Q * :.+X*.8 e   .XzXpXyXP.]._._._._._._._._._.",
"_._._._._._._.^.D 5 R / U $ w @X.X@X! + U / R 5 0 @X,X,X,X,X&X%X&X,X&X&X%X&X&XS.@X%X-XD.S.$X#X.X#X1.#XAXCXbXI ]._._._._._._._._._.",
"_._._._._._._.^.D 5 R / U $ F 9XhX9X@.$ U / R 5 U AXCXVXVXVXBXVXVXVXVXVXBXAXHX<XgXqXMXsXR.9X9XhX9XR.<XAXsXbXN.'._._._._._._._._._.",
"_._._._._._.`.I.D 5 R / U $ = ,X@XK F + U / R 5 q ,X,X6X4X4X4X6X6X<X4X4X7X4X9XS.6X>XR.S.X.A.K R.>Xk &XqX%XjX%.[./.`._._._._._._._.",
"_._._.`._._.'.%.Y 5 T W s $ ^ kX9X+X;.2 s W T 5 ~ -X6XBXbXBXBXBXBXBXBXbXCX-X6XbXsXbX-X4X0XlX&X2XkX9X<XCXxXbXQ 9XT.`._._._._._._._.",
"_._._._._._.`.#.9 2 w U q 2 ; R.#.X.Q 2 q U w 3 U .X%XtX6X8XtX8X8X8X8X6XtXOX@X&XR.&Xf.P R.R.#.X.R.h @XSXSXbX= X.$.`._._._._._._._.",
"_._._._._.].U.2.~ 2 0 0 5 $ Q qX9X9X*.2 5 0 0 2 T 6XxXsXbX4X4XxXsXyXsXsXsXdXsX%XlXqX7XlX+X0X9X1X0X,X%XSXSXxXv 9XS.U.]._._._._._._.",
"_._._._._.].F.l q 2 5 5 3 $ c A.V.A.! 2 3 3 3 2 Y -XtXtXyX-X&XdXtX8XtXtXtXtX6X#X4X,X$X4XS.R.R.V.A.#.Q &XqX:.j Z.x P ]._._._._._._.",
"_._._._.`./.A.f.1.0 q U q 0 >.@XyXCX2.2 $ + $ $ ] aXbXbXxXbXBXlXlXCXbXxXbXbXbXxXxXbXxXxXlXzXCXyX@X9XS.sXsX8X*.lXoX<.Q.'._._._._._.",
"_._._._.`.P.Z.C.A...oX:X:X] P V.4XBX2.2 2 + $ $ / tXdX8X8XgXgXdXtXgXgX8X8XdXgXdXdXyXgXgX8XsXgX6XZ.N.=.xXlX6XX.R.1.Z.V.`._._._._._.",
"_._._._.].L.* ^ :.Q ! =.=.8 Q Q Q *.Y 2 2 $ $ 2 s ;.1.*.1.1.,.1.1.,.1.1.*.1.f.f.1.*.=.=.X.*.*.Q ! X.c ,.,.X.Q :.^ * $._._._._._._."
};
