/* XPM */
static char *_b15fdd9efc4414ad44a757a3817602apsFuF3uB3VVaOZ46[] = {
/* columns rows colors chars-per-pixel */
"33 65 199 2 ",
"   c #75B5B6",
".  c #010101",
"X  c #0B0502",
"o  c #0A0807",
"O  c #03040B",
"+  c #0C0C0B",
"@  c #070509",
"#  c #140200",
"$  c #110F0E",
"%  c #170805",
"&  c #0F100D",
"*  c #14110F",
"=  c #13001A",
"-  c #151413",
";  c #1A1514",
":  c #1D1D1C",
">  c #191916",
",  c #240000",
"<  c #2C0800",
"1  c #330000",
"2  c #3A0012",
"3  c #201F1F",
"4  c #2A1F1D",
"5  c #21211E",
"6  c #2D2518",
"7  c #312A1B",
"8  c #392417",
"9  c #200024",
"0  c #082222",
"q  c #132525",
"w  c #1E2120",
"e  c #003131",
"r  c #1C3838",
"t  c #242423",
"y  c #292927",
"u  c #2C2B2A",
"i  c #272829",
"p  c #302F2E",
"a  c #382726",
"s  c #32312F",
"d  c #2C3132",
"f  c #343433",
"g  c #383736",
"h  c #3A3937",
"j  c #3C3D3D",
"k  c #302934",
"l  c #460000",
"z  c #401D0F",
"x  c #600000",
"c  c #442317",
"v  c #532C1E",
"b  c #4C2B23",
"n  c #452F2A",
"m  c #522D22",
"M  c #4A302B",
"N  c #563528",
"B  c #4A3934",
"V  c #433E3C",
"C  c #463734",
"Z  c #503B34",
"A  c #593F30",
"S  c #3E403F",
"D  c #42413E",
"F  c #4E403B",
"G  c #5C4133",
"H  c #3D3F40",
"J  c #005557",
"K  c #284748",
"L  c #3C4947",
"P  c #26514E",
"I  c #245958",
"U  c #355353",
"Y  c #006163",
"T  c #146A6A",
"R  c #296A6A",
"E  c #3B7475",
"W  c #306768",
"Q  c #454543",
"!  c #484643",
"~  c #4A4946",
"^  c #434949",
"/  c #4D4D4A",
"(  c #504F4B",
")  c #524B47",
"_  c #53524E",
"`  c #565551",
"'  c #585753",
"]  c #5A5955",
"[  c #5E5D59",
"{  c #5D5C58",
"}  c #515A53",
"|  c #4B5352",
" . c #644B44",
".. c #614D49",
"X. c #6B5547",
"o. c #76574D",
"O. c #605F5B",
"+. c #6B5B57",
"@. c #785E54",
"#. c #774847",
"$. c #61615D",
"%. c #64635F",
"&. c #7A645B",
"*. c #77655D",
"=. c #556163",
"-. c #487374",
";. c #537D7D",
":. c #456667",
">. c #656562",
",. c #656461",
"<. c #6B6A65",
"1. c #6C6C6A",
"2. c #766B67",
"3. c #71716E",
"4. c #747471",
"5. c #7A7976",
"6. c #870000",
"7. c #A93830",
"8. c #A6423C",
"9. c #815F54",
"0. c #826D65",
"q. c #8D756D",
"w. c #857C77",
"e. c #936D66",
"r. c #9A8076",
"t. c #A18B61",
"y. c #BFA872",
"u. c #B9A36E",
"i. c #598D8D",
"p. c #5B9798",
"a. c #629C9C",
"s. c #619798",
"d. c #679FA0",
"f. c #68A6A7",
"g. c #6AAFB0",
"h. c #71AFB0",
"j. c #6DB1B2",
"k. c #73B2B3",
"l. c #7ABCBD",
"z. c #77B8B9",
"x. c #8B8A88",
"c. c #8E8987",
"v. c #998B85",
"b. c #9A948F",
"n. c #989A96",
"m. c #A08B83",
"M. c #A5928B",
"N. c #A49691",
"B. c #A59E9A",
"V. c #BBA599",
"C. c #8FAFAE",
"Z. c #A9A8A6",
"A. c #BAB1AC",
"S. c #B4B0AE",
"D. c #AFB7B2",
"F. c #B5B5B1",
"G. c #BDB6B2",
"H. c #BBBCBA",
"J. c #BBB9B4",
"K. c #D6BE81",
"L. c #C4BBB9",
"P. c #C5B3AB",
"I. c #D8C082",
"U. c #E2CD8D",
"Y. c #FEE69D",
"T. c #C9C3BF",
"R. c #D2C2BA",
"E. c #E5CBBA",
"W. c #FFEFA3",
"Q. c #BFD6D2",
"!. c #A5C4C2",
"~. c #C6C5C4",
"^. c #CAC8C6",
"/. c #CCCCCB",
"(. c #C8C6C3",
"). c #D0CECC",
"_. c #DACBC2",
"`. c #D4D1CE",
"'. c #D6D4D3",
"]. c #DAD9D7",
"[. c #DADAD9",
"{. c #E2CFC4",
"}. c #E8DFD9",
"|. c #F1DED3",
" X c #E7D3C9",
".X c #E3E0DE",
"XX c #F5E5DB",
"oX c #E9E6E4",
"OX c #EBE9E7",
"+X c #ECEBEA",
"@X c #E4E1E0",
"#X c #F7ECE5",
"$X c #FDF2E4",
"%X c #F1F0EE",
"&X c #FFF3EA",
"*X c #FFFBEF",
"=X c #F5F4F2",
"-X c #FEFEFE",
";X c #FFFFF2",
/* pixels */
"                                                                  ",
"                                                                  ",
"                                                                  ",
"                                                                  ",
"                                                                  ",
"                                                                  ",
"                              > > > + .                           ",
"                            u g h f f u t                         ",
"                      . . . j _ ` ( _ / j @       - -             ",
"                    t y t u ! ' ] { [ { / u >     - -             ",
"        - -       t j / ( / ! Q ( { [ ] ` ( h + .                 ",
"        - -     y h _ { [ ] ~ j ! ` ' ] { { / p -                 ",
"            . t D _ ` ' ] ] ` ~ Q j ~ ' ] ' _ / h $               ",
"            t j _ [ [ { ] ] [ [ / Q ~ ' { { [ $._ s -             ",
"          t V _ ` { >.1.$.] ,.1.1.>.[ ] $.1.1.1.>._ h t           ",
"        . u / [ ] ] <.3.,.] >.3.4.3.>.] $.3.4.3.1.O./ y .         ",
"        @ p _ [ { { $.>.[ ] O.>.>.>.$.] [ >.>.>.%.O./ p @         ",
"        : f / ] ' ` ` ` ` ` ` ` ` ` ` ` ` ` ` ` ` ] / f :         ",
"    X : f j ! ~ ~ ~ ! ! ~ ~ ~ ! ! ! ~ ~ ~ ! ! ! ~ ~ ! j f : X     ",
"    o 3 g j j j j j j j j j j j j j j j j j j j j j j j g 3 o     ",
"      : t p j j j j j j j j j j j j j j j j j j j j j p t :       ",
"        . : g j j j j j j j j j j j j j j j j j j j g : .         ",
"        . : f H j j j j j j j j j j j j j j j j j Q g : .         ",
"        @ : f V j j j j j j j j j j j j j j j j j j f : o         ",
"          4 n Z V j j j j j j j j j j j j j j j j f t :           ",
"            v N C j j j j j j j j j j j j j j j f > .             ",
"              m M B V j j j j j j j j j S S k = O @               ",
"                m N B j j j j j j j j j j j F G A                 ",
"                  G Z B V j j j j j j j k a t.K.I.                ",
"                  X.A b C j j j j j j j 9 2 u.Y.W.                ",
"                        a u g j f t i y =   y.U.                  ",
"                        . > f j f - $ - @                         ",
"                  7 .   . . u / / Q j s ;   . .                   ",
"                - - X + i j / ] { ] ( j d q 0 q q                 ",
"              . . ! Z././.H.x.5 . . # t :.i.p.i.-.0               ",
"            . X # 5.'.-X-X-XH.y . . . . ;.k.l.z.s.K .             ",
"          =.Z.'././.^.'.-X-XOXH.H.H.x.7 P i.f.z.k.a.-.K           ",
"        . 1.[.-X-X=XZ.1.^.-X-X-X-X-X^.<.. % -.h.l.z.a.U .         ",
"        x e.L.].[.`.F.Z.(..XoXoX+XOX[.~.c., W k.j.p.E K .         ",
"        7.8.#.| / w.^.OX`.G.A.G.A.G.@X-X^.Q T k.d.U X - +         ",
"        6.6., e } b.'.=XoX'.'.'.`.'.=X-X).! Y g.C.A.M....         ",
"        l c I ;.n.L.].+X=X-X-X-X-X-X-X-X~.Q J f.Q.$X X0..         ",
"      *.N.A.J.F.B.B.).%X-X-X-X-X-X-X-X-X~.Q Y g.!.T.V.+..         ",
"    . 0._.&X&X|.v...J.%X-X-X-X-X-X-X-X-X~.Q T k.d.L # ; *         ",
"    . q.|.;X-X$Xv.1 S.%X-X-X-X-X-X-X-X-X~.Q J a.C.b.w.F .         ",
"    . q.E.$X*X#Xv.b F.%X-X-X-X-X-X-X-X-X~.^ . E D.XX{.0..         ",
"      &.V.E.{.R.M.c.^.=X-X-X-X-X-X-X-X-X^.^ . R H.*XXXq..         ",
"        X.@.X.2.N.L.}.=X=X=X-X-X-X-X-X-X^.^ . R H.&X|.q..         ",
"          . . , w.Z.H.^.~.T./.].].].[.[.Z./ 0 I n._.P.*.          ",
"                g / <.4.<.+.2.5.4.1.4.5.1.] L r ~ &.@.            ",
"                z c 8 6 < , # . . . . 7 ~ ] / w . .               ",
"                9.9. .B ) ' ! y - 5 D ' [ ] ~ y +                 ",
"                o.o. .F ~ / j + . > j ~ ` ] ~ y O                 ",
"                a C ( ` ! y t       t y ~ ] / y +                 ",
"                . q / ] ! &           & D ' / y +                 ",
"                @ y / ] ! :           : ! ] / y +                 ",
"                + y / ] ! :           : ! ] / y +                 ",
"                + y ( ] ! :           : ! ] ( y +                 ",
"                - y ~ _ D :           : D _ ~ y -                 ",
"                - t j ! g :           : g ! j t -                 ",
"                : t f g u :           : u g f t :                 ",
"                5 t y y y 5 5         5 t t t t :                 ",
"                  : : > : 5           5 5 : : 5 5                 ",
"                                      5 t : 5 5 5                 ",
"                                      5 t 5 5 t 5                 "
};
