/* XPM */
static char *fd79e483c3fd4af0d17ab531a84a0992ToYu9ATXzOqxvon2[] = {
/* columns rows colors chars-per-pixel */
"33 65 200 2 ",
"   c None",
".  c #000000",
"X  c #0B0404",
"o  c #00000C",
"O  c #0C0C0B",
"+  c #090B0A",
"@  c #1D0000",
"#  c #160804",
"$  c #08100F",
"%  c #10100F",
"&  c #010714",
"*  c #00121E",
"=  c #151413",
"-  c #1A1A16",
";  c #141C1B",
":  c #1D1D1B",
">  c #181815",
",  c #260105",
"<  c #320000",
"1  c #361800",
"2  c #231B18",
"3  c #10211F",
"4  c #21211E",
"5  c #2F240E",
"6  c #000021",
"7  c #021C23",
"8  c #001722",
"9  c #052527",
"0  c #132423",
"q  c #152B2C",
"w  c #19282A",
"e  c #1C3333",
"r  c #252523",
"t  c #292927",
"y  c #2C2C2A",
"u  c #272829",
"i  c #302F2D",
"p  c #352824",
"a  c #32302E",
"s  c #253133",
"d  c #283839",
"f  c #343434",
"g  c #3A3936",
"h  c #3B3B3B",
"j  c #393735",
"k  c #513100",
"l  c #45251B",
"z  c #55281A",
"x  c #48332C",
"c  c #443F3C",
"v  c #543830",
"b  c #44423E",
"n  c #4C403B",
"m  c #5A463E",
"M  c #3F3F40",
"N  c #1A4746",
"B  c #2B4848",
"V  c #3F4342",
"C  c #385959",
"Z  c #245558",
"A  c #004F60",
"S  c #305A70",
"D  c #006A72",
"F  c #3A7677",
"G  c #444442",
"H  c #484643",
"J  c #4A4946",
"K  c #4D4D4A",
"L  c #464948",
"P  c #514E4B",
"I  c #5A4A44",
"U  c #52514E",
"Y  c #4F5151",
"T  c #565552",
"R  c #595652",
"E  c #5B5A55",
"W  c #5D5D59",
"Q  c #674D46",
"!  c #6D524A",
"~  c #76574E",
"^  c #675B53",
"/  c #735D56",
"(  c #765F58",
")  c #6D645D",
"_  c #63625F",
"`  c #7A635B",
"'  c #74665D",
"]  c #7C725B",
"[  c #4B6968",
"{  c #4D7A7A",
"}  c #4B7473",
"|  c #507D7C",
" . c #666564",
".. c #6E6E6B",
"X. c #6A6865",
"o. c #766D67",
"O. c #71716E",
"+. c #7A7672",
"@. c #686A76",
"#. c #805D53",
"$. c #8E7E50",
"%. c #907E48",
"&. c #846D65",
"*. c #8A776F",
"=. c #A9955F",
"-. c #8C8061",
";. c #928077",
":. c #BEAA70",
">. c #C6B278",
",. c #327A83",
"<. c #2D858A",
"1. c #49868A",
"2. c #548586",
"3. c #588989",
"4. c #5A8F90",
"5. c #569797",
"6. c #4B919E",
"7. c #7E8F8E",
"8. c #639C9C",
"9. c #5F9FA0",
"0. c #5EA8A9",
"q. c #68A2A3",
"w. c #70AEAF",
"e. c #68B3B4",
"r. c #74B5B6",
"t. c #77B8B9",
"y. c #79BCBD",
"u. c #76B7B8",
"i. c #7CBFC0",
"p. c #7DC1C2",
"a. c #988C86",
"s. c #9D938D",
"d. c #97918D",
"f. c #999795",
"g. c #888D8A",
"h. c #AE8F80",
"j. c #A9978A",
"k. c #A79B95",
"l. c #B39F93",
"z. c #A9A39B",
"x. c #B4A398",
"c. c #BAA699",
"v. c #BBB49B",
"b. c #A7AAAB",
"n. c #BBAEA5",
"m. c #B5A8A2",
"M. c #BAB2A9",
"N. c #BDBAAF",
"B. c #BBB9B7",
"V. c #A8B5B1",
"C. c #C3AA9C",
"Z. c #C4AFA0",
"A. c #C3B3AA",
"S. c #C8B1A4",
"D. c #D2BAAB",
"F. c #C3BDBA",
"G. c #CABDB5",
"H. c #D2BFB2",
"J. c #DEC481",
"K. c #FDE69D",
"L. c #C7C1BD",
"P. c #DAC3B3",
"I. c #D3C4BB",
"U. c #D8C8BF",
"Y. c #E3CBBA",
"T. c #EBCFBD",
"R. c #FFEEA2",
"E. c #89BBC1",
"W. c #BCC4C4",
"Q. c #BDCACC",
"!. c #BDD2D1",
"~. c #C4C3C2",
"^. c #CEC8C4",
"/. c #DECEC5",
"(. c #D4CEC9",
"). c #CCD4CB",
"_. c #C5D8D9",
"`. c #D8D9D7",
"'. c #DDD0C8",
"]. c #E3CDC0",
"[. c #E3D4CB",
"{. c #EAD6CB",
"}. c #F6DDCB",
"|. c #E5DDD9",
" X c #FBE1CF",
".X c #E8E4DC",
"XX c #FDE4D2",
"oX c #FFE9D6",
"OX c #FCEADE",
"+X c #D0DFE0",
"@X c #C8E0E0",
"#X c #EBE9E6",
"$X c #EDEBEA",
"%X c #E7E5E4",
"&X c #F9EFE8",
"*X c #FFF2E5",
"=X c #FFF3E9",
"-X c #FFF9EE",
";X c #FFFDF4",
":X c #FEFEFE",
/* pixels */
"                                                                  ",
"                                                                  ",
"                                                                  ",
"                                                                  ",
"                                      .                           ",
"                                    r y r                         ",
"                          . . . . . g K h X                       ",
"                        r y y t r t J E U a -                     ",
"                      X g K U K K K T E E U h O . .       = =     ",
"                    > i K W W E E E R T E W K i r t r     = =     ",
"        = =       O g P T E E E W E P G K E T K K P b r .         ",
"        = =     = a K W E E E E R T J g H R E E W W K t .         ",
"            . 4 h P R E E T R T J h G J U E E E E E J : .         ",
"            . r K W E E E W W W K G K W E T T E E W U f =         ",
"            . r K W E E  .......X. ...O.T 8 s T  ... .T c r       ",
"            . r J E T R  .O.O...O.O.O.O.X.) E U W ....W J y .     ",
"            . : h J J J T T T T T T L Y k.P.x.r . Y E T G t .     ",
"            = r f h h h g g g g g g o w x.}.P.) & g j h f : +     ",
"          : y j g h h h h g g g h h . . ^ j.Z.D.l.R & t r -       ",
"        X : j h h h h h h h h h h g h h . . l.XXY.) . O .         ",
"          - r f g G G g 7 . s h . .  .f.@.6 j.XXY.^ . .           ",
"            . - f h h h P R K h 4 b k.(.b.S z.XXY.^ .             ",
"              = r y * P l.D.;.o *.G.|.$XQ.6.V.OX]./ .             ",
"                . = . R H.XXc.U M.*X;X;X+XE.!.*X].` .             ",
"                  O . L b.).^.H.{.*X*X*X.X`.#X;X{.&..             ",
"                    . e <.r.).XXXXXXXXXXoX*X=X*XI.( .             ",
"                        A D g.C.T.oXoXoX*X;XOXH.a.~               ",
"                        5 5 . l c.}.oX XOX*XI.Q .                 ",
"                        J.>.%.. o.l.c.x.n.n.s.                    ",
"                        R.K.>.7 . . r j u . .                     ",
"                      1 =.:.$.. . 7 s d . . . .                   ",
"                    q q q 9 9 w G E E E U G f : X                 ",
"                  $ } 4.1.,.1.2.[ g X : d.~.b.M .                 ",
"                . B 5.t.t.r.t.r.2.q . r B.:X`.T .                 ",
"              B [ 5.w.y.p.y.i.t.9.2.7.b.(.%X~.^ . =               ",
"            . B 8.t.t.r.r.r.r.r.e.r.!.#X|.F.f.o.b r .             ",
"            . C q.p.p.u.8.3.q.r.e.y.@X:X$X(.N.k.+.g .             ",
"            . B 8.y.p.r.{ e 2.r.e.r._.:X;X$X`.F.d.G .             ",
"            . d F 1.1.1.N . 2.u.0.8._.:X:X:X%X^.s.c .             ",
"            0 q s d d d . e 4.r.5.| W.:X:X:X#XL.d.c .             ",
"            . K s.A.A.m.&.a 4.t.5.} W.:X:X:X$XL.d.C 7             ",
"            . _ /.=X-XOXl.l 2.t.5.{ W.:X:X:X#XL.f.2.D             ",
"              W n.[.[.I.*.. Z 3.F { Q.:X:X:X%XF.M.N.z.'           ",
"                H P P b O . . p N { Q.:X:X:X%XF.I. XP.` .         ",
"                  . . . +.k.l.h.o.[ b..X;X:X$XF./.*X}.*..         ",
"                    . Q G.OXOX}.l.v ] v..X:X$XF.'.=X{.*..         ",
"                    . ! /.;X;X*XS.z k -.M.`.~.f.m./.A.`           ",
"                    . ! U.-X;X*XA.v < m ) +. .V I ( /             ",
"                    . m x.U.[.I.k.x . , @ , 1 l < .               ",
"                    + p I ( ` ( I t = 4 p x Q #.#.                ",
"                    0 : @ @ . . . ; 3 ; a n Q ~ ~                 ",
"                    % r J U b 2 #     : b T P j p                 ",
"                    O r K E L ;       : H E K 0 .                 ",
"                    O r K E H :       : H E K t +                 ",
"                    O r K E J :       : H E K t O                 ",
"                    O r K E J :       : H E P t +                 ",
"                    % r H U b :       : b U J t =                 ",
"                    - r g G j :       : j G h r -                 ",
"                    - r j g f :       : f g j r -                 ",
"                    - r j h f :       : f h j r -                 ",
"                    - r j h j :       : f h g r -                 ",
"                    > r g h j :       : f h g r -                 ",
"                    : r f j y : 4   r r a g f r :                 ",
"                    t t t r r 4 r y t t t t r 4 r t y             ",
"                    y y r : : 4 t i i y r : - : t a y             "
};
