/* XPM */
static char *_f912ab86d8e4815b4e4727561de08f1Tv5gxNsv9043e8aN[] = {
/* columns rows colors chars-per-pixel */
"33 65 222 2 ",
"   c #020201",
".  c #0A0203",
"X  c #080B0A",
"o  c #150A04",
"O  c #0A130C",
"+  c #161908",
"@  c #0B1617",
"#  c #191816",
"$  c #1D1D1C",
"%  c #251C17",
"&  c #341B1F",
"*  c #09221E",
"=  c #14241B",
"-  c #1B231C",
";  c #22211E",
":  c #392E1A",
">  c #1E1F22",
",  c #221D23",
"<  c #0E2B24",
"1  c #1A2726",
"2  c #19372F",
"3  c #242422",
"4  c #2A2524",
"5  c #272926",
"6  c #2A2925",
"7  c #2C2C2B",
"8  c #352926",
"9  c #322E2C",
"0  c #25302A",
"q  c #2C322C",
"w  c #3B342C",
"e  c #312F31",
"r  c #283333",
"t  c #2C3C3B",
"y  c #343333",
"u  c #3D3634",
"i  c #343936",
"p  c #3B3A36",
"a  c #37373A",
"s  c #3A3539",
"d  c #353B3C",
"f  c #3C3C3B",
"g  c #402629",
"h  c #453C39",
"j  c #3B453B",
"k  c #3D423D",
"l  c #42423D",
"z  c #4B423C",
"x  c #323D41",
"c  c #423F40",
"v  c #1F4142",
"b  c #354744",
"n  c #3A4443",
"m  c #3D4B4A",
"M  c #395752",
"N  c #444444",
"B  c #4A4643",
"V  c #454A45",
"C  c #4A4A46",
"Z  c #474548",
"A  c #464C4A",
"S  c #4D4D4A",
"D  c #564C47",
"F  c #524D4B",
"G  c #46524E",
"H  c #52514E",
"J  c #59554C",
"K  c #534F50",
"L  c #4A5453",
"P  c #475855",
"I  c #4D5D5B",
"U  c #545553",
"Y  c #595653",
"T  c #565854",
"R  c #5A5A56",
"E  c #54575A",
"W  c #555D5B",
"Q  c #5C5C5A",
"!  c #665045",
"~  c #645B56",
"^  c #625D5A",
"/  c #4F605D",
"(  c #51625C",
")  c #5F605B",
"_  c #63635D",
"`  c #6B6159",
"'  c #766259",
"]  c #4B6463",
"[  c #496B6A",
"{  c #526562",
"}  c #5D6463",
"|  c #566D6C",
" . c #586C6B",
".. c #447069",
"X. c #5A726D",
"o. c #497676",
"O. c #547573",
"+. c #5D7574",
"@. c #5B7973",
"#. c #547A7A",
"$. c #5B7D7B",
"%. c #666866",
"&. c #6B6C6A",
"*. c #756A62",
"=. c #756966",
"-. c #67726B",
";. c #6D726C",
":. c #757568",
">. c #696D70",
",. c #637A77",
"<. c #637D7B",
"1. c #757878",
"2. c #81776D",
"3. c #897C77",
"4. c #4F8178",
"5. c #57837E",
"6. c #6A807C",
"7. c #858277",
"8. c #5C7F81",
"9. c #4B8787",
"0. c #5D8684",
"q. c #5C8C8D",
"w. c #548D92",
"e. c #599493",
"r. c #638281",
"t. c #648C89",
"y. c #688A88",
"u. c #758A89",
"i. c #65938E",
"p. c #7E938E",
"a. c #659494",
"s. c #6D9595",
"d. c #649798",
"f. c #6E9C9A",
"g. c #749897",
"h. c #73A29F",
"j. c #669EA2",
"k. c #59AAAA",
"l. c #5BB7B7",
"z. c #5EB8B8",
"x. c #68A9AD",
"c. c #75A5A4",
"v. c #75AAAA",
"b. c #7BACAC",
"n. c #72B2AD",
"m. c #71ABB1",
"M. c #6AB3B5",
"N. c #63BABA",
"B. c #6CBCBC",
"V. c #74B4B5",
"C. c #79B4B3",
"Z. c #79BAB5",
"A. c #75B5BA",
"S. c #78B6B9",
"D. c #73BBBB",
"F. c #7CBBBB",
"G. c #7BC2BF",
"H. c #75BEC5",
"J. c #7AC4C5",
"K. c #888A86",
"L. c #9C8A87",
"P. c #90958F",
"I. c #999B99",
"U. c #A3918E",
"Y. c #A49993",
"T. c #A69C98",
"R. c #AAA49A",
"E. c #B4A69A",
"W. c #B7B19B",
"Q. c #88A6A5",
"!. c #98A8A5",
"~. c #8AB1AE",
"^. c #85B4B4",
"/. c #84B9B8",
"(. c #96B5B0",
"). c #A9AAA7",
"_. c #B5AEA6",
"`. c #B6B4A8",
"'. c #ADB6B1",
"]. c #BBB5B3",
"[. c #BDBEBC",
"{. c #C0B19E",
"}. c #C5B6A9",
"|. c #C4B3AC",
" X c #D2BCAF",
".X c #C7BAB7",
"XX c #C4BCB5",
"oX c #C5C1BE",
"OX c #CCC4BB",
"+X c #D8C6BD",
"@X c #ECD1BE",
"#X c #86C4C4",
"$X c #A8C9C5",
"%X c #B8C6C5",
"&X c #BAD9D5",
"*X c #C9C8C6",
"=X c #D4CBC3",
"-X c #D7CAC7",
";X c #DCD4C8",
":X c #D8D8D5",
">X c #E2CACD",
",X c #E9D2C8",
"<X c #E8DCD5",
"1X c #EDE2CC",
"2X c #EBE6DA",
"3X c #F5E5DC",
"4X c #F9E7DA",
"5X c #FDE5DB",
"6X c #DDDEE0",
"7X c #F3DFE1",
"8X c #D4E6E4",
"9X c #E8E7E6",
"0X c #F5ECE3",
"qX c #F8E9E8",
"wX c #F0F0E4",
"eX c #FEF2E5",
"rX c #FDF4EC",
"tX c #FEFAED",
"yX c #FFF7F5",
"uX c #FFF8F6",
"iX c #F5FDFD",
"pX c #FCFDFE",
/* pixels */
"l.l.l.l.l.l.l.l.l.l.l.l.l.l.l.l.l.l.l.l.l.l.l.l.l.l.l.l.l.l.l.l.l.",
"l.l.l.l.l.l.l.l.l.l.l.l.l.l.l.l.l.l.l.l.l.l.l.l.l.l.l.l.l.l.l.l.l.",
"l.l.l.l.l.l.l.l.l.l.l.l.l.l.l.l.l.l.l.l.l.l.l.l.l.l.l.l.l.l.l.l.l.",
"l.l.l.l.l.l.l.l.l.l.l.l.l.l.l.l.l.l.l.l.l.l.l.l.l.l.l.l.l.l.l.l.l.",
"l.l.l.l.l.l.l.l.l.l.l.l.l.l.l.l.l.l.l.l.l.l.l.l.l.l.l.l.l.l.l.l.l.",
"l.l.l.l.l.l.l.l.l.l.l.l.l.l.l.l.l.l.l.l.l.l.l.l.l.l.l.l.l.l.l.l.l.",
"l.l.l.l.l.l.l.l.l.l.l.l.l.l.l.l.l.l.l.l.l.l.l.l.l.l.l.l.l.l.l.l.l.",
"l.l.l.l.l.l.l.l.l.l.l.l.l.k.l.l.l.l.l.l.l.l.l.l.l.l.l.l.l.l.l.l.l.",
"l.l.l.l.l.l.l.l.l.l.l.l.#.S k.l.l.l.l.l.l.l.l.l.l.l.l.l.l.l.l.l.l.",
"l.l.z.l.l.l.l.l.l.l.l.[ S %.S 3 3 4 7 9.l.l.l.l.l.l.l.l.l.l.l.l.l.",
"l.D.r.$.l.l.v.] k.l.k.H R Y U S S C S H e.l.l.l.l.l.l.l.l.l.l.l.l.",
"l.D.] n S.D.+.6 $ 7 N Q _ U R R R ) R R S o.l.l.l.l.l.l.l.l.l.l.l.",
"l.z.D.v.t.+.L U H S U R C p F Q Q R Q R U H e.l.l.l.l.l.l.l.l.l.l.",
"l.l.l.B.I 5 H R Q R Q R B p B U R S R R Q ) B 9.l.l.l.l.l.l.l.l.l.",
"l.l.l.N.| 3 C Q Q Q Q Y F B l l H T U H T Q U S l.l.l.l.l.l.l.l.l.",
"l.l.l.F.{ 9 U Q Q R U H Q ) S p V Q Q ^ R U Q Q S r l.l.l.l.l.l.l.",
"l.B.h.X.R D ;.&.} W q O T &.;.} %.;.;.*.%.Q E } S ; l.l.l.l.l.l.l.",
"l.D.m w z ^ &.1.} S U _ _ :.&.1.1.%.;.1._ U T U C 3 l.l.l.l.l.l.l.",
"l.D.t ; B F Q F . 4 ).=XY.Y H F Q Q Q U S S S C a $ l.l.l.l.l.l.l.",
"l.D.#.> y p f u . ~ +X0XE.% . h w u a d k k p p y , l.l.l.l.l.l.l.",
"l.l.D.f.n 7 o J E..X|.U.=.. . z h u d x t i l w h s [ O.c.N.l.l.l.",
"l.l.l.N.$.O   *.=X3XT.. . u l u h h x n n d u l h c y > O.B.l.l.l.",
"l.l.l.l.D.a.j ~ ;X0XT.  >.I.Q     p 9   @ f N f u 7 #.s.A.N.l.l.l.",
"l.l.l.l.l.B.@.J =X2X).L !.*XI.d $ i D D F c d n y ..0.N.l.l.l.l.l.",
"l.l.l.l.l.N.@.` =XwX'.1.%X9X6X[.1.X 3.}.R.F @ r o.f.D.l.l.l.l.l.l.",
"l.l.l.l.l.B. .*.;XwX*X).:XpXuXyX].C _.0XXXU   @ q.N.l.l.l.l.l.l.l.",
"l.l.l.l.l.B.{ *.;XtX0X:X<XyXrX5X<XXX*X:X).V r f.D.l.l.l.l.l.l.l.l.",
"l.l.l.l.l.B.<.*.-XrX0X0X0X3X5X5X4X4X*X!.-.q t.N.l.l.l.l.l.l.l.l.l.",
"l.l.l.l.l.l.A.~.I.=XqXtXrX5X5X5X@X{.P.G $.f.D.l.l.l.l.l.l.l.l.l.l.",
"l.l.l.l.l.l.l.B.8.~ +XeX4X4X5X<XE.:   - i.N.l.l.l.l.l.l.l.l.l.l.l.",
"l.l.l.l.l.l.l.l.D.c.).|.}.E._.R.:.  :.`.$Xl.l.l.l.l.l.l.l.l.l.l.l.",
"l.l.l.l.l.l.l.l.l.N.y.o w w ; X   + W.1X&XN.l.l.l.l.l.l.l.l.l.l.l.",
"l.l.l.l.l.l.l.l.D.f.m .   6 7 O     7._.!.f.D.l.l.l.l.l.l.l.l.l.l.",
"l.l.l.l.l.l.l.B.r.# 6 p U W E E V - - = 2 < i.N.l.l.l.l.l.l.l.l.l.",
"l.l.l.l.l.l.l.N.O.u _.[.P.$ X x ] $.$...4.0.t.d.D.l.l.l.l.l.l.l.l.",
"l.l.l.l.l.l.l.B.5.Y :Xl.[.1   2 0.b./.C.n./.a.v q.N.l.l.l.l.l.l.l.",
"l.l.l.l.l.l.V.f.b ^ *X9X:X!.u.$.j.A.D.F.J.G.C.d.8.b.D.l.l.l.l.l.l.",
"l.l.l.l.l.B.$.1 l &.I.*X6X9X&Xb.x.H.A.V.A.V.Z.^.s.b #.N.l.l.l.l.l.",
"l.l.l.l.l.N.[ 0 ;.T.|.-X9XiX8X^.V.M.A.F.v.q.q.t.] O [ N.l.l.l.l.l.",
"l.l.l.l.l.B.O.j P..X<XqXpXiX&X^.m.A.S./.q.M 2 t =   O.l.l.l.l.l.l.",
"l.l.l.l.D.i.b U I.oX<XuXpXpX&Xf.j.V.F.C.5.< %.)..X].(.M.l.l.l.l.l.",
"l.l.l.B.,.8 j ;.P.oXqXpXpXiX$X#.q.V.A.Z.5.@ I.7XrXyX=X-.O.l.l.l.l.",
"l.N.V.~.I._.]._.)..XqXpXpXpX$Xo.e.V.G.Z.5.* 1..X>X>X).U P l.l.l.l.",
"l.D. .=..X4X2X<XOXXX9XpXpXpX%X#.w.M.D.n.t.1 . & g 8 4 9 +.l.l.l.l.",
"l.D.i 3.3XtXrX4XOX].9XpXpXpX%X@.9.J.J.S.t.r U L.U.L.3.B | l.l.l.l.",
"l.D.G 3.,XeXeX4XOXoX9XuXpXpX%X+.w.M.S.b.r.0 Y.<XrX3XOX` { N.l.l.l.",
"l.B.c.I.|.,X+X X|.OX9XiXiX6X).X.a.m.#X^.6.5 R.eXtXeX;X2.I N.l.l.l.",
"l.l.l.F.K.' ! *.Y.OXrXpX9X'.K.W y.^./.~.6.q Y.3XeXeX+X:.P D.l.l.l.",
"l.l.l.N.c.| <.X.K.Y.-X;X].7.~ H ,.g.p.p.} 6 3..X=X;X~.c.c.B.l.l.l.",
"l.l.l.l.l.B.z.D.u.D *.2.*.J z l I { ( n q ; z ~ =.&.f.N.l.l.l.l.l.",
"l.l.l.l.l.l.l.N.g.8 % o o o % 9 n G n 3 - # d +.,. .c.l.l.l.l.l.l.",
"l.l.l.l.l.l.l.B.Q.` D w 8 % # 4 A W E U l ; <.B.l.N.l.l.l.l.l.l.l.",
"l.l.l.l.l.l.l.B.Q.^ ~ h u 6 ; 6 f S U Q S u <.Z.z.l.l.l.l.l.l.l.l.",
"l.l.l.l.l.l.l.B.u.9 K Y B u f p y 9 B Y ^ Q S f s.N.l.l.l.l.l.l.l.",
"l.l.l.l.l.l.l.N.<.# F ^ S p N p L +.-.Q %.Y B 7 | B.l.l.l.l.l.l.l.",
"l.l.l.l.l.l.l.N.r.% F R U f y 7 s.B.^.Q _ R H ; 5.N.l.l.l.l.l.l.l.",
"l.l.D.A.F.D.D.C.,.f B F Z a m $.D.l./.C Y H H p +.C.B.l.l.l.l.l.l.",
"l.B.y.n m P m I E F Y B y 7 f.B.l.l.c.7 l l V U A n s.N.l.l.l.l.l.",
"l.D.P 6 7 5 # 7 S Q S y 7 1 v.l.l.l.V.O.n f U Q U y I C.B.l.l.l.l.",
"l.D.P 7 p f 7 q H ^ K f e > c.l.l.l.N.B.h.A T Q U C y d s.B.l.l.l.",
"l.B.f.L d k 7 9 N S B f A +.A.l.l.l.l.l.F.N N S C B 7 7 I D.l.l.l.",
"l.l.N.S./ 7 p k l y y f f.B.l.l.l.l.l.l.S.d y p p e 7 7 { D.l.l.l.",
"l.l.l.z.f.G V 9 6 ; 5 i V.l.l.l.l.l.l.D.g.7 $ 3 5 3 i P f.B.l.l.l.",
"l.l.l.l.N.F.X.7 3 ; 6 q l.l.l.l.l.l.M.| e 5 $ 3 3 3 | S.N.l.l.l.l.",
"l.l.l.l.l.l.y.$ $ $ ; b l.l.l.l.l.l.l.3 3 ; ; - ; ; y.l.l.l.l.l.l."
};
