/* XPM */
static char *f5e3feaa71154f1a84b257376897780aYXB0XvnlRtmDLsJj[] = {
/* columns rows colors chars-per-pixel */
"33 65 232 2 ",
"   c #020301",
".  c #0A0100",
"X  c #0A080A",
"o  c #130906",
"O  c #14180D",
"+  c #091111",
"@  c #0D1614",
"#  c #181717",
"$  c #1D1D1C",
"%  c #241D19",
"&  c #13231C",
"*  c #1D221E",
"=  c #22211E",
"-  c #2A251D",
";  c #362D1C",
":  c #231F20",
">  c #1B2927",
",  c #1F3538",
"<  c #232422",
"1  c #2C2524",
"2  c #252A23",
"3  c #2B2925",
"4  c #272B2C",
"5  c #2C2C2B",
"6  c #362E27",
"7  c #2D312A",
"8  c #33312D",
"9  c #3C312D",
"0  c #2E2F31",
"q  c #2B3432",
"w  c #273B3C",
"e  c #343433",
"r  c #3A3533",
"t  c #353935",
"y  c #393935",
"u  c #38373A",
"i  c #343C3B",
"p  c #3B3C3B",
"a  c #42382F",
"s  c #443B34",
"d  c #443A3A",
"f  c #423D3C",
"g  c #31423C",
"h  c #3D413D",
"j  c #44463A",
"k  c #44433E",
"l  c #413F41",
"z  c #2A4244",
"x  c #344545",
"c  c #3B4443",
"v  c #364948",
"b  c #3C4C4B",
"n  c #385050",
"m  c #3D595A",
"M  c #3A6767",
"N  c #444443",
"B  c #4B4442",
"V  c #4A4A46",
"C  c #464A49",
"Z  c #4D4C4A",
"A  c #554B48",
"S  c #524E4D",
"D  c #46514D",
"F  c #52514E",
"G  c #5A534C",
"H  c #484E50",
"J  c #564D50",
"K  c #465755",
"L  c #4C5352",
"P  c #4B5C5C",
"I  c #545552",
"U  c #5A5453",
"Y  c #555955",
"T  c #5A5A55",
"R  c #565858",
"E  c #5D5D5A",
"W  c #635346",
"Q  c #685B57",
"!  c #635C5B",
"~  c #4F625E",
"^  c #50605C",
"/  c #5F625E",
"(  c #63615C",
")  c #6A625E",
"_  c #74635C",
"`  c #575D61",
"'  c #645E62",
"]  c #4C6564",
"[  c #4A6866",
"{  c #526664",
"}  c #526D6C",
"|  c #5A6968",
" . c #49736F",
".. c #58766F",
"X. c #4B7975",
"o. c #537371",
"O. c #5C7574",
"+. c #597975",
"@. c #597478",
"#. c #557C7A",
"$. c #5C7B7B",
"%. c #646362",
"&. c #6E6461",
"*. c #68696A",
"=. c #6B6C6B",
"-. c #766A65",
";. c #68746E",
":. c #787668",
">. c #696B74",
",. c #746E70",
"<. c #647977",
"1. c #627D7A",
"2. c #787677",
"3. c #86716A",
"4. c #877B76",
"5. c #4F8176",
"6. c #58837C",
"7. c #65837E",
"8. c #7E837F",
"9. c #8B8979",
"0. c #92887F",
"q. c #607F82",
"w. c #747780",
"e. c #4B8E89",
"r. c #538383",
"t. c #5B8886",
"y. c #558D8B",
"u. c #5D8D8C",
"i. c #5B9493",
"p. c #618483",
"a. c #638A8A",
"s. c #6A8A88",
"d. c #778887",
"f. c #6A938E",
"g. c #71908B",
"h. c #659393",
"j. c #6A9794",
"k. c #6D9B9B",
"l. c #769694",
"z. c #729B9C",
"x. c #5FA49F",
"c. c #72A09C",
"v. c #6B9CA0",
"b. c #56A5A5",
"n. c #5AACAC",
"m. c #75B5B6",
"M. c #5DB9B8",
"N. c #69A7A6",
"B. c #75A5A5",
"V. c #7CA8A6",
"C. c #73ACAB",
"Z. c #6DB2AD",
"A. c #79B2AC",
"S. c #61AFB0",
"D. c #75AFB1",
"F. c #6BB5B5",
"G. c #64BABA",
"H. c #6CBCBC",
"J. c #74B4B4",
"K. c #7AB4B5",
"L. c #74B9B6",
"P. c #79B9B6",
"I. c #73BBBB",
"U. c #7BBBBB",
"Y. c #7FC2B9",
"T. c #7ABEC1",
"R. c #77C1C0",
"E. c #868A85",
"W. c #968E8C",
"Q. c #8E9289",
"!. c #9A998E",
"~. c #8C9793",
"^. c #9B9A9B",
"/. c #AC9B94",
"(. c #A69A99",
"). c #9DA196",
"_. c #A8A59B",
"`. c #B7A99C",
"'. c #B2B19F",
"]. c #919CA0",
"[. c #86AEAB",
"{. c #9BA6AC",
"}. c #83B8B5",
"|. c #A7A9A6",
" X c #B7ABA5",
".X c #A6B1AC",
"XX c #BBB3A8",
"oX c #BAB8B4",
"OX c #C0ACA5",
"+X c #C2B4AA",
"@X c #C3B9B5",
"#X c #CDBAB6",
"$X c #C5BCBC",
"%X c #8CC0BE",
"&X c #BAC3B8",
"*X c #C8C2BB",
"=X c #D4C3BA",
"-X c #E5CEBE",
";X c #91C6C3",
":X c #B7C9C9",
">X c #B7D7D3",
",X c #C6C2C4",
"<X c #CECCC5",
"1X c #D6CBC5",
"2X c #D1D4CB",
"3X c #C0CFD4",
"4X c #C6DADA",
"5X c #D5D5D2",
"6X c #DADBD4",
"7X c #E6CBC5",
"8X c #E9D7CD",
"9X c #EADAD3",
"0X c #E9E3DA",
"qX c #F9E5D6",
"wX c #FEE9D6",
"eX c #F4E3DB",
"rX c #F3ECDB",
"tX c #FEEADC",
"yX c #D6DFE4",
"uX c #DCEBF0",
"iX c #E4E5E1",
"pX c #EBE6E5",
"aX c #ECEBEA",
"sX c #F7EBE4",
"dX c #F5F1E3",
"fX c #FEF4E5",
"gX c #FDF3EA",
"hX c #FEFAE9",
"jX c #F9F6F2",
"kX c #F5FAF4",
"lX c #F6FEFD",
"zX c #FDFFFC",
/* pixels */
"m.m.m.m.m.m.m.m.m.m.m.m.m.m.m.m.m.m.m.m.m.m.m.m.m.m.m.m.m.m.m.m.m.",
"m.m.m.m.m.m.m.m.m.m.m.m.m.m.m.m.m.m.m.m.m.m.m.m.m.m.m.m.m.m.m.m.m.",
"m.m.m.m.m.m.m.m.m.m.m.m.m.m.m.m.m.m.m.m.m.m.m.m.m.m.m.m.m.m.m.m.m.",
"m.m.m.m.m.m.m.m.m.m.m.m.m.m.m.m.m.m.m.m.m.m.m.m.m.m.m.m.m.m.m.m.m.",
"m.m.m.m.m.m.m.m.m.m.m.m.m.m.m.m.m.m.m.m.m.m.m.m.m.m.m.m.m.m.m.m.m.",
"m.m.m.m.m.m.m.m.m.m.m.m.m.m.m.m.m.m.m.m.m.m.m.m.m.m.m.m.m.m.m.m.m.",
"m.m.m.m.m.m.m.m.m.m.m.m.m.m.m.m.m.m.m.m.m.m.m.m.m.m.m.m.m.m.m.m.m.",
"m.m.m.m.m.m.m.m.m.m.m.m.m.m.m.m.m.m.m.b.m.m.m.m.m.m.m.m.m.m.m.m.m.",
"m.m.m.m.m.m.m.m.m.m.m.m.Z.] ] y.b.n.n.I X.m.m.m.m.m.m.m.m.m.m.m.m.",
"m.m.m.m.m.m.m.m.m.m.m.I.7.3 < 5 < 3 N E F n m.m.m.m.m.m.m.m.m.m.m.",
"m.m.m.m.m.m.m.m.m.m.C.P D F Z V V Z T T E Z } y.n.m.m.m.m.u.u.m.m.",
"m.m.m.m.H.H.m.m.m.I.O.5 F E / E ( T T F T E F 5 = 3 u.m.m.v { m.m.",
"m.m.m.H.a.O.H.m.J.P C F I I F E T T F f Z F I S Z Z L <.a.C.I.m.m.",
"m.m.m.H.{ i J.H.O.e Z T T E I T E I Z p V T ( I E E Z < ] G.m.m.m.",
"m.m.m.m.I.C.h.1.L Z I ( I F E F V e k Z Z F ( E I E Z # } G.m.m.m.",
"m.m.m.m.m.G.} < Z / Y I T ( T E Z N Z Y ( R R R %.T S y { I.m.m.m.",
"m.m.m.m.m.H.} = Z E Y Y *.=.=.=.>.| *.;.Y @ 5 R %.,.&.G T } B.G.m.",
"m.m.m.m.m.H.o.1 B T I F %.2.2.,.>.w.2.=.%./ L E ' ,.&.) k 5 n I.m.",
"m.m.m.m.m.G.$.$ r Z Z Z L I I U T F B G !.1X X- . A ( S k 2 x I.m.",
"m.m.m.m.m.I.o.< y p r p h i p d s a . %  X0X=XQ . r y y 5 * o.I.m.",
"m.m.m.H.S.o.D t y f f p i i u r s s . . Q /.OX#X/.T   2 v B.I.m.m.",
"m.m.m.H.b.q e p p p u p p i l k s 8 k r . . /.eX1X(   @ #.H.m.m.m.",
"m.m.m.G.m.k.N e u c C i # X < p   X { ^.*.  (.sX8X) x h.I.m.m.m.m.",
"m.m.m.m.m.G.q.$ e i i c Z J F p $ u ].3X{.H |.eX1X! o.G.m.m.m.m.m.",
"m.m.m.m.m.m.I.z.D q + L |.$XE.  2.,XyXuX:X2.oXsX1X) $.G.m.m.m.m.m.",
"m.m.m.m.m.m.m.G.a.@   Y *XaX|.U +XsXzXlX6X|.<XgX8X-.} H.m.m.m.m.m.",
"m.m.m.m.m.m.m.m.I.k.g V |.2X<X@X8XtXgXdX0X6XsXgX9X-.{ H.m.m.m.m.m.",
"m.m.m.m.m.m.m.m.m.G.p.= ;._.2XeXtXqXqXrXrXrXfXfX1XQ O.H.m.m.m.m.m.",
"m.m.m.m.m.m.m.m.m.m.I.c.+.j 9.+X-XqXwXtXfXhXsX=X^.[.L.m.m.m.m.m.m.",
"m.m.m.m.m.m.m.m.m.m.m.G.f.-   ; `.wXtX8XtXfX=XQ 1.G.m.m.m.m.m.m.m.",
"m.m.m.m.m.m.m.m.m.m.m.m.;X'.:.  -._. X_.+X+X.XB.I.m.m.m.m.m.m.m.m.",
"m.m.m.m.m.m.m.m.m.m.m.G.>XrX'.O   X 1 a 6 o p.G.m.m.m.m.m.m.m.m.m.",
"m.m.m.m.m.m.m.m.m.m.I.k..X_.9.    + 1 6     n k.I.m.m.m.m.m.m.m.m.",
"m.m.m.m.m.m.m.m.m.G.h.> > * O & n ` E Q V t 7 $ q.G.m.m.m.m.m.m.m.",
"m.m.m.m.m.m.m.m.I.k.a.p.#. .5.6.[ w X % Q.&X.Xp @.G.m.m.m.m.m.m.m.",
"m.m.m.m.m.m.m.G.r.z h.K.}.Z.P.C.r.,   = oXm.iXI $.G.m.m.m.m.m.m.m.",
"m.m.m.m.m.m.I.B.t.h.P.T.I.I.I.Y.v.$.d.|.5XiX,X` v z.L.m.m.m.m.m.m.",
"m.m.m.m.m.H.#.z j.}.P.U.F.T.J.D.C.V.3XaX5XoX^.=.N < +.m.m.m.m.m.m.",
"m.m.m.m.m.G.] @ [ j.t.u.C.J.J.U.J.}.4XlXaX5XoX^.2.3 [ G.m.m.m.m.m.",
"m.m.m.m.m.H.+.  & w , m i.P.U.J.N.}.4XlXzXaX5X,XW.B o.H.m.m.m.m.m.",
"m.m.m.M.I.[..X@XoX|.=.> t.A.P.L.x.k.>XlXzXjXpX,X^.U g j.L.m.m.m.m.",
"m.m.m.H.o.=.1XgXjXiX(.@ 6.P.U.Z.e.r.:XlXzXzXpX,X(.,.j 7 1.H.m.m.m.",
"m.m.m.H.m Y |.<X2X*X2.# #.P.I.L.e.X.:XlXzXzXpX$X XXXXX'.).[.L.G.m.",
"m.m.m.H.o.2 3 3 2 2 o 4 a.U.I.L.i.X.:XlXzXzXpX$X#X9XrXrX*X-.O.I.m.",
"m.m.m.H.o.N 4.W.!.E.J e u.Z.R.J.y.o.:XzXzXzX0X@X1XeXhXfX0X0.i I.m.",
"m.m.m.H.] &.#XeXgX0X/.3 6.L.I.L.t.+.:XzXzXzXiX@X=XeXfXhX8X4.b I.m.",
"m.m.m.H.^ 3.7XfXhXdX`.3 6.Y.P.U.u....XiXkXzXaX$XXX=X=X-XXX~.B.H.m.",
"m.m.m.I.L 3.7XtXfXeX/.6 7.A.%X[.s.~ 8.oXiXzXjX*X/._ W _ E.U.m.m.m.",
"m.m.m.H.B.~. X7X7X#X4.1 | g.z.l.<.V ( 4.oX6X<X_.E.O.1.} B.m.m.m.m.",
"m.m.m.m.m.U.E._ -.Q d = < c { { Y k B A -.3._ A d.I.m.m.m.m.m.m.m.",
"m.m.m.m.m.M.B.| $.O.q = < 5 i Z N 8 = o o o % - g.m.m.m.m.m.m.m.m.",
"m.m.m.m.m.m.m.H.m.H.p.= p I E %.V < O = 1 9 G &.V.m.m.m.m.m.m.m.m.",
"m.m.m.m.m.m.m.m.M.L.7.h I ! U B p 3 % 3 r B U Q V.m.m.m.m.m.m.m.m.",
"m.m.m.m.m.m.m.G.h.c N I ! U B 8 5 N N r B J A d s.m.m.m.m.m.m.m.m.",
"m.m.m.m.m.m.m.G.o.5 F T E T ;...K t p d U ! B # $.m.m.m.m.m.m.m.m.",
"m.m.m.m.m.m.m.G.p.: Z E %.| G.m.N.0 5 l Z U I % p.m.m.m.m.m.m.m.m.",
"m.m.m.m.m.m.H.K.<.d Z U F Y m.m.m.i. .e S S Z f <.F.G.G.F.I.I.m.m.",
"m.m.m.m.m.G.j.N S U Z f p 5 m.m.m.m.m.x y N S S Y P b K b c f.H.m.",
"m.m.m.m.H.D.P e Z %.Z t C 6.m.m.m.m.m.z 5 y S E F 3 * 3 e < K I.m.",
"m.m.m.H.z.v q N E E F L S.m.m.m.m.m.m.M 8 f S E I 5 0 t p 5 K I.m.",
"m.m.m.I.P e 5 N Z V N K M.m.m.m.m.m.m.m.b.y N Z V 8 5 h p K z.H.m.",
"m.m.m.I.P < e e p t t v m.m.m.m.m.m.m.m.m.m.e p p N t 8 { J.G.m.m.",
"m.m.m.G.B.D p = 2 # $ x m.m.m.m.m.m.m.m.m.m.< = 3 p c b k.G.m.m.m.",
"m.m.m.m.m.m.t.q = = < < n.m.m.m.m.m.m.m.m.m.1 $ < 3 O.P.m.m.m.m.m.",
"m.m.m.m.m.m.n.n = = = = 2 m.m.m.m.m.m.m.m.b.= $ $ $ s.m.m.m.m.m.m."
};
