/* XPM */
static char *a2740e27dd9e463b8d47328333727855g79TnugWiMcSIvzC[] = {
/* columns rows colors chars-per-pixel */
"65 65 256 2 ",
"   c #75B5B6",
".  c #000001",
"X  c #060009",
"o  c #1A0004",
"O  c #000113",
"+  c #00011B",
"@  c #040A19",
"#  c #180117",
"$  c #0B1617",
"%  c #2A0204",
"&  c #300D12",
"*  c #392D18",
"=  c #000023",
"-  c #00002C",
";  c #090326",
":  c #001727",
">  c #171523",
",  c #010033",
"<  c #00003B",
"1  c #0A0734",
"2  c #001C35",
"3  c #1A0A31",
"4  c #35032C",
"5  c #291A27",
"6  c #36172A",
"7  c #371A3A",
"8  c #2D0C30",
"9  c #152832",
"0  c #262428",
"q  c #372629",
"w  c #29263B",
"e  c #333137",
"r  c #1C251B",
"t  c #4F0308",
"y  c #690E10",
"u  c #4A2E14",
"i  c #71280A",
"p  c #4A1032",
"a  c #690829",
"s  c #442B2B",
"d  c #492938",
"f  c #562737",
"g  c #48353A",
"h  c #583A37",
"j  c #513329",
"k  c #673B3A",
"l  c #70342B",
"z  c #6B4A0F",
"x  c #66443B",
"c  c #77463D",
"v  c #6F5538",
"b  c #545031",
"n  c #000042",
"m  c #00004A",
"M  c #090B4F",
"N  c #2D0F4B",
"B  c #352848",
"V  c #383445",
"C  c #383558",
"Z  c #2E2C50",
"A  c #393965",
"S  c #161A58",
"D  c #6B084C",
"F  c #473848",
"G  c #573749",
"H  c #483C57",
"J  c #53304F",
"K  c #682948",
"L  c #653B4A",
"P  c #772F4E",
"I  c #463D68",
"U  c #513E6A",
"Y  c #304C5B",
"T  c #5A5846",
"R  c #4C4656",
"E  c #584857",
"W  c #55535B",
"Q  c #4F4549",
"!  c #7A4546",
"~  c #685848",
"^  c #785943",
"/  c #645554",
"(  c #684650",
")  c #7B7659",
"_  c #716852",
"`  c #564A64",
"'  c #514C71",
"]  c #675767",
"[  c #775A67",
"{  c #6B5778",
"}  c #695270",
"|  c #666469",
" . c #76656D",
".. c #7A6678",
"X. c #6D6D79",
"o. c #8A342E",
"O. c #841F3A",
"+. c #B1720F",
"@. c #894C32",
"#. c #AC4D29",
"$. c #8E7136",
"%. c #866110",
"&. c #C96E1B",
"*. c #840E54",
"=. c #893254",
"-. c #864944",
";. c #944C4A",
":. c #885647",
">. c #9A4C57",
",. c #905254",
"<. c #A95756",
"1. c #B15749",
"2. c #9A7958",
"3. c #8D7050",
"4. c #BC664A",
"5. c #A56657",
"6. c #B96655",
"7. c #B97654",
"8. c #AE734C",
"9. c #B15466",
"0. c #867669",
"q. c #826B78",
"w. c #8B787A",
"e. c #957B78",
"r. c #856C69",
"t. c #AF6A64",
"y. c #964560",
"u. c #C4674C",
"i. c #CB7359",
"p. c #CE6F54",
"a. c #CB7269",
"s. c #E17A4C",
"d. c #7D836C",
"f. c #AB8834",
"g. c #E58720",
"h. c #978653",
"j. c #A48755",
"k. c #B78952",
"l. c #888A67",
"z. c #98867B",
"x. c #918E6F",
"c. c #AF916D",
"v. c #B7AB75",
"b. c #CE8B54",
"n. c #E9955A",
"m. c #E98E58",
"M. c #CFA255",
"N. c #F2B15A",
"B. c #DA9A68",
"V. c #CD8A6B",
"C. c #E79763",
"Z. c #F09361",
"A. c #D4AF70",
"S. c #EAA769",
"D. c #ECB46A",
"F. c #E7B977",
"G. c #EFB371",
"H. c #F8C979",
"J. c #FCD67D",
"K. c #F1C972",
"L. c #FEE877",
"P. c #F3C259",
"I. c #55568C",
"U. c #4B5391",
"Y. c #555592",
"T. c #5A5793",
"R. c #5B5A93",
"E. c #585996",
"W. c #4F4D87",
"Q. c #6C5D93",
"!. c #776585",
"~. c #7A7B86",
"^. c #786392",
"/. c #6B6994",
"(. c #5D6097",
"). c #856C84",
"_. c #8A7484",
"`. c #977A88",
"'. c #8B6B94",
"]. c #9C7393",
"[. c #997395",
"{. c #947192",
"}. c #AC7C93",
"|. c #A67895",
" X c #B27C92",
".X c #B77E9A",
"XX c #A8798B",
"oX c #78818B",
"OX c #88878A",
"+X c #978689",
"@X c #8F9295",
"#X c #A68A89",
"$X c #A98495",
"%X c #B5839A",
"&X c #B99B97",
"*X c #B5918C",
"=X c #9CA49D",
"-X c #B8A68C",
";X c #BAA697",
":X c #A5A89E",
">X c #939BA8",
",X c #B48EA3",
"<X c #9AA2A9",
"1X c #BCBCB5",
"2X c #B4ACA7",
"3X c #C3988E",
"4X c #C5A69B",
"5X c #CAB69D",
"6X c #D7B99B",
"7X c #C8AF86",
"8X c #E5B292",
"9X c #C291A2",
"0X c #D8B9A5",
"qX c #D9BDB6",
"wX c #CBB1AB",
"eX c #E9BDA3",
"rX c #BEC2A9",
"tX c #D6C996",
"yX c #F8CB89",
"uX c #FAD687",
"iX c #F8D795",
"pX c #ECD08C",
"aX c #FDE48A",
"sX c #FDE898",
"dX c #FFF29E",
"fX c #D7C4A6",
"gX c #DDC7B8",
"hX c #CECCB0",
"jX c #E5CBA6",
"kX c #E8D4AB",
"lX c #F6DCA3",
"zX c #E6C8B5",
"xX c #E6D8BA",
"cX c #F5D5B8",
"vX c #FBE4A4",
"bX c #FCE8A9",
"nX c #FDF3A5",
"mX c #FAE7B6",
"MX c #FEF5BC",
"NX c #FEFBBD",
"BX c #EDE7BA",
"VX c #D3CDCC",
"CX c #EBD5C4",
"ZX c #F9EBC7",
"AX c #FCF6C8",
"SX c #FDF5D2",
"DX c #FDF9D9",
"FX c #ECE8CF",
"GX c #D5DAE6",
"HX c #FFFEE3",
"JX c #FFFFEC",
"KX c #F6F4E6",
"LX c #FFFEF4",
"PX c #FBFBF9",
"IX c #E4E7F3",
"UX c #DDE1E5",
/* pixels */
"                                                                                                                                  ",
"                                                                                                                                  ",
"                                                                                                                                  ",
"                                                                                                                                  ",
"                                                                                                                                  ",
"                                                                                                                                  ",
"                                                        V V . . . . . V                                                           ",
"                                                    . . . . ] ~.~.~.| . . . .                                                     ",
"                                                  . X.~.~.X.UXLXJXLXVXX.oXOX|                                                     ",
"                                              R OXOXDXJXDXAXbXaXaXaXbXAXSXJXFX~.OX                                                ",
"                                            | 1XPXHXvXaXF.o.b.b.b.b.b.*.F.L.sXHXLX:X|                                             ",
"                                        W R FXLXZXuX2.b ^ 6.i.i.i.i.i.i.:.* h.L.AXHXFXR Q W                                       ",
"                                      z.LXKXAXuXn.v :.5.! s u u u u j j c <.-.~ V.J.dXKXHXc..                                     ",
"                                  = f.ZXDXbXH.b.z ! h s % . Z C C C 2 . & j h ;.l 8.D.dXJXZXk.+                                   ",
"                                2 #.kXHXuXM.$.l w x . ] w.[ X . . . J [ q.W = j q p @.k.pXAXAXM.,                                 ",
"                              , 1.cXDXyXf.% d d # , `.#X+X1X:X:X:X:X2X1Xz.e.z.R w g g 4 $.D.AXmX+.<                               ",
"                              :.cXHXiX+.= F h G w.3X&X} z.cXzXcXDXCXzXcXz.-XjXwX+X( L R , o.D.AXmX$.n                             ",
"                            % jXJXlX+.s V F . R 4X3X*X;X. % . t BXi . % X 5X;X0X0X/ + I e w o.F.DXpXz                             ",
"                          ~ A.DXmX&.O w B . wX] e.#X#X-Xd.hXrXhXAXhXrXhXd.#X+X&X*X] *XO B F , #.yXMXA.v                           ",
"                          %.sXJXD.z V N e gX&XF F q.*X .e.eX6X6XmXeX8XeXe...4X*X( e.q.;XQ < V B &.SXsX%.                          ",
"                        j tXDXZX3.= N 9 gXcX_.F ;Xw.e.#XO . . X lXy . . . $X4Xr.fX*X] mXtX9 B 2 i cXSXtX~                         ",
"                      n h.MXKXk.. F R 2XgX`...*XCXw.R } z 7X1X5XMXhX1X5X~ U ] / zX;Xe.qXSX-X3 G s +.ZXbXj.,                       ",
"                      T aXdX7X. ( p 0.zX, , w.CX+X= & h.fXDXPXJXHXLXLXHXVXh.> S N 0Xz.N Q.0X) & ,.t B.aXuX_                       ",
"                      u SXMXj.p :.. 0.zXw.#XzXw.- B fXAXJXZXZXcXcXcXmXZXJXDXfXj < E gX3.< gXz.X c p c.sXDX| .                     ",
"                    > ) DXMX2.>.-.V  .0XqXgX .O F tXLXPXSXL.P.g.g.g.K.J.ZXLXLXtXd n _ &X!.;Xw.2 c ;.k.sXHX@Xr w                   ",
"                    _ uXDXeXi :.F #Xr.Y S = ` < v.JXSXsXHXSXSXZXSXSXSXDXHXvXDXLX-XB V m xX-XC ~.V @.k V.AXvXh..                   ",
"                    ^ K.DX0X#.h Q `.5X5Xq._.{ 3.MXDXlXHXjXc.3X3X*X*X*XXX6XDXvXKXMXh.U E r.6X6X&XR j -.V.MXyX2.=                   ",
"                    ^ H.nXnXB.. g XX&X0X4X#XB v.MXvXZXyX5.. % o o o % . ! 8XZXvXbXV.f z.I w.0X&XW . 5.iXnXyX2.O                   ",
"                    v H.aXA.5.O W +X+Xw.w...) SXSXaXbXp.& h ,.,.,.,.,.( + 4.mXaXDXbX$.X.OX+XOX+X| @ ;.V.sXyX2.X                   ",
"                    v H.aX2.a T FXCXxXBXkXN c.bX8XF.sX6.j ! . o X o . -.k 8.mXD.G.aXh.Z kXBXxXxXZX_ o.^ aXyX2.O                   ",
"                    ^ J.aXh.a _ xXE , z.kX. F.uXZ.G.sX6.k i @XGXVXVX@Xi k 7.mXn.n.J.F.4 kX0.< N kX) o.x aXiX2.O                   ",
"                    x C.uXh.a / BXfX5XjXkXX k.aXS.G.sX7.k i >XIXGXIX>Xi k 7.bXS.n.uXc.= kXxXhXhXBX_ o.v H.S.:.=                   ",
"                    h p.uX3.a ~ kX;X-X5X6X+ b.sXm.D.aX8.k i >XUXGXUX>Xi k 7.bXS.m.aXc.= fX5X;X;XkX_ o.h K.b.c :                   ",
"                    j 6.uXv.5.~ jX= . 7 7X# 7.pXn.D.aX1.x i <XIXUXIX<Xi x 7.bXS.n.K.t.= jX_ . . 6X_ 5.j.K.a.K :                   ",
"                    6 *.H.H.B./ ;X/ &X4X0X: , 9.n.D.aX8.x @.Y oX~.~.Y l k k.sXS.n.7.p = 4X .&X&X&XQ k.A.H.9.4 9                   ",
"                    6 *.H.M.=.g ' Q 3X7Xz.+ , t.Z.S.aX#.= ,.:.@.@.c ! 5.f +.bXB.m.7.6 + } E *X&X' 5 o.:.uXt.p 9                   ",
"                    f 9.H.B.y.0 . B m , n ` = h p.C.uX6XW X i y y y t t / fXvXB.a.-.O E F < = , O q :.2.J.a.D :                   ",
"                    5 p K.J.3.! q ).`.] 4X`.w ; =.i.S.dXxX=X=X=X=X=X:X<XVXAXF.V.>.# M `.4XX._.).V -.^ H.J.5.3 0                   ",
"                    > 4 F.aXh.-.* E ).CXzX#XH X 7 P n.N.iXNXNXNXNXNXNXAXcXS.C.<.8 X ` _.wXCX..R e ;.^ uXH.3.= e                   ",
"                      5 D F.j.;.5.< q.gXq.wXwX< 5 J 5.C.b.N.N.b.b.b.M.N.p.a.t.P X C gXqX{ ] ` w -.;.3.uX7.# V                     ",
"                      # =.a.H.j.4 ! | gX, . VX2X; @ 7 <.i.C.C.u.1.4.n.S.t.t.P ; L 4XzX- < zX0.% f ^ yXN.>.4                       ",
"                      > G a.H.K.d ,.V `.| @XF gXq.O $ 8 K =.7.V.i.V.a.=.P 4 . 1 H ] F [ qX,XZ c ! j.H.N.;.+ e                     ",
"                        6 =.i.H.7X- F H 2XwX2X{ `.B w 5 O 7 D *.9.*.D K X > w X ;X+X_.VX).< h L 3.H.C.6.6 e                       ",
"                        > 8 P m.uXv., V 7 ` ` .. .3 ] ).N . 0 F =.J : . S { } < &XzX .' - V 1 0.lXG.u.t @                         ",
"                          5 7 1.Z.J.c.< ` 5 `...- H q.`...C n < 5XC < C { ).).` n { #X5 ` N | kXyXp.l > e                         ",
"                            # p p.D.K.| < V F F E q...} `.] 1XCXZXCX2X` `.} q._.{ H G A M V 7XiXs.O.# $                           ",
"                            H # =.p.H.pXT n . 1 { ` ....+X .l.c.kX-X0.[ `.....} !.H . m g A.uXm.;.& w {.                          ",
"                          $XQ.w 6 K 1.K.pX) l.T < ' ' !.!.] . - CXQ O } ..).} m m F 0._ pXuXs.o.& w I.|.                          ",
"                          |./.I.9 6 7 5.D.pXsXtXT - - O m I I H *XE I ' Z < < _ _ A.sXpXpX8.f q 5 W.E.].                          ",
"                          |.(.(.I.> 7 7 t #.m.iXiXl.x.x._ X = . O . + + V x.l.pXsXaXF.#.i + d & W.E.E.].                          ",
"                          |./.R.(.' @ 6 G 0 K i.B.vXvXbX7Xd.x.l.l.l.l.d.v.vXvXK.D.S.;.O L f . A T.Y.T.].                          ",
"                          $X[.R.R.R.' q ( L 5 $ 5 4.u.#.B.vXlXlXiXiXlXvX8Xu.i.k : 5 6 K [ s A T.Y.T.{. X                          ",
"                          $X.X'.T.R.R.' . X P =.P 0 @ :.6.1.4.4.4.4.4.u.;.: r K P P -.P . A T.T.Y.'. X X                          ",
"                          $X}.}.'.Y.R.R.' + k <.>.P =.f q s s s s s s q d =.=.>.<.k = > ' R.Y.U.^.}.}.%X                          ",
"                            $X%X|.'.Y.R.I.R.C @ 0 ;.>.>.>.>.>.>.>.>.>.>.<.5.<.s @ 9 W.I.Y.R.U.Q.|. X%X                            ",
"                              $X.X|.'.I.R.R.Y.R.' @ 2 X . . . . . . . . . : @ ' R.I.Y.Y.T.U.Q.|. X%X                              ",
"                                $X%XXX^.I.R.R.R.R.I.R.' B Z Z Z Z Z Z Z C I.T.T.R.R.T.Y.U.^.|..X}.                                ",
"                                  $X%X|.{.^.Y.T.R.R.R.R.R.R.R.R.R.R.R.R.R.R.R.R.R.R.Y.^.].|.%X$X                                  ",
"                                      $X9X.XQ.U.R.R.R.R.R.R.R.R.R.R.R.T.T.T.R.R.R.U.^.%X9X$X                                      ",
"                                        $X  |.|.^.U.Y.Y.Y.Y.Y.R.R.Y.Y.Y.Y.Y.T.Y.'.%X|.  $X                                        ",
"                                              }.|.{.].].].].].^.U.'.].].].].].].|.%X                                              ",
"                                                $X}. X X X}. X{.Q.|. X X X X X}.}.                                                ",
"                                                  $X%X}.}.}.}.}.}.}.}.}.}.}.}.                                                    ",
"                                                                                                                                  ",
"                                                                                                                                  "
};
