/* XPM */
static char *_cc0bf9ad0ff48b98c7f0425bdf4d4c54lTPyiUWG8pcPLN6[] = {
/* columns rows colors chars-per-pixel */
"65 65 255 2 ",
"   c #000001",
".  c #060008",
"X  c #180003",
"o  c #000213",
"O  c #00011A",
"+  c #030B19",
"@  c #100D18",
"#  c #290103",
"$  c #310B13",
"%  c #1C251B",
"&  c #3B2E15",
"*  c #000024",
"=  c #090326",
"-  c #00002C",
";  c #0B142C",
":  c #000033",
">  c #0F0736",
",  c #00003B",
"<  c #281A26",
"1  c #38182B",
"2  c #2C0930",
"3  c #381939",
"4  c #1A2439",
"5  c #262428",
"6  c #372629",
"7  c #29253B",
"8  c #372C39",
"9  c #4E0208",
"0  c #6A1010",
"q  c #4F2C0E",
"w  c #6F2A09",
"e  c #4C1331",
"r  c #680627",
"t  c #442B2B",
"y  c #482937",
"u  c #503032",
"i  c #583A37",
"p  c #70352C",
"a  c #673B3A",
"s  c #6F4A12",
"d  c #545031",
"f  c #6B4932",
"g  c #78463B",
"h  c #000044",
"j  c #090B4F",
"k  c #2D0F4B",
"l  c #092B4E",
"z  c #2D2B4E",
"x  c #362848",
"c  c #393446",
"v  c #383558",
"b  c #1E1068",
"n  c #393965",
"m  c #6D0E4F",
"M  c #473848",
"N  c #55344D",
"B  c #493C56",
"V  c #742D4D",
"C  c #653B4A",
"Z  c #493D69",
"A  c #225462",
"S  c #2B7171",
"D  c #3B7977",
"F  c #544F4C",
"G  c #4C4557",
"H  c #574858",
"J  c #7A4546",
"K  c #6C514C",
"L  c #645554",
"P  c #736C55",
"I  c #564A64",
"U  c #504B71",
"Y  c #675767",
"T  c #6D5570",
"R  c #4A7B7A",
"E  c #76656D",
"W  c #696773",
"Q  c #6E6E72",
"!  c #796778",
"~  c #8E3400",
"^  c #8A3230",
"/  c #B0700A",
"(  c #8E512E",
")  c #844836",
"_  c #AC502B",
"`  c #8E6A32",
"'  c #A17B3E",
"]  c #C96E1B",
"[  c #841155",
"{  c #893354",
"}  c #864A45",
"|  c #944C4A",
" . c #875547",
".. c #9A4C57",
"X. c #905254",
"o. c #B15747",
"O. c #A85755",
"+. c #8E6E4D",
"@. c #957A54",
"#. c #BC664A",
"$. c #AF754D",
"%. c #A56657",
"&. c #BA6556",
"*. c #B87654",
"=. c #964560",
"-. c #B25366",
";. c #8A6C67",
":. c #867669",
">. c #826B78",
",. c #8A787A",
"<. c #957B78",
"1. c #AE6966",
"2. c #CB6C52",
"3. c #CB7359",
"4. c #E17A4C",
"5. c #CB716A",
"6. c #49817C",
"7. c #79836F",
"8. c #A58436",
"9. c #E58720",
"0. c #988754",
"q. c #B08A53",
"w. c #888A67",
"e. c #928F6E",
"r. c #98867B",
"t. c #B0906E",
"y. c #B7AB75",
"u. c #CE8B53",
"i. c #E98E59",
"p. c #E9965A",
"a. c #DEA257",
"s. c #F2B15A",
"d. c #CE896A",
"f. c #DA9A68",
"g. c #E69763",
"h. c #F09361",
"j. c #D2AE6F",
"k. c #EAA769",
"l. c #ECB46A",
"z. c #EEB371",
"x. c #E7B977",
"c. c #F3C259",
"v. c #F1C973",
"b. c #F8C97A",
"n. c #FCD57C",
"m. c #FEE877",
"M. c #317F84",
"N. c #4B4E89",
"B. c #55568C",
"V. c #4C5592",
"C. c #555592",
"Z. c #5B5A93",
"A. c #595895",
"S. c #665D94",
"D. c #715D91",
"F. c #5D6198",
"G. c #776585",
"H. c #787B85",
"J. c #7A6491",
"K. c #8E6D8A",
"L. c #8A7484",
"P. c #977A89",
"I. c #8A6B94",
"U. c #9B7393",
"Y. c #987594",
"T. c #A86C8D",
"R. c #B46D8A",
"E. c #A7778B",
"W. c #B2748E",
"Q. c #A77692",
"!. c #AB7B92",
"~. c #B17C92",
"^. c #3A8B8F",
"/. c #488B8B",
"(. c #578986",
"). c #56928D",
"_. c #4F9897",
"`. c #5B9895",
"'. c #6A8D8E",
"]. c #5DA49F",
"[. c #69ADA7",
"{. c #6CB2AC",
"}. c #6EB6B0",
"|. c #6EBEB6",
" X c #7CB5B1",
".X c #72BCB5",
"XX c #7ABBB5",
"oX c #6AC1B8",
"OX c #76C2BA",
"+X c #79C3BB",
"@X c #978689",
"#X c #928F94",
"$X c #9D8A9C",
"%X c #A68A89",
"&X c #B3928D",
"*X c #A78996",
"=X c #B99B97",
"-X c #9CA49D",
";X c #B8A68C",
":X c #A5A89E",
">X c #BAA697",
",X c #9192A4",
"<X c #9699A5",
"1X c #B09CA4",
"2X c #88AAAC",
"3X c #96A4A9",
"4X c #94A8B0",
"5X c #81B4B1",
"6X c #B7B1AC",
"7X c #C3988E",
"8X c #C8AF86",
"9X c #C5A69B",
"0X c #CAB69D",
"qX c #D7B99B",
"wX c #E5B292",
"eX c #C19EA0",
"rX c #CBB1AB",
"tX c #D8B9A5",
"yX c #D9BDB6",
"uX c #E9BDA3",
"iX c #D6C996",
"pX c #F8CA89",
"aX c #EDD08C",
"sX c #FBD687",
"dX c #F8D795",
"fX c #FCE48A",
"gX c #FDE898",
"hX c #FFF29E",
"jX c #D7C4A6",
"kX c #D2CAB2",
"lX c #E6CBA7",
"zX c #E8D4AB",
"xX c #F6DCA3",
"cX c #E6C8B5",
"vX c #E6D8BA",
"bX c #F6D5B9",
"nX c #FCE6A7",
"mX c #FDF3A5",
"MX c #EDE7BA",
"NX c #FAE6B6",
"BX c #FEF8BC",
"VX c #D3CDCC",
"CX c #EBD5C4",
"ZX c #F9EAC6",
"AX c #FCF6C8",
"SX c #EDE9D0",
"DX c #FDF8D7",
"FX c #D5DAE6",
"GX c #DDE0E5",
"HX c #F6F4E6",
"JX c #FEFDE2",
"KX c #FFFEEC",
"LX c #E4E7F3",
"PX c #FEFEF3",
"IX c #FBFBF8",
/* pixels */
".X.X.X.X.X.X.X.X.X.X.X.X.X.X.X.X.X.X.X.X.X.X.X.X.X.X.X.X.X.X.X.X.X.X.X.X.X.X.X.X.X.X.X.X.X.X.X.X.X.X.X.X.X.X.X.X.X.X.X.X.X.X.X.X.X",
".X.X.X.X.X.X.X.X.X.X.X.X.X.X.X.X.X.X.X.X.X.X.X.X.X.X.X.X.X.X.X.X.X.X.X.X.X.X.X.X.X.X.X.X.X.X.X.X.X.X.X.X.X.X.X.X.X.X.X.X.X.X.X.X.X",
".X.X.X.X.X.X.X.X.X.X.X.X.X.X.X.X.X.X.X.X.X.X.X.X.X.X.X.X.X.X.X.X.X.X.X.X.X.X.X.X.X.X.X.X.X.X.X.X.X.X.X.X.X.X.X.X.X.X.X.X.X.X.X.X.X",
".X.X.X.X.X.X.X.X.X.X.X.X.X.X.X.X.X.X.X.X.X.X.X.X.X.X.X.X.X.X.X.X.X.X.X.X.X.X.X.X.X.X.X.X.X.X.X.X.X.X.X.X.X.X.X.X.X.X.X.X.X.X.X.X.X",
".X.X.X.X.X.X.X.X.X.X.X.X.X.X.X.X.X.X.X.X.X.X.X.X.X.X.X.X.X.X.X.X.X.X.X.X.X.X.X.X.X.X.X.X.X.X.X.X.X.X.X.X.X.X.X.X.X.X.X.X.X.X.X.X.X",
".X.X.X.X.X.X.X.X.X.X.X.X.X.X.X.X.X.X.X.X.X.X.X.X.X.X.X.XOXOX+X+X+X+X+XOXOX.X.X.X.X.X.X.X.X.X.X.X.X.X.X.X.X.X.X.X.X.X.X.X.X.X.X.X.X",
".X.X.X.X.X.X.X.X.X.X.X.X.X.X.X.X.X.X.X.X.X.X.X.X.X.X+X+X(.R D S S S D R `.+XOX.X.X.X.X.X.X.X.X.X.X.X.X.X.X.X.X.X.X.X.X.X.X.X.X.X.X",
".X.X.X.X.X.X.X.X.X.X.X.X.X.X.X.X.X.X.X.X.X.X.X.X+X.XD S     H ! W ! H   . S R +X+X.X.X.X.X.X.X.X.X.X.X.X.X.X.X.X.X.X.X.X.X.X.X.X.X",
".X.X.X.X.X.X.X.X.X.X.X.X.X.X.X.X.X.X.X.X.X.X+X{.D D W Q H.Q GXPXKXPXVXQ H.Q W D /..X+X.X.X.X|..X.X.X.X.X.X.X.X.X.X.X.X.X.X.X.X.X.X",
".X.X.X.X.X.X.X.X.X.X.X.X.X.X.X.X.X.X.X.XOXOX].(.! H.SXKXDXAXnXfXfXfXnXAXDXKXSXQ ! `.].OXOXOX.X.X.X.X.X.X.X.X.X.X.X.X.X.X.X.X.X.X.X",
".X.X.X.X.X.X.X.X.X.X.X.X.X.X.X.X.X.X.X}.].[.W 6XIXJXnXfXx.^ u.u.u.u.d.[ x.m.gXDXPX-XQ [.].}..X.X.X.X.X.X.X.X.X.X.X.X.X.X.X.X.X.X.X",
".X.X.X.X.X.X.X.X.X.X.X.X.X.X.X.X.X.X.X`.M M SXPXAXsX@.d K &.3.3.3.3.3.3. .& 0.m.AXJXSXG t '.OX.X.X.X.X.X.X.X.X.X.X.X.X.X.X.X.X.X.X",
".X.X.X.X.X.X.X.X.X.X.X.X.X.X.X.X.X+X^.e.PXHXAXsXa.f  .%.J t t q q q u t g O. .K d.n.mXHXJX0.A 5X.X.X.X.X.X.X.X.X.X.X.X.X.X.X.X.X.X",
".X.X.X.X.X.X.X.X.X.X.X.X.X.X.X.XXXA 0.ZXDXnXb.u.s J i t #   z v v v ;   $ u i | p $.l.hXKXZXq.l XX.X.X.X.X.X.X.X.X.X.X.X.X.X.X.X.X",
".X.X.X.X.X.X.X.X.X.X.X.X.X.X.X+XD ~ zXJXsXu.` p 7 a   Y ,.E         N E >.Y * p 6 e ( q.aXAXZXq.S .X.X.X.X.X.X.X.X.X.X.X.X.X.X.X.X",
".X.X.X.X.X.X.X.X.X.X.X.X.X.X+XM._ bXDXpX8.# y y $ : P.%X@X6X:X:X:X:X6X6Xr.<.r.G 7 u u 2 ` l.AXNX/ S +X.X.X.X.X.X.X.X.X.X.X.X.X.X.X",
".X.X.X.X.X.X.X.X.X.X.X.X.X+X/.) bXJXdX/ * M i N ,.7X=XT r.bXcXbXDXCXcXbXr.;XlXrX@XK C G : ^ l.AXNX` M.+X.X.X.X.X.X.X.X.X.X.X.X.X.X",
".X.X.X.X.X.X.X.X.X.X.X.X+X].# lXKXxX/ t c M   G 9X7X&X>X  #   9 MXw   # . 0X>XtXtXL O Z 8 7 ^ x.DXaXw _.+X.X.X.X.X.X.X.X.X.X.X.X.X",
".X.X.X.X.X.X.X.X.X.X.X.X|.7.j.DXNX] o 7 x   rXY <.*X%X;X7.kX6XkXAXkX6XkX7.%X@X=X&XY &Xo x M : _ pXBXj.Q {..X.X.X.X.X.X.X.X.X.X.X.X",
".X.X.X.X.X.X.X.X.X.X.XOX_.s gXKXl.s c k 8 cX=XM M >.&XE <.uXwXqXNXuXwXuX<.! 9X&XH <.>.>XF , c x ] DXgX~ ^.+X.X.X.X.X.X.X.X.X.X.X.X",
".X.X.X.X.X.X.X.X.X|.OX{.F iXDXZX@.* k 4 kXbXL.M >X,.<.*Xo     . xX0       *XeX;.jX&XY NXiX4 x ; q bXDXiXK ].+X.X.X.X.X.X.X.X.X.X.X",
".X.X.X.X.X.X.X.X.X.X}./.8.BXHXq.  M G 6XcXP.! &XCX,.G Y s 8X6X0XBXkX6X0XK Z Y L cX>X<.yXAX;X> N t / ZXnX' D {..X.X.X.X.X.X.X.X.X.X",
".X.X.X.X.X.X.X.X.XOX].q fXhX8X  K e :.cX: : ,.CX@X* $ 0.jXDXIXKXJXPXPXJXVX0.< b k tXr.b D.tXP $ X.9 f.fXsXs /.+X.X.X.X.X.X.X.X.X.X",
".X.X.X.X.X.X.X.X.X}./.q DXBX0.e  .  :.cX,.%XcX,.- x jXAXKXAXZXbXbXbXNXZXKXDXjXi , H jX+., jXr.  g e t.gXDXY S {..X.X.X.X.X.X.X.X.X",
".X.X.X.X.X.X.X.XOX).  P DXBX@...} x E tXyXcXE o M iXPXIXDXm.c.9.9.9.l.n.ZXPXPXiXy h P =XG.>X,.l g | q.gXJX#X  R OX.X.X.X.X.X.X.X.X",
".X.X.X.X.X.X.X.X+X/.f sXDXuXw  .M P.;.v b * I , y.KXDXgXJXDXDXAXDXDXDXDXJXnXDXPX;Xx c h vX;Xv H.c ) a d.AXxX@.S +X.X.X.X.X.X.X.X.X",
".X.X.X.X.X.X.X.X+X/.s v.DXtX_ i F P.9X0X>.L.T +.BXDXxXJXlXt.7X7X&X&X&XE.qXDXnXHXBX0.B H ;.qXqX=XG u } d.BXpX` S +X.X.X.X.X.X.X.X.X",
".X.X.X.X.X.X.X.X+X/.s b.mXmXf.  i E.=XtX9X%Xx j.BXnXAXpX%.  # X X X #   J wXAXnXnXd.y r.Z ,.tX=XH   %.dXmXdX+.S +X.X.X.X.X.X.X.X.X",
".X.X.X.X.X.X.X.X+X/.s b.fXj.O.o H @X@X,.,.! P DXDXfXmX2.$ i X.X.X.X.X.J O #.NXfXDXNX` Q @X@X@X#XY + | d.gXpX+.S +X.X.X.X.X.X.X.X.X",
".X.X.X.X.X.X.X.X+X/.s n.fX@.r F ZXSXvXMXkXk t.nXwXx.gX&.u J   X . X   } a $.NXl.z.fX0.v zXMXvXvXZXP ^ J fXsX+.S +X.X.X.X.X.X.X.X.X",
".X.X.X.X.X.X.X.X+X/.f n.fX0.r L vXH : r.zX  x.sXh.z.gX&.a w #XVXVXVX#Xw a *.NXp.p.n.x.2 zX:., k zXP ^ f fXdX+.S +X.X.X.X.X.X.X.X.X",
".X.X.X.X.X.X.X.X+X/.q g.sX0.r L MXjX0XlXzX  q.fXk.z.gX*.a w <XLXFXLX<Xw a *.NXg.p.sXt.* zXvXkXkXMXP ^ f b.k.g D +X.X.X.X.X.X.X.X.X",
".X.X.X.X.X.X.X.XOX/.9 2.sX@.r K zX>X>X0XqXO u.gXi.l.fX$.a w <XGXFXGX<Xw a *.NXk.i.fXt.* jX0X>X>XlXP ^ i v.d.0 D +X.X.X.X.X.X.X.X.X",
".X.X.X.X.X.X.X.XOX).9 &.pXy.%.K lX*   3 8X@ *.aXp.l.fXo.f w 3XLXGXLX4Xw f *.nXk.i.v.1.* lXP     qXP %.q.v.d.r R +X.X.X.X.X.X.X.X.X",
".X.X.X.X.X.X.X.XOX).# [ b.b.j.L >XL =X9XqX+ : -.p.l.fX#.f ) A '.H.H.A p a q.gXk.h.*.e * 9XE =X=X=XF q.j.n.-.$ 6.OX.X.X.X.X.X.X.X.X",
".X.X.X.X.X.X.X.XOX).# [ b.f.[ y U F 7X8Xr.O : 1.h.k.fX_ * X. .) ) g J %.u / nXf.i.*.1 O Y H &X=XU < ^ +.n.1.$ 6.OX.X.X.X.X.X.X.X.X",
".X.X.X.X.X.X.X.XOX).9 -.b.j.=.5   x h : h I * i 2.g.sXqXL . w 0 0 0 9 9 L jXgXf.5.} o H M , * : o 6  .@.n.5.r 6.+X.X.X.X.X.X.X.X.X",
".X.X.X.X.X.X.X.XOX).X y v.n.@.J 8 L.P.Y eXP.z = { 3.k.hXvX-X-X-X-X3X:X<XVXAXx.d...@ l P.eXQ L.L.8 } K b.n.;.  6.OX.X.X.X.X.X.X.X.X",
".X.X.X.X.X.X.X.XOX).  3 x.fX0.} & H L.CXcX%XB . 3 V g.s.dXBXBXBXBXBXBXAXbXk.g.O.2   I L.rXCXQ G 8 | P sXb.;.  6.OX.X.X.X.X.X.X.X.X",
".X.X.X.X.X.X.X.X.X.X`.X m x.q.| %., >.cX>.rXrX, < N %.g.u.s.a.u.u.u.a.s.3.5.5.V   v cXyXT Y I 7 } | +.sX*.  (..X.X.X.X.X.X.X.X.X.X",
".X.X.X.X.X.X.X.X.XOX].  { 5.b.0.2 C E cX:   VX1X= + 3 O.3.g.g.#.o.#.p.k.1.1.V = C 9XcX: , cX:.# u K pXs.O.X ).OX.X.X.X.X.X.X.X.X.X",
".X.X.X.X.X.X.X.X.XOX].  N 5.b.v.y X.c P.Y #XM cX>.o @ 2 V { *.d.3.d.5.{ V 2   > B Y M E yX1Xz g J 0.b.s.|   (.OX.X.X.X.X.X.X.X.X.X",
".X.X.X.X.X.X.X.X.X.X.X`.$ { 3.b.8X- M B 1XrX1XW P.x 7 < o 3 m [ -.[ m C   @ 7   >X@XL.VXL., i C +.b.g.&.# (..X.X.X.X.X.X.X.X.X.X.X",
".X.X.X.X.X.X.X.X.X.XOX[.  3 V i.pXy.: c 7 I I ! E 2 Y L.k   5 M { N ;   j T T , =XcXE U - c > :.dXz.2.e   `.OX.X.X.X.X.X.X.X.X.X.X",
".X.X.X.X.X.X.X.X.X.X.X.X`.X 3 o.h.n.t., I 5 P.! - B >.P.! v h , 0Xv , v T K.K.I h T %X< I k W zXpX2.p   (..X.X.X.X.X.X.X.X.X.X.X.X",
".X.X.X.X.X.X.X.X.X.X.X.X.X).X e 2.l.v.P h c M c H >.! Y P.Y 6XCXZXCX6XI P.U >.K.T B B n j c 8XdX4.^ X R .X.X.X.X.X.X.X.X.X.X.X.X.X",
".X.X.X.X.X.X.X.X.X.X.X.X.X2Xx @ { 3.v.aXF h   > T U ! ! @XE w.t.zX;X:.E P.! ! T G.B   j u j.sXi.| 1 2 ,XXX|..X.X.X.X.X.X.X.X.X.X.X",
".X.X.X.X.X.X.X.X.X.X.X.X.X$XS.z 1 V o.v.aXP w.L , U U G.G.Y   - CXG o T ! L.T j h M :.P aXsX4.^ < 7 B.U.5X|..X.X.X.X.X.X.X.X.X.X.X",
".X.X.X.X.X.X.X.X.X.X.X.X.X$XS.B.4 6 3 %.l.aXgXiXF - - o h Z Z B &XH Z U z , , P P j.gXsXaX$.e 6 < N.A.U.5X|..X.X.X.X.X.X.X.X.X.X.X",
".X.X.X.X.X.X.X.X.X.X.X.X.X$XS.F.B.@ 3 3 9 _ i.dXdXe.e.e.P . *   o   O O c e.w.aXgXfXx._ 0 O y $ N.A.A.U.5X|..X.X.X.X.X.X.X.X.X.X.X",
".X.X.X.X.X.X.X.X.X.X.X.X.X$XD.Z.S.U + 1 N 5 V 3.f.nXnXnX8X7.e.w.w.w.w.7.y.nXgXv.l.k.| + C u   n A.C.A.E.5X|..X.X.X.X.X.X.X.X.X.X.X",
".X.X.X.X.X.X.X.X.X.X.X.X.X*XU.Z.Z.Z.U 6 H C < + < #.2._ f.nXxXxXdXdXxXnXwX2.3.a ; < 1 C T y n A.C.A.U.~. X|..X.X.X.X.X.X.X.X.X.X.X",
".X.X.X.X.X.X.X.X.X.X.X.X.X*XW.I.Z.Z.Z.U   . V { V 5 +  .&.o.o.#.#.#.#.2.| + % V V V { V   n A.C.C.I.~.W. X|..X.X.X.X.X.X.X.X.X.X.X",
".X.X.X.X.X.X.X.X.X.X.X.X.X<X!.!.I.C.Z.Z.U O a O...V { u 6 t t t t t t 6 y { { ..O.a * @ U A.C.V.J.W.!.*X X.X.X.X.X.X.X.X.X.X.X.X.X",
".X.X.X.X.X.X.X.X.X.X.X.X.XoX<XT.Q.I.C.Z.B.Z.v + 5 | ....................O.%.O.t + 4 N.B.C.A.V.D.Q.W.*XXX.X.X.X.X.X.X.X.X.X.X.X.X.X",
".X.X.X.X.X.X.X.X.X.X.X.X.X.X5X$XT.Q.I.B.Z.Z.C.Z.U + ;                     ; + U Z.B.A.C.A.V.D.Q.W.~.4X.X.X.X.X.X.X.X.X.X.X.X.X.X.X",
".X.X.X.X.X.X.X.X.X.X.X.X.X.X|.XX<XT.Q.J.B.Z.Z.A.Z.B.Z.U z v z z z z z z v B.Z.A.A.Z.A.C.V.J.U.W.*X2X|..X.X.X.X.X.X.X.X.X.X.X.X.X.X",
".X.X.X.X.X.X.X.X.X.X.X.X.X.X.X|..X<XW.Q.Y.J.V.Z.Z.Z.Z.Z.S.Z.Z.Z.Z.Z.Z.Z.Z.Z.Z.Z.Z.Z.C.J.U.T.R.<X5X|..X.X.X.X.X.X.X.X.X.X.X.X.X.X.X",
".X.X.X.X.X.X.X.X.X.X.X.X.X.X.X.X.X.X2X$XW.Q.D.V.Z.Z.Z.Z.Z.Z.Z.Z.C.Z.Z.Z.Z.Z.Z.S.Z.V.D.W.R.<X2X X|..X.X.X.X.X.X.X.X.X.X.X.X.X.X.X.X",
".X.X.X.X.X.X.X.X.X.X.X.X.X.X.X.X.X.XoX2X<X3XY.T.J.V.C.C.C.C.C.Z.Z.C.C.C.C.C.A.C.I.T.$X3X3X XoX.X.X.X.X.X.X.X.X.X.X.X.X.X.X.X.X.X.X",
".X.X.X.X.X.X.X.X.X.X.X.X.X.X.X.X.X.X.X|.|.oX2X*XT.Y.U.U.U.U.U.J.N.I.U.U.U.U.U.U.!.<X2XoX|..X.X.X.X.X.X.X.X.X.X.X.X.X.X.X.X.X.X.X.X",
".X.X.X.X.X.X.X.X.X.X.X.X.X.X.X.X.X.X.X.X.X.XoX2X!.!.!.!.~.!.~.U.D.Q.~.~.~.~.!.!.$X|.|..X.X.X.X.X.X.X.X.X.X.X.X.X.X.X.X.X.X.X.X.X.X",
".X.X.X.X.X.X.X.X.X.X.X.X.X.X.X.X.X.X.X.X.X.X.X.X.X*X!.!.!.!.!.!.!.!.!.!.!.!.*X X.X.X.X.X.X.X.X.X.X.X.X.X.X.X.X.X.X.X.X.X.X.X.X.X.X",
".X.X.X.X.X.X.X.X.X.X.X.X.X.X.X.X.X.X.X.X.X.X.X.X|. X X X X X X X X X X X X X X.X.X.X.X.X.X.X.X.X.X.X.X.X.X.X.X.X.X.X.X.X.X.X.X.X.X",
".X.X.X.X.X.X.X.X.X.X.X.X.X.X.X.X.X.X.X.X.X.X.X.X.X.X|..X.X.X.X.X|.|.|.|.|.|..X.X.X.X.X.X.X.X.X.X.X.X.X.X.X.X.X.X.X.X.X.X.X.X.X.X.X"
};
