/* XPM */
static char *bcd8596342764dd2fd4d0adf36bad20dmYUKTr7lVkBODb1t[] = {
/* columns rows colors chars-per-pixel */
"65 65 252 2 ",
"   c black",
".  c #00000C",
"X  c #030116",
"o  c #190919",
"O  c #18151C",
"+  c #270E15",
"@  c #02012A",
"#  c #190826",
"$  c #1B142A",
"%  c #020236",
"&  c #190435",
"*  c #031737",
"=  c #1A1A37",
"-  c #2C0F2F",
";  c #22162D",
":  c #27182B",
">  c #331A2C",
",  c #251837",
"<  c #112738",
"1  c #312533",
"2  c #382638",
"3  c #4E0C28",
"4  c #482939",
"5  c #4D2F38",
"6  c #542B38",
"7  c #56343B",
"8  c #623239",
"9  c #65493C",
"0  c #0B1646",
"q  c #2C1342",
"w  c #032646",
"e  c #1B2548",
"r  c #19304F",
"t  c #252649",
"y  c #392746",
"u  c #3D2C4B",
"i  c #29374B",
"p  c #3A334A",
"a  c #252953",
"s  c #392450",
"d  c #293857",
"f  c #3A3858",
"g  c #3B3963",
"h  c #681B54",
"j  c #442C48",
"k  c #493347",
"l  c #43334C",
"z  c #523545",
"x  c #593848",
"c  c #512E50",
"v  c #4A3954",
"b  c #6D3348",
"n  c #653B55",
"m  c #7A3855",
"M  c #453E65",
"N  c #0D474B",
"B  c #284D53",
"V  c #364856",
"C  c #3A5559",
"Z  c #1D6757",
"A  c #335269",
"S  c #3A5668",
"D  c #2D6D6F",
"F  c #386674",
"G  c #39777A",
"H  c #5A434B",
"J  c #434F55",
"K  c #49475A",
"L  c #54495A",
"P  c #56565C",
"I  c #64434C",
"U  c #6A474A",
"Y  c #75484A",
"T  c #76544D",
"R  c #694656",
"E  c #754956",
"W  c #6B5457",
"Q  c #765657",
"!  c #49655E",
"~  c #7B625E",
"^  c #484566",
"/  c #574D64",
"(  c #455468",
")  c #595867",
"_  c #455A73",
"`  c #585B74",
"'  c #6E4C65",
"]  c #665966",
"[  c #75536A",
"{  c #765968",
"}  c #586668",
"|  c #496B71",
" . c #576A79",
".. c #46757A",
"X. c #587679",
"o. c #67676C",
"O. c #75686B",
"+. c #63736D",
"@. c #666975",
"#. c #756C74",
"$. c #69787C",
"%. c #777677",
"&. c #85383F",
"*. c #8A3850",
"=. c #953C57",
"-. c #8C514C",
";. c #834A58",
":. c #964A54",
">. c #875957",
",. c #845B5C",
"<. c #95585A",
"1. c #A95055",
"2. c #8B635D",
"3. c #96635C",
"4. c #AB655B",
"5. c #8F4E64",
"6. c #8A5C62",
"7. c #955C63",
"8. c #A75962",
"9. c #896665",
"0. c #956363",
"q. c #9A6765",
"w. c #946C64",
"e. c #9A736A",
"r. c #877A79",
"t. c #927275",
"y. c #A36865",
"u. c #B4686C",
"i. c #AA7467",
"p. c #B4776D",
"a. c #A77B74",
"s. c #B37873",
"d. c #C16A5B",
"f. c #CA745D",
"g. c #C97764",
"h. c #C7766A",
"j. c #5A887D",
"k. c #78837D",
"l. c #94867A",
"z. c #A98278",
"x. c #B8867A",
"c. c #A2937E",
"v. c #CA826C",
"b. c #D28973",
"n. c #377482",
"m. c #387B83",
"M. c #4B7583",
"N. c #5A7787",
"B. c #6B7086",
"V. c #687A87",
"C. c #777785",
"Z. c #847C84",
"A. c #318E91",
"S. c #39989A",
"D. c #279FA1",
"F. c #2BA1A2",
"G. c #39A5A6",
"H. c #3AAEAE",
"J. c #49888C",
"K. c #588587",
"L. c #499799",
"P. c #559798",
"I. c #668988",
"U. c #768989",
"Y. c #6B988A",
"T. c #79968B",
"R. c #688495",
"E. c #788995",
"W. c #669496",
"Q. c #7A9796",
"!. c #77A798",
"~. c #5B9CA2",
"^. c #7196A2",
"/. c #47A7A7",
"(. c #56A9AA",
"). c #4CB5B5",
"_. c #54B4B4",
"`. c #5AB7B7",
"'. c #58B8B7",
"]. c #54BABA",
"[. c #5DBABA",
"{. c #6EABA5",
"}. c #61BCBC",
"|. c #5CC1C0",
" X c #888589",
".X c #958C8C",
"XX c #9B938C",
"oX c #878995",
"OX c #8D8C93",
"+X c #928D92",
"@X c #9A8E90",
"#X c #8A9798",
"$X c #949294",
"%X c #9B9394",
"&X c #96969A",
"*X c #9C9A9B",
"=X c #AD9089",
"-X c #A49A99",
";X c #89A499",
":X c #94A39C",
">X c #A7A19C",
",X c #B3A79D",
"<X c #8A98A3",
"1X c #969BA4",
"2X c #9C9BA2",
"3X c #A59EA1",
"4X c #99A6A6",
"5X c #9DAAA8",
"6X c #90B2AE",
"7X c #A7A7A7",
"8X c #B5ABA5",
"9X c #B4ADAB",
"0X c #ACB1AD",
"qX c #BBB4AA",
"wX c #A5ABB4",
"eX c #A9B6B4",
"rX c #B8B8B7",
"tX c #C2A59C",
"yX c #CFB3AF",
"uX c #C3B8AC",
"iX c #C5BCB7",
"pX c #93CAB4",
"aX c #ACC3BA",
"sX c #B8C3BB",
"dX c #CDC0AD",
"fX c #C9C2B8",
"gX c #CBC3BC",
"hX c #D6C7B8",
"jX c #E2CEB9",
"kX c #E3D2BD",
"lX c #B9BCC3",
"zX c #C3BCC1",
"xX c #ACC6C6",
"cX c #B9C7C5",
"vX c #CBC5C2",
"bX c #C8C8C4",
"nX c #D3CBC4",
"mX c #D5CBC5",
"MX c #C9D3CC",
"NX c #DBD3CA",
"BX c #D4CFD0",
"VX c #CBD9D5",
"CX c #D6DCD7",
"ZX c #E7DACB",
"AX c #F0DECC",
"SX c #E5DDD5",
"DX c #DCE2DB",
"FX c #E7E4DB",
"GX c #F8EAD6",
"HX c #FAEFD9",
"JX c #EFF3E9",
"KX c #FDFDF6",
/* pixels */
"`.`.`.`.`.`.`.`.`.'.D._.`.`.`.`.`.`.`.`.`.`.`.`.`.`.`.`.`.`.`.`.`.`.`.`.`.`.`.`.`.`.`.`.`.`.`.`.`.`.`.`._.D._.'.`.`.`.`.`.`.`.`.`.",
"`.`.`.`.`.`.`.`.'.L.,X#X).}.}.`.`.`.`.`.`.`.`.`.`.`.`.`.`.`.`.`.`.`.`.`.`.`.`.`.`.`.`.`.`.`.`.`.`.`.}.].Q.tXK.].`.`.`.`.`.`.`.`.`.",
"`.`.`.`.`.`.`.}.H.a.yXP./././.`.`.`.`.`.`.`.`.`.`.`.`.`.`.`.`.`.`.`.`.`.`.`.`.`.`.`.`.`.`.`.`.`.`./././.A.yXs.F.}.`.`.`.`.`.`.`.`.",
"`.`.`.`.`.`.`.}.F.=XiXS.wXiX-XS.|.}.`.`.`.`.`.`.`.`.`.`.`.`.`.`.`.`.`.`.`.`.`.`.`.}.`.`.`.`.`.}.F.$XvXeXP.uX=XF.}.`.`.`.`.`.`.`.`.",
"`.`.`.`.`.`.`.`.'...iXBX2X .fX#XL.H.H.H.H.).H.H.H.H.H.H.).H.H.H.H.H.H.).H.H.H.H.H.H.).H.H.H.H.L.Q.iXB.OXnXvXF `.'.`.`.`.`.`.`.`.`.",
"`.`.`.`.`.`.`.`.`.P.o.` V.C.dXSX%X4X5X5X4XE.5X5X5X5X4X5XQ.4X5X5X4X5X4XQ.5X5X5X5X5X5XE.4X5X7X:X7XFXnX%.@.` @.W.`.`.`.`.`.`.`.`.`.`.",
"`.`.`.`.`.`.`.[.L.,X9X%.OXoX8XgX-XgXvXvXfX XrXgXgXnXvXmX3XiXvXnXmXnXiX-XmXvXnXvXvXvX XnXvXvXvX>XiX,X&XOXo.0X8XL.[.`.`.`.`.`.`.`.`.",
"`.`.`.`.`.`.`.'.(.%.@.+XC.^ ) B.K f f f v p f a g ^ ^ ^ p M M / / ^ ^ p ^ ^ ^ g f A p ^ g f ^ K B.) K C. X#.$.(.'.`.`.`.`.`.`.`.`.",
"`.`.`.`.`.`.`.`.[.L.-XXX# v - j > l j 2 v 1 v 2 k l 2 v 1 v 2 u l 2 v 1 v 2 u k 2 v 1 l j 2 v : j # k #  X-XP.[.`.`.`.`.`.'.'.'.`.",
"`.`.`.`.`.`.`.`.`.(.C. X- z > x 2 k 5 2 z > x 2 k 5 2 x > z 1 4 z 1 x > x 4 4 k 1 x > z j 4 z > x > z 2  XC./.`.`.`.`.`.`.`.`.`.`.",
"`.`.`.`.`.`.'.'.`.`._.L., a $ d $ a e = a # a $ e e $ a # r = e e $ r o e = t a $ a $ e = = r # a # d q L._.`.`.'.].'.`.`.`.`.`.`.",
"`.`.`.`.`._.~.P._.`.|.L.B G = m.t G A B n.= M.i F F B m.= ..i F F i M.= ..B A G = m.t G B B G < G t G B J.[.'._.P.~._.'.`.`.`.`.`.",
"`.`.`.`.].W.=XuXP.(.(.| j.6XN pXB {.j.X.6X< 6XB !.Y.| pXw pXC !.!.B pX< 6Xj.j.6XN pXN 6Xj.j.6XB pXB !.Y.! {.(.L.9X=XK.].`.`.`.`.`.",
"`.`.`.`.].U.d.=X&XwX#XC } %.C  XV $.} } %.B k.J +.o.! k.B %.J +.o.C k.B %.} } %.C %.V $.P +.%.C  XV $.o.N Q.0X#Xa.p.$.].`.`.`.`.`.",
"`.`.`.`.'.(.E -.C ] Q b b :.> 8.6 :.m 8 1.# 8.6 :.:.6 1.> 8.b *.:.4 8.> <.b b :.- 8.4 :.*.8 1.> 8.6 :.;.3 ;.{ P Q Y P.'.`.`.`.`.`.",
"`.`.`.`.'.[.A.  + >.7.I > x o H O 7 4 > x X x + 5 7 : I o x : 5 7 o x X x 4 > 7 X x o z 4 > x X I + 7 2 5 <.<.3   m.[.`.`.`.`.`.`.",
"`.`.`.`.`.`.`.L.G $ X . : ; o : ; ; ; ; ; ; $ ; $ ; : ; ; ; ; ; ; ; $ : ; ; ; $ ; $ ; ; ; ; $ $ , $ ; : X @ O G P.`.`.`.`.`.`.`.`.",
"`.`.`.`.`.`.`.[._.5 q.0.x R j q 2 u u u u u u u l l t s l u u u u u u l y y l l u u u u y y u 2 s y n c 0.y.3 (.}.`.`.`.`.`.`.`.`.",
"`.`.`.`.`.`.`.`.`.P.W i.q.j k W j = t i t % 1 j q 2 U R y y , j s , 2 y R U @ y 2 $ = t i t = y E j y 3.i.W L.`.`.`.`.`.`.`.`.`.`.",
"`.`.`.`.`.`.`.`.`._.P 1 8 7 7 b.U w f w U ,.>.x Q w.>.T U I R 7.6.Y I U T 0.0.E E T q.x r f t x v.7 2 8 # L _.`.`.`.`.`.`.`.`.`.`.",
"`.`.`.`.`.`.`.`.`.`./.%.w.9.8 v.E w V d 2 y.>.2.Q T >.3.3.3.i.i.i.y.0.3.3.>.9.Q i.2.p.$ i V w H h.7 Q w.O./.`.`.`.`.`.`.`.`.`.`.`.",
"`.`.`.`.`.`.`.`.`.`./.s.e.e.T v.Y 2.e.e.e.a.a.x.z.z.a.a.x.z.a.z.a.z.z.x.a.z.z.a.z.e.e.a.a.e.e.,.h.Y t.e.=X/.[.`.`.`.`.`.`.`.`.`.`.",
"`.`.`.`.`.`.`.`.`.'.(.H >.9.U v.U #. XO.7 x x 6 7 7 4 5 5 4 z z z z 4 5 4 4 7 4 6 7 x 7 { Z.C.{ v.b 9.9.U /.`.`.`.`.`.`.`.`.`.`.`.",
"`.`.`.`.`.`.`.`.`.`./.4.y.* 7 v.Q 1X&X2Xi w e t t t t t t t e e r e t t a t e t t e w < %X X7X.Xv.x @ 7.1.L.[.`.`.`.`.`.`.`.`.`.`.",
"`.`.`.`.`.`.`.`.`.`._.U.9.H Y b.Q oX*X2X) & p l l u u p u u p y p p y j l u l u u l y L -X+X*X.Xv.E 4 9.U.(.`.`.`.`.`.`.`.`.`.`.`.",
"`.`.`.`.`.`.`.`.`.`.`.].K.8 U b.{ wX7X7X] & J S d V A i _ A f l v V | A B S B S F ) c P ,X2XrXXXv.U 6 } ).`.`.`.`.`.`.`.`.`.`.`.`.",
"`.`.`.`.`.`.`.`.`.`.`.'.P.-.Y v.O.rXqXrXK , M.V. XE.@. XV.N.( j v ( N.oXr.V.#X XW.N.b i 8X8XfX-Xg.U &.I.].`.`.`.`.`.`.`.`.`.`.`.`.",
"`.`.`.`.`.`.`.`.`.`.`.`.'.S.W g.Q oX&X Xq 2 $.C.l.$Xl. X X$X#.a.9.$.W .X X.X.Xr.V.r.q.% Z.%X+X9.d.] A._.'.`.`.`.`.`.`.`.`.`.`.`.`.",
"`.`.`.`.`.`.`.`.`.`.`.`.`.|.$.g.9 X %  XL & @.E.| V.X.V.V.N.} x.3.| X.N.V.V. . .R.O.y.' .X% % 4 g.@.].`.`.`.`.`.`.`.`.`.`.`.`.`.`.",
"`.`.`.`.`.`.`.`.`.`.`.`.`.].$.g.U 2X@..X/ & ^.xXCXxXVXaXcXVXcXp.2.xXVXxXxXVXxXVXxX*X<.{ XXf 9X9.g.@._.`.`.`.`.`.`.`.`.`.`.`.`.`.`.",
"`.`.`.`.`.`.`.`.`.`.`.`.`.].$.g.~ 1X7X-XK & X.5XMXU.sXJXMXMXFXp.e.VXsXVXJX;X:XbXT.l.y.{ -XOX8Xt.f.#.].`.`.`.`.`.`.`.`.`.`.`.`.`.`.",
"`.`.`.`.`.`.`.`.`.`.`.`.`.].$.f.~ 7X7X%XL @ Q.CXsXN sXKXaXY.;Xx.w.Y.Q.MXKXT...MXMX.Xq.{ %X.X9Xr.g.#.].`.`.`.`.`.`.`.`.`.`.`.`.`.`.",
"`.`.`.`.`.`.`.`.`.`.`.`.`.].$.f.Q  X*X7XL . cXrX5XDXFXKX;Xk.! x.>.| K.sXKXCXDXT.VXgX-.{ -X+X$X#.f.#.].`.`.`.`.`.`.`.`.`.`.`.`.`.`.",
"`.`.`.`.`.`.`.`.`.`.`.`.`.].$.f.~ rXOX-XL = 6XT.JXCXX.:XrXMXbXp.w.cXcXeXU.Q.JXBX;XgX<.[ -X%.rXr.g.#.].`.`.`.`.`.`.`.`.`.`.`.`.`.`.",
"`.`.`.`.`.`.`.`.`.`.'.'.`.].V.h.9.qX$X@X/ & V.<X;XMX7XsXCXCXDXi.w.VXVXCX5XaXbXU.#Xl.q.{ @X%.rXr.g.@.].`.`.`.`.`.`.`.`.`.`.`.`.`.`.",
"`.`.`.`.`.`.`.`.`.`.`.'.`.].V.h.Q  X>X8XL y X E.5XeXFXcXJXCXU.x.3.Q.JXVXMXDX:X5XN 9 i.' -X&X%XO.g.@.].`.`.`.`.`.`.`.`.`.`.`.`.`.`.",
"`.`.`.`.`.`.`.`.`.`.`.`.`.].$.f.Q +X*X-X/ X 4X#XMXVXsXMXMXDXN x.>.K.JXeXDXeXFX0X5X>X3.[ -X+X*Xr.f.o.].`.`.'.`.`.`.`.`.`.`.`.`.`.`.",
"`.`.`.`.`.`.`.`.`.`.`.`.`.].%.g.W qX8X-X/   MXKXeXeXQ.eXcX:XI.p.9.I.eXMX4X#XeXcXKXiX-.{ %X XfXt.g.#.).`.`.'.`.`.`.`.`.`.`.`.`.`.`.",
"`.`.`.`.`.`.`.`.`.`.`.`.`.].$.g.Q C.*X8XL X cXeXcXCX#XK.| rXCX4.9.VX#XI.j.eXDX:XMXrX:.{ -XOXOX#.d.o.].`.`.`.`.`.`.`.`.`.`.`.`.`.`.",
"`.`.`.`.`.`.`.`.`.`.`.`.`.].$.4.W %X8X-XL # W.W.5XI.#XX.F W.rX<.Q ;XK.F X.#XU.:X~.oX7.[ @X%X9X#.1.o.].`.`.`.`.`.`.`.`.`.`.`.`.`.`.",
"`.`.`.`.`.`.`.`.`.`.`.`.`.].$.1.W >X-X3XL , ~ =Xc.l.l.=X=XXXO.Y.X.Q XXc.c.l.c.XXXX2.q.[ -XC.*Xr.1.@.].`.`.`.`.`.`.`.`.`.`.`.`.`.`.",
"`.`.`.`.`.`.`.`.`.`.`.[.`.].X.1.R OX+X%XL , 1 U x I H x I 7 X.!.Y.L 7 H H H H x z 9 0.{ @X X$XO.1.} ].`.[.`.`.`.`.`.`.`.`.`.`.`.`.",
"`.`.`.`.`.`.`.`.`.`.].S.S.].$.u.z @X8X%XL % E 6.6.0.0.>.0.b F ( ( d T ,.9.6.9.6.>.>.0.{ .X%X9Xv u.@.].G.S.].`.`.`.`.`.`.`.`.`.`.`.",
"`.`.`.`.`.`.`.`.`.`.(.CXmXS.I.s.I 7X7X-XL & U w.e.e.q.9.a.,.2 d a 7 e.e.9.w.e.w.2.>.0.[ @X+X9X{ s.$.G.bXSXW._.`.`.`.`.`.`.`.`.`.`.",
"`.`.`.`.`.`.`.`.`.].X.rX7Xm.N.=.R -X X%XL , z Q W W W W I W 5 , @ H W W Q Q Q Q W T 0.[ XX@.9X] 1. .L.7XlX@.(.`.`.`.`.`.`.`.`.`.`.",
"`.`.`.`.`.`.`.`.`.).#X7X.XJ.K.*.v OX3X-XL , k R n R E E E R R ' j c E R R R n n c T 0.' %XOX7Xo.*.X.P.-X7XX._.`.`.`.`.`.`.`.`.`.`.",
"`.`.`.`.`.`.`.`.`._.I.7XZ.D K.*.j  XB.+XL % E y.9.Q 3.>.q.<.0.x.>.;.y.3.-.q.2.e.8.3.0.[ XX` OX/ h  .J.OX#XC (.`.`.`.`.`.`.`.`.`.`.",
"`.`.`.`.`.`.`.`.`.[.P.#.#.(.K.*.j C.C.+XL % E 0.,.Y w.2.Y <.,.s.<.E 0.Q t.9.b ,.7.3.0.[ %X` E.K *. ./.#.Z.M.[.`.`.`.`.`.`.`.`.`.`.",
"`.`.`.`.`.`.`.`.`.G.4XFXBXN...;.c oXoX+XL * E <.>.0.9.w.w.<.,.s.<.Q w.a.9.w.q.,.<.2.0.[ %X@.2X] *.S ^.CXSXC.S.[.`.'.`.`.`.`.`.`.`.",
"`.`.`.`.`.`.`.`.'.`.N C./ Z K.h l C.` +XK * E 0.Q Q w.>.,.I E p.<.n ,.,.e.q.>.Q 7.>.7.[ %X( C./ h ..A.] r.* _.'.`.'.`.`.`.`.`.`.`.",
"`.`.`.`.`.`.`.`.`./.7XqXrXQ.m.h y B.B. XK = R 7.z Q 0.T U ;.E p.>.E ;.x 0.6.H b 5.>.7.[ $X@.C.K h D Q.rXrX7XL.`.`.'.'.'.`.`.`.`.`.",
"`.`.`.`.`.`.`.`.[.P.iX0XbX$X  v u ` oXoXK , R 6.6.<.>.I 7.E E s.<.R >.Y U 9.;.<.' Q 0.[ $XB.#.^ n   $XsXeXvX..[.`.'.'.'.`.`.`.`.`.",
"`.`.`.`.`.`.`.`.[.L.vX0XvX$X  v y ` ` C./ = z R H j q x I n n y.>.x x I c q z x m T 7.[ +X( C.v R   $XbXeXnXM.[.`.`.`.`.`.`.`.`.`.",
"`.`.`.`.`.`.`.`.[.P.iX8XvX$X  k 2 Z.Z.C.f p r.=Xa.z.a.a.a.a.r.{ O.r.z.a.z.z.z.z.a.t.{ v  XZ.OXP k   $XsX0XiXK.[.`.`.`.`.`.`.`.`.`.",
"`.`.`.`.`.`.`.`.'.P.rXrXgX+X  -   ` E.B.X @ j ;.;.m m m m b ] V @.] m m E m m ;.m q K @ @.oXo.2 3    XbXsXiXK.[.`.`.`.`.`.`.`.`.`.",
"`.`.`.`.`.`.`.`.[.J.NXZXFX+Xo.OX XOXoXC.r.*X&X XC.2X2X2X2X2X*X%X*X2X&X*X%X*X*XC.OX%X-XZ.C.#X$X X+X%.$XFXSXNXG [.`.`.`.`.`.`.`.`.`.",
"`.`.`.`.`.`.`.`.].A.NXhXZX.XN.wXlXwXwXE.gXDXrXiX7XKXSXAXAXAXZXAXAXAXAXAXZXFXKX>XkXrXCXgXR.wXwXlXwXR.3XFXgXNXm.].`.`.`.`.`.`.`.`.`.",
"`.`.`.`.`.`.'.(.{.I.iX2XrX+Xw 1XOXA V.( C.R.Q.&X X0X2X9X7X7X7X9X9X3X7X7X0X7XwXC.8X<XR.C.( V.S E.<Xr *XrX%XzXX.{.(.'.`.`.`.`.`.`.`.",
"`.`.`.'.`.`.].K.wXB.BXvXCX+X<XcXwXoXvXrXwX-XNXbXNX9X8XZXNXZXZXZXZXZXZXNXSX-X9XNXgXNX-X7XeXvX&X5XcXwX3XSXnXNXK wXI.'.`.`.`.`.`.`.`.",
"`.`.`.`.`.`.'...( w SXHXHXOX0 R. .` R.oXn.r.#XE.&XOX%XuX8XqXuXqXqXqXqX8XuXXXOX*XE.&Xr.F E.E. ._ R.w OXHXGXNX* _ ..'.`.`.`.`.`.`.`.",
"`.`.`.`.`.[.L. XrX@.mXGXHX XB.rXwXwXwXoXiXeXrXfX*XfXnXgXNX7X7XnXgXiXfXgXgXhXgX%XvXrX0XvXoXeXwX4XeX1X%XHXGXmXd wXC.L.[.`.`.`.`.`.`.",
"`.`.`.`.`.[.A.t V.f  .wX2XV ( V.N.V.R.V.*X<X1X7XOX9XuXuXiX-X*XdXuXqXuXuXuXuX9X+X7X2X#X7XC.R.R.N.V. .K &XrX@.e B.u D [.`.`.`.`.`.`.",
"`.`.`.`.'.(.V. XbXZ.qXnXvX#.1XOXiXSXgXvXNXnXZXNXnXNXNXNXmXNXZXvXvXSXNXmXNXNXNXnXmXNXnXnXvXbXSXiXOXwXC.gXgXqXo.vX.X$.~.].`.`.`.`.`.",
"`.`.`.`.'.K.B.B.E.` 8XhXhXO.D N.7XZXfX9XhXjXfXhXdXhXhXqXqXjXkXdXuXkXjXqXqXhXkXhXhXiXjXjXqXfXkX8XB.n.O.nXvX9X) E.%.B.N.'.`.`.`.`.`.",
"`.`.`.`.[.J.@ P @.J L O.O.2 J J K o.o.K o.O.o.#.r.%.%.o.%.%.#.%.%.#.%.%.o.%.r.r.%.o.O.O.( o.o.K L ) p #.#.) K @.P @ ..`.`.`.`.`.`."
};
