/* XPM */
static char *_894a32231964803baefef077df27ea0LELJSDU4cNT9b4ul[] = {
/* columns rows colors chars-per-pixel */
"65 65 214 2 ",
"   c #685039",
".  c #733E4C",
"X  c #753B53",
"o  c #6C424D",
"O  c #744C47",
"+  c #76454D",
"@  c #78474E",
"#  c #734B4D",
"$  c #784A4F",
"%  c #6A514C",
"&  c #7A544E",
"*  c #764552",
"=  c #764D51",
"-  c #7B4C59",
";  c #775251",
":  c #7A5353",
">  c #7C5A52",
",  c #7D585A",
"<  c #7C6353",
"1  c #7F665A",
"2  c #84475C",
"3  c #86595A",
"4  c #856556",
"5  c #8D725F",
"6  c #8B4A69",
"7  c #8F5964",
"8  c #9A566C",
"9  c #A6557A",
"0  c #AB5C7E",
"q  c #8C7466",
"w  c #947666",
"e  c #A06F66",
"r  c #A27965",
"t  c #A57C6D",
"y  c #A97F6F",
"u  c #A77E71",
"i  c #A87E71",
"p  c #9D8278",
"a  c #A58071",
"s  c #AA8273",
"d  c #AC8679",
"f  c #AB897D",
"g  c #B4887D",
"h  c #B54584",
"j  c #B15B85",
"k  c #BC5D8C",
"l  c #BB608B",
"z  c #B86A8B",
"x  c #CB4B8F",
"c  c #C45F8F",
"v  c #CC5190",
"b  c #D65697",
"n  c #C0608E",
"m  c #CD7F8F",
"M  c #D07A89",
"N  c #C66693",
"B  c #D5669C",
"V  c #C77499",
"C  c #D67698",
"Z  c #D86FA0",
"A  c #DC75A1",
"S  c #D279A1",
"D  c #DD7AA2",
"F  c #DE7EA9",
"G  c #E273A5",
"H  c #E17BA6",
"J  c #BB9487",
"K  c #BC9A95",
"L  c #D98E84",
"P  c #CB918D",
"I  c #C19889",
"U  c #D68693",
"Y  c #D7869B",
"T  c #DB849A",
"R  c #DE8D9E",
"E  c #D5949F",
"W  c #DB979A",
"Q  c #E4879F",
"!  c #ED9B99",
"~  c #CAA198",
"^  c #D5A998",
"/  c #F2BC8F",
"(  c #EEA697",
")  c #EFB094",
"_  c #F3B99B",
"`  c #DF87A2",
"'  c #DC88A5",
"]  c #CB9BA3",
"[  c #D797A2",
"{  c #DD93AB",
"}  c #DB9BA9",
"|  c #E383A6",
" . c #E28AA2",
".. c #E584AB",
"X. c #EA84AD",
"o. c #E68BAB",
"O. c #EA8BAE",
"+. c #E591A6",
"@. c #E19EA6",
"#. c #E393AB",
"$. c #EC92AD",
"%. c #EB9BAA",
"&. c #EC9BAD",
"*. c #F091AE",
"=. c #EC8EB1",
"-. c #F28EB3",
";. c #ED92B2",
":. c #EF99B5",
">. c #F195B4",
",. c #F49AB6",
"<. c #F395B8",
"1. c #F69BB9",
"2. c #FA9DBC",
"3. c #DDA6A6",
"4. c #DCA6AC",
"5. c #D5AEAC",
"6. c #DDAAAF",
"7. c #DEB2AF",
"8. c #DEABB1",
"9. c #DFB3B0",
"0. c #D6B9B4",
"q. c #E5A8A4",
"w. c #E2A2AA",
"e. c #E1ABAE",
"r. c #E8AFAB",
"t. c #F7A9A8",
"y. c #E7B6A5",
"u. c #E3B3AC",
"i. c #EBB3AE",
"p. c #ECBAAC",
"a. c #F7B2A3",
"s. c #EFA0B7",
"d. c #EBABB3",
"f. c #F5A2B4",
"g. c #F9A3B4",
"h. c #F2AEB3",
"j. c #FBAAB6",
"k. c #F5A3BA",
"l. c #FEA4BE",
"z. c #FEA9BC",
"x. c #E1B3B1",
"c. c #EAB6B3",
"v. c #E5BDB3",
"b. c #E9BCB3",
"n. c #E6B7B8",
"m. c #E6BABB",
"M. c #EABCBC",
"N. c #F2B3B2",
"B. c #FAB8B5",
"V. c #F4B5BB",
"C. c #FDB2BA",
"Z. c #FABCBB",
"A. c #F3C69A",
"S. c #DEC9BE",
"D. c #E9C4A6",
"F. c #EDC2AC",
"G. c #EBC8AC",
"H. c #F6C8A3",
"J. c #F0C4AD",
"K. c #F4CFAF",
"L. c #F6D2A9",
"P. c #E7C0B6",
"I. c #ECC4B4",
"U. c #EDC9B6",
"Y. c #E7C0B8",
"T. c #EAC5BB",
"R. c #EBC9BD",
"E. c #FDC1B2",
"W. c #F4C6B8",
"Q. c #EBD0BA",
"!. c #F5D4BF",
"~. c #F79CC4",
"^. c #FEA6C1",
"/. c #FFAAC2",
"(. c #F9A9C8",
"). c #ECBEC1",
"_. c #FEBCC3",
"`. c #F5A7D6",
"'. c #F2BAD3",
"]. c #EDC3C5",
"[. c #ECCBC1",
"{. c #F2C2C4",
"}. c #FAC6C6",
"|. c #F6C6CA",
" X c #F5CCCD",
".X c #FBCBCC",
"XX c #F9C9CE",
"oX c #EDD3C5",
"OX c #F5D5C4",
"+X c #F7DAC6",
"@X c #F7D5CE",
"#X c #F9D2CD",
"$X c #F6DBCB",
"%X c #FDCBD2",
"&X c #FFCFD9",
"*X c #F6D4D2",
"=X c #F9D4D3",
"-X c #F9DBD3",
";X c #FFD0DB",
":X c #FFD2DD",
">X c #FFD2DE",
",X c #ECE5C8",
"<X c #FBE4C3",
"1X c #FDEBC5",
"2X c #F7E1CF",
"3X c #FAE1CF",
"4X c #FEF2CE",
"5X c #F9E2D4",
"6X c #FFF5D3",
"7X c #FFF9D7",
"8X c #FFF8D9",
"9X c #F9C3E8",
"0X c #F8DDE9",
"qX c #F7E2F5",
/* pixels */
"&X&X&X&X&X&X&X&X&X&X&X&X&X&X&X&X&X&X&X&X&X&X&X&X&X&X&X&X&X&X&X&X&X&X&X&X&X&X&X&X&X&X&X&X&X&X&X&X&X&X&X&X&X&X&X&X&X&X&X&X&X&X&X&X&X",
"&X&X&X&X&X&X&X&X&X&X&X&X&X&X&X&X&X&X&X&X&X&X&X&X&X&X&X&X&X&X&X&X&X&X&X&X&X&X&X&X&X&X&X&X&X&X&X&X&X&X&X&X&X&X&X&X&X&X&X&X&X&X&X&X&X",
"&X&X&X&X&X&X&X&X&X&X&X&X&X&X&X&X&X&X&X&X&X&X&X&X&X&X&X&X&X&X&X&X&X&X&X&X&X&X&X&X&X&X&X&X&X&X&X&X&X&X&X&X&X&X&X&X&X&X&X&X&X&X&X&X&X",
"&X&X&X&X&X&X&X&X&X&X&X&X&X&X&X&X&X&X&X&X&X&X&X&X&X&X&X&X&X&X&X&X&X&X&X&X&X&X&X&X&X&X&X&X&X&X&X&X&X&X&X&X&X&X&X&X&X&X&X&X&X&X&X&X&X",
"&X&X&X&X&X&X&X&X&X&X&X&X&X&X&X&X&X&X&X&X&X&X&X&X&X&X&X&X&X&X&X&X&X&X&X&X&X&X&X&X&X&X&X&X&X&X&X&X&X&X&X&X&X&X&X&X&X&X&X&X&X&X&X&X&X",
"&X&X&X&X&X&X&X&X&X&X&X&X&X&X&X&X&X&X&X&X&X&X&X&X&X&X&X&X&X&X&X&X&X&X&X&X&X&X&X&X&X&X&X&X&X&X&X&X&X&X&X&X&X&X&X&X&X&X&X&X&X&X&X&X&X",
"&X&X&X&X&X&X&X&X&X&X&X&X&X&X&X&X&X&X&X&X&X&X&X&X&X&X&X&X&X&X&X&X%X&X&X&X&X&X&X&X&X&X&X&X&X&X&X&X&X&X&X&X&X&X&X&X&X&X&X&X&X&X&X&X&X",
"&X&X&X&X&X&X&X&X&X&X&X&X&X&X&X&X&X&X&X&X&X&X&X&X&X&X&X&X;X:X:X:X:X:X:X:X&X&X&X&X&X&X&X&X&X&X&X&X&X&X&X&X&X&X&X&X&X&X&X&X&X&X&X&X&X",
"&X&X&X&X&X&X&X&X&X&X&X&X&X&X&X&X&X&X&X&X&X&X&X&X&X;X:X;XXX).9.5.5.7.n.{.%X:X:X&X&X&X&X&X&X&X&X&X&X&X&X&X&X&X&X&X&X&X&X&X&X&X&X&X&X",
"&X&X&X&X&X&X&X&X&X&X&X&X&X&X&X&X&X&X&X&X&X&X&X;X:XXX5.f 1 < ; 2 2 - > < q K M.;X:X&X&X&X&X&X&X&X&X&X&X&X&X&X&X&X&X&X&X&X&X&X&X&X&X",
"&X&X&X&X&X&X&X&X&X&X&X&X&X&X&X&X&X&X&X&X&X&X:XXX~ 4 X 0 S P o.2.j.2.R m V 7 % p m.;X:X&X&X&X&X&X&X&X&X&X&X&X&X&X&X&X&X&X&X&X&X&X&X",
"&X&X&X&X&X&X&X&X&X&X&X&X&X&X&X&X&X&X&X&X&X;Xx.5 - V N.C./.C 1.C.A.j...| /.Q ..j o J XX:X&X&X&X&X&X&X&X&X&X&X&X&X&X&X&X&X&X&X&X&X&X",
"&X&X&X&X&X&X&X&X&X&X&X&X&X&X&X&X&X&X&X;X%X~ = 0 $./._ ( ^.D ,.l.! z...| /.A 1._.#.6 q T.:X&X&X&X&X&X&X&X&X&X&X&X&X&X&X&X&X&X&X&X&X",
"&X&X&X&X&X&X&X&X&X&X&X&X&X&X&X&X&X&X;X%XI X ' <.;./.>.>./.H ,.l.^./...../.F >._ t.1.0 < M.:X&X&X&X&X&X&X&X&X&X&X&X&X&X&X&X&X&X&X&X",
"&X&X&X&X&X&X&X&X&X&X&X&X&X&X&X&X&X&X&X~ * &._.O.;.^.^.l.^...1.^.l./...../...1.$.,.1.2.V < ).:X&X&X&X&X&X&X&X&X&X&X&X&X&X&X&X&X&X&X",
"&X&X&X&X&X&X&X&X&X&X&X&X&X&X&X&X&X:X3.O S B.) O.>.^.l.l.^.O.1.l.l./.o.X./...1././.<.h.E.z w XX;X&X&X&X&X&X&X&X&X&X&X&X&X&X&X&X&X&X",
"&X&X&X&X&X&X&X&X&X&X&X&X&X&X&X&X:X{.4 V O.,.*.>.>.^.l.l.^.=.1.l.l./.O.O./.o.1.l.l.1.%.! 1.6 J ;X&X&X&X&X&X&X&X&X&X&X&X&X&X&X&X&X&X",
"&X&X&X&X&X&X&X&X&X&X&X&X&X&X&X&X%XJ 9 2.O.^./.>.>.l.l.l.^.>.2.l.l./.O.O./.O.1.l.l.1.1.l.1.F 3 M.:X&X&X&X&X&X&X&X&X&X&X&X&X&X&X&X&X",
"&X&X&X&X&X&X&X&X&X&X&X&X&X&X&X:XM.3 o.l.o.l.l.>.>.l.l.l.l.,.2.l.l./.O.O./.;.1.l.l.1.2./.>.2.z f ;X&X&X&X&X&X&X&X&X&X&X&X&X&X&X&X&X",
"&X&X&X&X&X&X&X&X&X&X&X&X&X&X&X;XI 0 ^.2.O.l.l.>.>.^.l.l.l.1.l.l.l./.O.O./.;.1.l.l.2.2.^.>.2.;.3 M.:X&X&X&X&X&X&X&X&X&X&X&X&X&X&X&X",
"&X&X&X&X&X&X&X&X&X&X&X&X&X&X:X|.e S /.2.;.l.l.>.>.^.l.l.l.l.l.l.l./.=.=./.>.1.l.l.2.2.l.,.,.^.8 ~ :X&X&X&X&X&X&X&X&X&X&X&X&X&X&X&X",
"&X&X&X&X&X&X&X&X&X&X&X&X&X&X:Xx.8 =./.2.;.l.l.>.,.^.l.l.l.l.l.l.l./.;.;./.,.2.l.l.2.2.^.1.,./.z a %X&X&X&X&X&X&X&X&X&X&X&X&X&X&X&X",
"&X&X&X&X&X&X&X&X&X&X&X&X&X&X:X~ 9 2.^.l.>.l.l.>.,.^.l.l.l.l.l.l.l.^.;.;./.,.2.l.l.l.l.^.1.2./.' 4 |.:X&X&X&X&X&X&X&X&X&X&X&X&X&X&X",
"&X&X&X&X&X&X&X&X&X&X&X&X&X&X;XJ j l.^.2.>.^.l.,.1.^.l.l.l.l.l.l.l.^.;.>.^.l.l.l.l.2.l./.1.;.k...: M.:X&X&X&X&X&X&X&X&X&X&X&X&X&X&X",
"&X&X&X&X&X&X&X&X&X&X&X&X&X&X%Xg k l.l.2.,.l.l.,.1.^.l.l.l.l.l.l.l.^.>.>.^.l.l.l.l.l.l.2.s.b.U.{ + n.:X&X&X&X&X&X&X&X&X&X&X&X&X&X&X",
"&X&X&X&X&X&X&X&X&X&X&X&X&X&X%Xd k l.l.l.1.^.l.,.1.^.l.l.l.l.l.l.l./.>.,./.l.l.l.l.l.k.c.U.c.W.v.. x.:X&X&X&X&X&X&X&X&X&X&X&X&X&X&X",
"&X&X&X&X&X&X&X&X&X&X&X&X&X&X%Xs h 2.2.2.<.2.l.>.<.l.2.2.2.2.2.2.2.l.-.>.l.2.2.2.2.2.l.Z.J.i.F.w.@ 9.:X&X&X&X&X&X&X&X&X&X&X&X&X&X&X",
"&X&X&X&X&X&X&X&X&X&X&X&X&X;X%Xd 5.#X#X=X*X=X*X*X*X-X-X=X=X#X=X=X=X=X X X=X#X#X#X#X#XXXXXOXx.M.4.+ 9.:X&X&X&X&X&X&X&X&X&X&X&X&X&X&X",
"&X&X&X&X&X&X&X&X&X&X&X&X&X;X%Xd ,X7X6X6X7X1XA.1X7X6X6X7X1XA.4X7X7X7X6XL.<X8X6X6X7X4XL.<X7X<XI.p.4 7.:X&X&X&X&X&X&X&X&X&X&X&X&X&X&X",
"&X&X&X&X&X&X&X&X&X&X&X&X&X;X%Xd 0.[.T.T.R.P.L P.[.T.T.[.v.L Y.R.T.R.T.L u.[.T.T.R.Y.L u.[.U.u.3.& 7.:X&X&X&X&X&X&X&X&X&X&X&X&X&X&X",
"&X&X&X&X&X&X&X&X&X&X&X&X&X;X%Xs h H H D H H ..A A H H H H ..H H H H A F H H H H H H ..G @.@.e.} * 7.:X&X&X&X&X&X&X&X&X&X&X&X&X&X&X",
"&X&X&X&X&X&X&X&X&X&X&X&X&X;X%Xs k /././.^.^./.k.^./././././././././.k.l./././././././.W.K.N.J.x.@ 9.:X&X&X&X&X&X&X&X&X&X&X&X&X&X&X",
"&X&X&X&X&X&X&X&X&X&X&X&X&X;X%Xs k l.l.,.r.B.g.M.q.l.l.l.l.l.l.l.l.l.l.l.l.l.l.l.l.l.k.d.b.b.I.v.+ 7.:X&X&X&X&X&X&X&X&X&X&X&X&X&X&X",
"&X&X&X&X&X&X&X&X&X&X&X&X&X;X%Xs k l.^.W M.`.'.0X[.%.^.l.l.l.l.l.l.l.l.l.l.l.l.l.l.l.l.2.1.c.P.{ $ x.:X&X&X&X&X&X&X&X&X&X&X&X&X&X&X",
"&X&X&X&X&X&X&X&X&X&X&X&X&X;X%Xs k l.2.u.h.`.9XqX|.u.^.l.l.l.l.l.l.l.l.l.l.l.l.l.l.l.l.l.l.2.2.=.# x.:X&X&X&X&X&X&X&X&X&X&X&X&X&X&X",
"&X&X&X&X&X&X&X&X&X&X&X&X&X;X%Xs k ^.1.F.D.(.9X'.U.G.:.^.l.l.l.l.l.l.l.l.l.l.l.l.l.l.l.l.l.l./.;.# x.:X&X&X&X&X&X&X&X&X&X&X&X&X&X&X",
"&X&X&X&X&X&X&X&X&X&X&X&X&X;X%Xs k l.d.U.D.y.~.U.D.U.d.l.l.l.l.l.l.l.l.l.l.l.l.l.l.l.l.l.l.l./.;.# x.:X&X&X&X&X&X&X&X&X&X&X&X&X&X&X",
"&X&X&X&X&X&X&X&X&X&X&X&X&X;X%Xy k 1.b.c.N.w.^ q.d.i.P.k.l.l.l.l.l.l.l.l.l.l.l.l.l.l.l.l.l.l./.;.# x.:X&X&X&X&X&X&X&X&X&X&X&X&X&X&X",
"&X&X&X&X&X&X&X&X&X&X&X&X&X;X%Xi k ,.I.p.p.w.y.w.p.p.U.s.l.l.l.l.l.l.l.l.l.l.l.l.l.l.l.l.2.l./.;.# u.:X&X&X&X&X&X&X&X&X&X&X&X&X&X&X",
"&X&X&X&X&X&X&X&X&X&X&X&X&X;X%Xi k 2.x.!.Q.x.|.T.R.+Xc.2.l.l.l.l.l.l.l.l.l.l.l.l.l.l.l.l.1.1./.;.# x.:X&X&X&X&X&X&X&X&X&X&X&X&X&X&X",
"&X&X&X&X&X&X&X&X&X&X&X&X&X;X%Xi k ^.2.-X6.' 9X].E @Xl.l.l.2.l.l.l.l.l.l.l.l.l.l.l.l.l.l.1.1./.;.# x.:X&X&X&X&X&X&X&X&X&X&X&X&X&X&X",
"&X&X&X&X&X&X&X&X&X&X&X&X&X;X%Xu l 2.}.R.b C w.Y G ]._.2.l.2.l.l.l.l.l.l.l.l.l.l.l.l.l.^.1.,./.;.# x.:X&X&X&X&X&X&X&X&X&X&X&X&X&X&X",
"&X&X&X&X&X&X&X&X&X&X&X&X&X;X%Xu l 2.XXx.2.,.T >.l.}.{.2.l.1.l.l.l.l.l.l.l.l.l.l.l.l.l.^.1.,./.;.# x.:X&X&X&X&X&X&X&X&X&X&X&X&X&X&X",
"&X&X&X&X&X&X&X&X&X&X&X&X&X;X%Xi l 2.XX{.2.z.^./.2.}.m.>.^.1.l.l.l.l.l.l.l.l.l.l.l.l.l.^.>.,./.;.# x.:X&X&X&X&X&X&X&X&X&X&X&X&X&X&X",
"&X&X&X&X&X&X&X&X&X&X&X&X&X;X%Xu l 2.V.$X2.l.l.l.2.-X} -./.>.l.l.l.l.l.l.l.l.l.l.l.l.l.^.>.,./.;.# x.:X&X&X&X&X&X&X&X&X&X&X&X&X&X&X",
"&X&X&X&X&X&X&X&X&X&X&X&X&X;X%Xt k ^.o.oXXX2.2.2. X$XN 2.^.>.l.l.l.l.l.l.l.l.l.l.l.l.l.^.;.,./.;.# x.:X&X&X&X&X&X&X&X&X&X&X&X&X&X&X",
"&X&X&X&X&X&X&X&X&X&X&X&X&X;X%Xt k ^.1.C $X5X@X-X3X#.B /.l.>.l.l.l.l.l.l.l.l.l.l.l.l.l.^.;.1./.;.# x.:X&X&X&X&X&X&X&X&X&X&X&X&X&X&X",
"&X&X&X&X&X&X&X&X&X&X&X&X&X;X%Xt k l./...c M.XXZ.| v ,.l.l.;.l.l.l.l.l.l.l.1.l.l.l.z.l./.O.#.k.=.# x.:X&X&X&X&X&X&X&X&X&X&X&X&X&X&X",
"&X&X&X&X&X&X&X&X&X&X&X&X&X;X%Xt k ^.l./.X.x v v B ,.^.l.l.;.l.l.l.l.l.l.l.,.l.l.l.l.l.1.d.P.R.} + 9.:X&X&X&X&X&X&X&X&X&X&X&X&X&X&X",
"&X&X&X&X&X&X&X&X&X&X&X&X&X;X%Xt k l.l.l./.l.>.,.l.l.l.l.l.=.l.l.l.l.l.l.l.,.l.l.l.l.f.I.U.r.I.c.. x.:X&X&X&X&X&X&X&X&X&X&X&X&X&X&X",
"&X&X&X&X&X&X&X&X&X&X&X&X&X;X%Xt k ^.k.k.k.^./.^.k.^.^.^.^.;.^.^.^.l.^.^.^.>.^.l.l.k.f.Z.F.i.I.{ @ x.:X&X&X&X&X&X&X&X&X&X&X&X&X&X&X",
"&X&X&X&X&X&X&X&X&X&X&X&X&X;X%Xi S.5X5X5X5X5X$X2X5X5X5X5X5XOX+X5X5X5X5X$X$X2X3X3X3X3X!.!.<Xb.T.e.= x.:X&X&X&X&X&X&X&X&X&X&X&X&X&X&X",
"&X&X&X&X&X&X&X&X&X&X&X&X&X;XXXy ,X7X6X6X7X1X/ 1X7X6X6X6X6XA.L.8X6X7X6XA.L.7X6X6X6X7XL.H.8X<XI.p.4 9.:X&X&X&X&X&X&X&X&X&X&X&X&X&X&X",
"&X&X&X&X&X&X&X&X&X&X&X&X&X;XXXa ] e.4.4.6.4.M 4.8.4.4.4.8.E [ 6.4.4.8.U E e.4.4.4.6.[ E n.x.3.[ # x.:X&X&X&X&X&X&X&X&X&X&X&X&X&X&X",
"&X&X&X&X&X&X&X&X&X&X&X&X&X;X%Xu h X.X.X...X.=.D | X.X.X.X.C X.X.X.X.G =.X.A X.X.X.H H O.q.w.i.} * x.:X&X&X&X&X&X&X&X&X&X&X&X&X&X&X",
"&X&X&X&X&X&X&X&X&X&X&X&X&X;X%Xt n /./.l.2././.&.l././././.+.z./././.>.l.l.;./././.g.&.W.K.i.J.x.+ x.:X&X&X&X&X&X&X&X&X&X&X&X&X&X&X",
"&X&X&X&X&X&X&X&X&X&X&X&X&X;X%Xt k l.l.2.;.l.l.o.,.l.l.l.l. .l.l.l.l.O.2.2.O.^.l.l.,.O.d.e.P.W.u.+ x.:X&X&X&X&X&X&X&X&X&X&X&X&X&X&X",
"&X&X&X&X&X&X&X&X&X&X&X&X&X;X%Xt c l.l.2.$.l.^.o.,.l.l.l.l. .l.l.l.^.o.1.l...^.l.^.,.O./.A w.c.o.$ x.:X&X&X&X&X&X&X&X&X&X&X&X&X&X&X",
"&X&X&X&X&X&X&X&X&X&X&X&X&X;X%Xt n l.^.f.+.^.^...,.^.l.l.k. .l.l.l.^. .,.l...^.l.^.>.o./.D O.^.;.# x.:X&X&X&X&X&X&X&X&X&X&X&X&X&X&X",
"&X&X&X&X&X&X&X&X&X&X&X&X&X;X%Xt n l.^.f.+.^.^...,.^.l.l.l.R l.l.l.^.T ,.2.| ^.2.^.>.../.A ;./.=.# x.:X&X&X&X&X&X&X&X&X&X&X&X&X&X&X",
"&X&X&X&X&X&X&X&X&X&X&X&X&X;X%Xt n l.^.,. .Z.C.H ,.^.l.B.z.R l.l.l.^.T &.2.H z.E.j.=.| /.A ;._.$.# x.:X&X&X&X&X&X&X&X&X&X&X&X&X&X&X",
"&X&X&X&X&X&X&X&X&X&X&X&X&X;X%Xt n ^./.f.` a.t.| ,./.j._ g.R l.^.l./.T :.l.| /.( g.;.| /.Z $.H.Q = x.:X&X&X&X&X&X&X&X&X&X&X&X&X&X&X",
"&X&X&X&X&X&X&X&X&X&X&X&X&X;XXXt l >.>.+.Y ....T  .>.;.D o.U $.;.;.:.U ` $.U >...=.` Y <.C  .| D ; 9.:X&X&X&X&X&X&X&X&X&X&X&X&X&X&X",
"&X&X&X&X&X&X&X&X&X&X&X&X&X;XXXr % : = : > , : > : = ; 3 : > : ; ; = > : ; > : , : : > = > > , ,   7.:X&X&X&X&X&X&X&X&X&X&X&X&X&X&X",
"&X&X&X&X&X&X&X&X&X&X&X&X&X&X%XM.m.M.M.m.m.m.m.m.m.M.m.m.M.m.m.m.m.m.m.m.m.m.m.m.m.m.m.m.m.m.m.m.n.|.;X&X&X&X&X&X&X&X&X&X&X&X&X&X&X"
};
