/* XPM */
static char *_5132c3a213b4f9bd59fead1569efeb29Jw5X3GvPhzdTFLH[] = {
/* columns rows colors chars-per-pixel */
"65 65 248 2 ",
"   c #000000",
".  c #090205",
"X  c #000609",
"o  c #110705",
"O  c #120807",
"+  c #020317",
"@  c #160818",
"#  c #111516",
"$  c #280C13",
"%  c #21201D",
"&  c #040028",
"*  c #1A0826",
"=  c #1B142A",
"-  c #050C39",
";  c #191936",
":  c #280A29",
">  c #26162A",
",  c #2A122A",
"<  c #351A2D",
"1  c #270A39",
"2  c #3A003E",
"3  c #251931",
"4  c #281936",
"5  c #351B34",
"6  c #132538",
"7  c #232322",
"8  c #2D242D",
"9  c #36232C",
"0  c #29213D",
"q  c #392638",
"w  c #5B0825",
"e  c #4B1A36",
"r  c #49282B",
"t  c #482A37",
"y  c #552F32",
"u  c #553339",
"i  c #66343B",
"p  c #5C403E",
"a  c #021847",
"s  c #181145",
"d  c #310E48",
"f  c #271B48",
"g  c #022649",
"h  c #1C254A",
"j  c #1B3347",
"k  c #192B56",
"l  c #0F3651",
"z  c #282547",
"x  c #372746",
"c  c #3D2D4B",
"v  c #3B314C",
"b  c #262955",
"n  c #2F2F50",
"m  c #3A3A57",
"M  c #363861",
"N  c #442D46",
"B  c #492D4F",
"V  c #463449",
"C  c #573645",
"Z  c #473753",
"A  c #593854",
"S  c #712E4F",
"D  c #643A48",
"F  c #783949",
"G  c #653956",
"H  c #423D64",
"J  c #144B50",
"K  c #294E4E",
"L  c #2B4957",
"P  c #3A4659",
"I  c #295453",
"U  c #385757",
"Y  c #366A56",
"T  c #125C74",
"R  c #2B5164",
"E  c #395668",
"W  c #386C6B",
"Q  c #376774",
"!  c #367679",
"~  c #584248",
"^  c #4E4955",
"/  c #47475A",
"(  c #48555C",
")  c #68464B",
"_  c #75494A",
"`  c #79554B",
"'  c #684755",
"]  c #764955",
"[  c #685452",
"{  c #795857",
"}  c #5E635E",
"|  c #494566",
" . c #455769",
".. c #575968",
"X. c #4F5170",
"o. c #744E66",
"O. c #527169",
"+. c #486779",
"@. c #586778",
"#. c #4A7578",
"$. c #577678",
"%. c #696A6B",
"&. c #716D68",
"*. c #666B77",
"=. c #746C76",
"-. c #6A7578",
";. c #787878",
":. c #8A3B47",
">. c #8F4C4F",
",. c #8A4A58",
"<. c #895856",
"1. c #8C5A5B",
"2. c #975A5B",
"3. c #A85158",
"4. c #8B635D",
"5. c #93645B",
"6. c #99645A",
"7. c #936D58",
"8. c #9A6C5D",
"9. c #A26B5A",
"0. c #834A65",
"q. c #844A67",
"w. c #895965",
"e. c #955C61",
"r. c #A75962",
"t. c #986A64",
"y. c #94706E",
"u. c #9B7368",
"i. c #847B7A",
"p. c #A46A64",
"a. c #A77767",
"s. c #B47768",
"d. c #A47B76",
"f. c #B67F74",
"g. c #C5776B",
"h. c #55887C",
"j. c #6E857B",
"k. c #86837C",
"l. c #998A77",
"z. c #A88377",
"x. c #A58B73",
"c. c #B48879",
"v. c #CD8371",
"b. c #397184",
"n. c #537686",
"m. c #577A87",
"M. c #736C83",
"N. c #677A89",
"B. c #767984",
"V. c #867D80",
"C. c #308187",
"Z. c #588686",
"A. c #4F928F",
"S. c #5B9995",
"D. c #698988",
"F. c #77878C",
"G. c #64928E",
"H. c #76938C",
"J. c #698395",
"K. c #768A96",
"L. c #649A96",
"P. c #769897",
"I. c #54A39E",
"U. c #70A698",
"Y. c #4EA2A0",
"T. c #5CAAA5",
"R. c #5CB2AC",
"E. c #66A9A6",
"W. c #74AAA5",
"Q. c #66B4AD",
"!. c #74B3A9",
"~. c #6DBBB4",
"^. c #69BDB6",
"/. c #72BCB6",
"(. c #72BFB8",
"). c #67C0B8",
"_. c #6CC1BA",
"`. c #74C2BA",
"'. c #76C3BB",
"]. c #888789",
"[. c #968C89",
"{. c #89938F",
"}. c #97918A",
"|. c #9C948C",
" X c #888C92",
".X c #879897",
"XX c #959697",
"oX c #9A9595",
"OX c #9C9A9B",
"+X c #B88C85",
"@X c #A6988A",
"#X c #A59B98",
"$X c #B89691",
"%X c #8AA49B",
"&X c #94A59C",
"*X c #A9A39C",
"=X c #B1A697",
"-X c #8694A3",
";X c #979BA4",
":X c #A19EA5",
">X c #86A6A3",
",X c #99A5A4",
"<X c #9BAAA5",
"1X c #8FB5AA",
"2X c #97B5B8",
"3X c #A7A7A6",
"4X c #A2AAAA",
"5X c #B4ACA9",
"6X c #ACB2AC",
"7X c #BAB3AA",
"8X c #A5ABB4",
"9X c #AAB5B5",
"0X c #B8B8B7",
"qX c #C6A89D",
"wX c #C3B9AC",
"eX c #D5B4AC",
"rX c #C5BBB5",
"tX c #93C9B2",
"yX c #BAC5BC",
"uX c #A1D0B7",
"iX c #D7C4AE",
"pX c #CAC3B7",
"aX c #CBC3BC",
"sX c #D6C7B9",
"dX c #E2CEB8",
"fX c #E5D2BD",
"gX c #BABEC1",
"hX c #C4BDC0",
"jX c #B4C8C8",
"kX c #CCC5C2",
"lX c #C6CAC5",
"zX c #D4CBC4",
"xX c #D6CBC5",
"cX c #CAD3CB",
"vX c #DBD2C9",
"bX c #C6D6D4",
"nX c #D7DBD6",
"mX c #E8DBCC",
"MX c #F1DFCC",
"NX c #E6DDD3",
"BX c #DCE2DA",
"VX c #ECE5D7",
"CX c #F7E9D5",
"ZX c #DCE4E2",
"AX c #E9EDE6",
"SX c #EFF2E5",
"DX c #F5F4EA",
"FX c #FDFCF6",
/* pixels */
"/./././././././././.Y.Q././././././././././././././././././././././././././././././././././././././.~./.Q.Y.~././././././././././.",
"/./././././././.(.G.$XXXQ.`.`././././././././././././././././././././././././././././././././././.`.`.^.{.qXD.^./././././././././.",
"/././././././.`.T.a.eXG.T.E.T././././././././././././././././././././././././././././././././././.T.T.Q.A.eXs.Y.`././././././././.",
"/././././././.`.Y.+XrXA.6XrX3XS.`././././././././././././.(.(.(./././././././././././././././.`.I.}.kX6XL.wX+XY.`././././././././.",
"/./.(.(./././././.#.rXvX;X*.pXXXS.Q.R.R.Q.Q.R.R.R.R.R.R.Q.R.R.R.R.R.R.Q.R.R.R.R.R.R.Q.R.R.R.R.S..XrXM.XXzXzX+.~./././././././././.",
"/././././././././.H.*...N.B.wXNX#X,X4X4X,X{.4X4X4X<X<X4X X,X4X<X<X4X,X{.4X<X<X4X4X4X X,X4X4X,X#XVXzX;.*.@.*.D././././././././././.",
"/./././.(././.`.L.=X7X&. XXX*XaX*XkXzXkXaX].rXaXaXzXkXzX*XrXkXzXzXzXrX#XzXkXzXkXkXkX].zXkXkXkX*XrX=XXX X%.6X5XS.`././././././././.",
"/./././././././.!.;.*.}.B.| ..M./ Z m m Z n M n H | X.| v H | ....| | m | | | M M | n | H M | / *.../ =.[.i.-.E./././././././././.",
"/./././././././.`.L.*X|.* Z , B 5 Z N q Z q A q V N q Z 8 Z q N V q Z 9 Z q N N q A q Z N t Z 3 N > V & [.#XL._./././././././././.",
"/./././././././.(.E.B.].< C < C 9 N t 9 C < C 5 t t q C < C 9 t C 5 C < C t t N < C < C t t C < C < C 5 ].B.T././././././././././.",
"/././././././._././.~.L.1 b = M = b h ; k * k = h h = k * k ; h h = k @ h ; z b = k = h ; ; k * b * b s A.~././.`.`./././././././.",
"/././././.~.W.L.Q.`.`.A.I ! 0 C.j ! R L b.; n.j Q Q K C.; Z.n Q Q n n.; #.L R ! 0 b.j ! I I ! j C.z ! J Z.`./.~.L.W.~././././././.",
"/./././.`.H.+XrXG.E.W.O.h.1XJ tXI !.h.$.1X6 tXI %XP.#.uXl tXY U.U.I tX6 1Xh.G.1XJ tXJ !.h.h.1XJ uXJ >XP.Y W.!.G.7X$XD._./././././.",
"/./././.^.;.g.+XOX8X%XY } j.U k.K j.} O.;.K ].U %.%.Y k.K ;.( %.%.U k.K j.O.%.j.I ].I j.} $.;.U ].I ;.%.J .X6XXXd.s.;.^./././././.",
"/././././.L._ >.U %.,.C F 3.< r.t >.F i 3.: 3.y >.>.e 3.< r.D :.>.t 3.< 2.F i >., 3.t :.:.i 3.< 3.y >.>.e ,.{ ( <._ L.(./././././.",
"/././././.`.Z.  $ ,.e.) 9 D @ ) $ u t < C X C $ u u > ) @ C , t u @ D X C r 9 C + D @ u t 9 D + ) , C q y 2.2.w   ! ^.~./././././.",
"/././././././.S.#.% + + > > @ 3 > 3 3 3 3 3 = 3 = 3 4 3 3 4 3 3 4 3 3 3 3 4 3 3 3 3 3 3 3 3 = = 4 = > , + & # +.S././././././././.",
"/././././././.`.Q.t t.t.A ' N f x v c c c c c c V B f x B B B c c B B B z z Z V c B N c c c v x x x G B t.p.w E.`.~./././././././.",
"/././././././././.L.[ a.p.B V ] N 6 z n z - 0 N f 5 ) ' x x 1 c c 4 q x ' ) & z q * - z j z 6 x ] N x 6.s._ S./.~.~./././././././.",
"/./././././././.`.Q.[ 9 i u u v.) g m g ) 1.<.C ` 8.<.` _ ) ] t.e._ ) ) ` t.t._ ] { t.C j m j C v.u r i * ~ Q.(./././././././././.",
"/././././././././.~.E.;.u.y.i v._ g L L t 9.<.5.{ <.<.6.9.6.a.a.s.p.6.6.6.<.4.<.a.4.s.= J L g ~ g.D 4.u.&.L.~.~./././././././././.",
"/././././././././.`.R.f.u.y.` v._ y.d.d.d.d.z.c.c.c.d.c.c.c.c.+Xc.c.c.+Xz.c.c.c.c.a.z.z.z.z.d.4.g.] y.u.+XT.`././././././././././.",
"/././././././.`.A.E E N t q t _ t t u u y y y r y y r r r r r y r y r r r r y r r y y y u C u u ` u C u C W #.E.`././././././././.",
"/././././././.`.#.& d z f b f a z h g g +                                               - g h z a z f h s 1 & S.`././././././././.",
"/./././.(././.`.Z.f Z N Z c V N Z c Z z = o O o o O o o O o o O o o o o o o o o o o O o 4 n c Z Z c Z Z c m 1 S.`././././././././.",
"/././././././.`.Z.v E Q l I R L E Q ' c +                                               4 v E L l E k R  .L d L.`././././././././.",
"/././././././.`.m.m Q P.].B.K.XXF.Y.' c +                                               4 / n.B. XN.B.F.m.+.d L.`././././././././.",
"/././././././._.|.=.-.i.oX].#X].].m.d.G + .                                             1  .F.i.oXoX].[.oX X4.%X^././././././././.",
"/././././.(./._.@X[ m.+.J.N.N.Q F.$.a.0.@   .                                           4 / F.m.+.D.$.D.N.+.u.<X^././././././././.",
"/./././.(.(./._.|.].bXbX9XbXjXbXjX2Xa.0.>   .                                         X : +.2XbXjXjXjXjXjXbX+X%X_././././././././.",
"/./././.(././.`.[.6XnXyXSXcXD.lX6XH.a.w.,   .                                           4 P {.lX0X&XAXVXyXDXeX.X_././././././././.",
"/././././././.^.@X;.U.<XFXcXJ 6XnX<Xa.q.,   .                                         X 1 R yXnXH.Y DXAX%X%X+X&X_././././././././.",
"/././././././.^.@Xu D.H.SXSXBX9X<XAXz.q.,   .                                         # . J.ZX{.cXnXFXcXh.#.8.<X^././././././././.",
"/././././././._.|.OXbX0X4Xj.cXFX.XlXc.0.:   .                                         #   K.>XyXFX<XH.yXyXcX$X%X_././././././././.",
"/././././././.`.l.5XZXnXlX<XcX<X.X.Xa.0.,   .                                           1 ( ;X.XlX0X>XcXlXDXqX.X_././././././././.",
"/././././././._.@X%.bXSXlXBXyX%X{.  x.0.:   .                                           x ; J 9X%XBXcXnXDX2Xz.&X_././././././././.",
"/././././././.^.@X& nXcXlXcXlXnX].6Xx.0.:   .                                         X * *.,X,XAX9XBX9XDX>X<.<X^././././././././.",
"/././././././._.|.*.%XcX0X.X6X9XSXDX8.0.,   .                                         # * -.FXnX0X<X<XcXyXD.u.&X_./././././.(.(./.",
"/././././././.`.k.9XlX$.H.H.cXlX<XBXu.q.,   .                                         # & F.BX<XnX0XZ.H.-.AX=X.X_././././.(./././.",
"/././././././.`.k.].W.W #.P.P.&XP.E.a.q.,   .                                         X : $.E.>X.X.XF.W W jX$XH._././././././././.",
"/././.(.(.(./.`.L.[ l.@Xx.l.l.@X@Xk.9.q.,   .                                           0 ~ l.@Xx.l.x.x.@X[.%.!./././././././././.",
"/./././.(.(./.(.!.-.y ) [ [ [ ) ) t 6.q.,   .                                           z q p ) ) [ ) ) ) ^ L.!./././././././././.",
"/././././././.`.Z.R C <.4.w.4.5.1.<.5.q.:   .                                           4 N 1.1.1.2.1.<.<.P +.S.`././././././././.",
"/././././././.`.m.: { a.t.t.t.u.t.` 8.0.:   .                                           z N 5.u.d.t.t.u.u.) s S.`././././././././.",
"/././././././.`.#.$ { { { { { { { ) 8.q.:   .                                           z N { { { { { [ { [ o S.`././././././././.",
"/././././././.`.m.2 ' ] G ] G G A B 8.o.:   .                                           0 x A G G G ' ' ' G F L.`././././././././.",
"/.(./././././.^.|.F 2.a.>.8.6.t.p.2.8.0.,   .                                           0 v e.p.4.5.2.8.8.2.p.%X^././././././././.",
"/././././././.^.|.F t.1.4.d._ ` 2.2.8.o.,   .                                           0 v 2.5.` <.t._ 1.1.p.&X^././././././././.",
"/././././././._.|.F 7.t.u.4.p.1.1.,.8.q.,   .                                           0 N 1.<.6.t.7.a.5.4.2.,X^././././././././.",
"/././././././._.|.S ] 1.t.a.2.<.e.,.8.o.:   .                                           0 c e.4.<.4.6.2.` D r.%X^././././././././.",
"/././././././._.|.S ,.i 1.p.{ t ,.,.8.0.:   .                                           0 c w.] ~ t.2._ ,.] 2.%X)././././././././.",
"/././././././._.|.F 1.<.) w.4.>.e.G 8.q.:   .                                           0 N { e.<.6._ ] 2.] r.%X_././././././././.",
"/././././././._.|.i G D ) d e D G G 5.o.:                                               x 4 G G D 1 x ] C G >.%X_././././././././.",
"/././././././.`.H.&.z.z.z.z.z.z.z.d.y.' 8 7 7 % # 7 7 7 7 7 7 7 7 7 7 7 7 7 7 # 7 7 7 % 4 } z.z.d.d.d.d.d.y.o.P._././././././././.",
"/././././././.^.K.i.] S G w.q.,.,.D Z ^                                                 & ; ] ,.,.,.w.S S ] =.L.`././././././././.",
"/./././././././.E.#.5XpXaX=.-. X].XXXX;.i.OXoX].;.OXOXXXOXOXoXXXXXXXoXoXoXoXoX;.}.|.OX].;.XXXX X X].=.0X0X3XU E./././././././././.",
"/./././././././.`.A.mXsXMXoXn.2XgX8X2XK.aXBXgXrX5XFXNXMXVXMXMXMXMXMXMXMXmXVXFX*XfXgXnXpXK.2X8XgX2XJ.3XVXsXmXn._.^././././././././.",
"/././././././.!.>XD.hX#X0X[.a ;X XR N. .B.J.K.XX].6XOX5X3X3X3X5X5X:X3X3X5X,X8XB.3X-XJ.B. .N.E  X;Xl OX0XoXhX$.W.!.^./././././././.",
"/././././././.D.8XB.vXzXNXXX;XjX8X XlXrX9X*XvXkXvX5X=XmXvXmXmXmXmXmXmXvXNX*X7XvXaXvX#X4X0XkXOX<XjX8X3XNXzXvX| 8XD.~./././././././.",
"/././././././.$. .g NXCXDX[.a J.n.+.K. Xb.k.XXK.;X XoXwX5XwXwXwXwXwX7X5XwX|.}.OXK.OXk.Q K.K.@.+.J.l XXDXCXNXa X.O././././././././.",
"/././././.`.S.B.9X*.zXCXCX].*.9X4X4X8X].rX8X0XrXoXpXsXaXzX*X3XaXaXrXpXpXpXsXpXoXaX0X6XaX].8X4X;X9XXXOXCXCXzXm 8XB.A.`././././././.",
"/././././.`.h.z N.P @.8X;XP ..N.N.J.J.B.*X-X,X3XXX7XrXwXrX#X#XpXwX7XwXrXrXrX7X}.3X;X-X3XB.J.J.N.N.@. .XX0X*.h N.v W `././././././.",
"/./././.(.W.;.].kXV.0XzXzX=.;X XrXNXaXkXzXzXmXvXzXzXvXvXzXvXNXkXkXNXvXzXvXzXvXzXzXvXzXzXzXaXNXpX X8X].kXzX0X=.aX].;.P.^./././././.",
"/./././.`.Z.@.B.K...5XsXsX&.T n.*XfXpX7XsXdXiXiXiXsXsX7X7XdXfXrXwXfXdX7X7XsXfXiXiXpXdXdX7XpXmX*XB.b.=.sXaX5X%. X-.n.$././././././.",
"/./././.`.Z.- ..*./ ..=.=.^  . .| =.=. .=.;.-.;.k.;.;.=.i.i.;.i.;.;.i.i.-.;.k.k.i.=.;.=...%.=......./ =.;...( -...s #.`.^././././."
};
