/* XPM */
static char *_2f9ab7de9d044c0bbb0c83e02dd2e41pSI2ljFeNU8xej5V[] = {
/* columns rows colors chars-per-pixel */
"65 65 143 2 ",
"   c #4B5E0F",
".  c #495D15",
"X  c #4D5F18",
"o  c #4D6115",
"O  c #4E621A",
"+  c #516416",
"@  c #53651C",
"#  c #59661E",
"$  c #56691E",
"%  c #5A6C1E",
"&  c #5D701F",
"*  c #62741D",
"=  c #556720",
"-  c #596722",
";  c #566A22",
":  c #5B6D23",
">  c #5D6E28",
",  c #5E7125",
"<  c #5E7229",
"1  c #606E24",
"2  c #616D2B",
"3  c #627425",
"4  c #667926",
"5  c #697D26",
"6  c #62752A",
"7  c #69772C",
"8  c #63782B",
"9  c #637829",
"0  c #657829",
"q  c #677828",
"w  c #667928",
"e  c #647A28",
"r  c #677A28",
"t  c #677A29",
"y  c #67782A",
"u  c #66792A",
"i  c #657A2B",
"p  c #677A2B",
"a  c #677D2B",
"s  c #63782D",
"d  c #66782C",
"f  c #67792D",
"g  c #657A2D",
"h  c #667B2C",
"j  c #677C2D",
"k  c #677C2F",
"l  c #66792B",
"z  c #687929",
"x  c #687A28",
"c  c #687B29",
"v  c #68792B",
"b  c #697A2A",
"n  c #687B2A",
"m  c #6A7B2B",
"M  c #6A7E29",
"N  c #697C2A",
"B  c #697C2B",
"V  c #6A7C2A",
"C  c #6A7D2B",
"Z  c #68782D",
"A  c #697A2C",
"S  c #687B2C",
"D  c #6A7B2D",
"F  c #687A2E",
"G  c #697B2F",
"H  c #697C2D",
"J  c #6B7C2C",
"K  c #6A7D2C",
"L  c #6B7E2C",
"P  c #6B7E2D",
"I  c #687D2E",
"U  c #6B7C2E",
"Y  c #6A7D2E",
"T  c #6B7E2F",
"R  c #6C7D2D",
"E  c #6D7F2D",
"W  c #6C7D2F",
"Q  c #6C7F2E",
"!  c #6E7F2F",
"~  c #697C2C",
"^  c #667730",
"/  c #667730",
"(  c #667B30",
")  c #667B31",
"_  c #687A30",
"`  c #6B7B30",
"'  c #687932",
"]  c #6A7C30",
"[  c #6B7D31",
"{  c #6A7C32",
"}  c #6A7F32",
"|  c #6D7E30",
" . c #6C7F30",
".. c #6C7E32",
"X. c #6D7F33",
"o. c #6D7D34",
"O. c #6B7D32",
"+. c #6B7C38",
"@. c #707E31",
"#. c #6C8027",
"$. c #6B812F",
"%. c #6D802F",
"&. c #6D802E",
"*. c #6B8033",
"=. c #6D8031",
"-. c #6E8130",
";. c #6C8230",
":. c #6D8331",
">. c #6F8231",
",. c #6F8032",
"<. c #6E8132",
"1. c #6F8233",
"2. c #6F8533",
"3. c #6E8034",
"4. c #6F8135",
"5. c #6E8133",
"6. c #6C8038",
"7. c #708230",
"8. c #708133",
"9. c #718232",
"0. c #708332",
"q. c #728333",
"w. c #718433",
"e. c #708334",
"r. c #728335",
"t. c #718136",
"y. c #708236",
"u. c #718435",
"i. c #738434",
"p. c #728534",
"a. c #728536",
"s. c #748535",
"d. c #718434",
"f. c #758836",
"g. c #738539",
"h. c #728738",
"j. c #758638",
"k. c #748738",
"l. c #738439",
"z. c #768938",
"x. c #76883C",
"c. c #77893D",
"v. c #7A8C3E",
/* pixels */
"% , 3 % % , 3 0 % : 3 3 6 3 7 <.<.R 3 % 3 3 , 3 0 6 3 : % % - : ; < ( ( 6 , : : @ ; : : : ; > < _ 6 > > > : : > > , $ @ @ 3 0 3 , ",
"3 3 3 , % % : : b 3 3 3 : : 0 <.Y q % % 3 3 : , 0 0 6 3 : : : > , < 6 < 6 6 , @ O @ ; : : : : < ^ 6 > > : - $ : , _ } , @ $ : 3 : ",
"3 3 q 3 3 b S S 3 3 7 S 0 > 3 0  .b & % q q , , d S S d 0 3 , , : 6 6 6 6 6 , ; @ $ : , , , , : 6 < > > : - : , , 6 3 : % : : $ : ",
"& 3 q b R 8.y.8.3 3 S ` S 6 6 7 a.8.C q <. .0 0 }  . . .S 0 3 , $ , k } 6 : , k < 6 s d ( 8 < : > > > > > > 6 7 : : $ $ : 3 : @ , ",
"3 q q q Y  .Y 3 S 0 6 3 > , _ g.a.z.w.<.w.%.q Y Y  . .} d 3 : : % $ 3 y.Y : 3 a.S Y  .<.3.Y 0 3 > > > : : > 6 6 % , 6 , $ $ , 3 , ",
"C C C b Y <.Y 3 d 0 6 6 > > 7  . .a.8.R <.C q Y Y Y S d 3 : % $ % o + Y a.q 3 Y q Y <.y.y. .q 0 , > ; ; $ - - $ % : : : : : 3 q a ",
"Y Y S Y <.k.y.S , 3 0 d 6 , > 3 q Y C C R Y q R Y S q 3 , : : : @ + $ 0 <.<.q q 3 C %.<.Y q 3 3 6 , - @ $ - $ + : @ @ $ 3 q q 0 2.",
"Y S q q <.a.3.d , , , , : : , d q b 3 4 <.8.R <.Y Y q 0 3 , 3 3   $ 3 q Y <.Y q 4 Y <.%.b 3 3 3 6 , $ @ $ > % + , 6 d 0 3 , 3 Y <.",
"g.k < < 8 < , , $ : , , : ; : , 4 3 3 4 C Y R Y R 4 3 q <.<.q , @ : 3 3 3 3 3 3 s.Y b 3 3 4 b , , , > $ @ @ $ $ % 3 0 3 0 Y Y q $.",
"Y q q k k 6 , , : , 6 , @ @ , d b b C C C C Y Y 8.%.Y Y  .Y 3 % @ : 3 0 7 R S S k.b b 8.R R 8.R 3.6 - @ @ + @ : : : , 3 q Y Y 8 a ",
"k Y *.*.d < , < : , , : = = : 6 b C C C b q C Y Y Y R %.<.S 3 : @ : 6 7 o.y.y. . .3 3 a.8.C R 8.x.6 $ : : % $ , , % % 3 C Y b q <.",
"<.<.} d < , , < ; $ @ ; : : ; @ 3 4 C C 4 4 b R 4 q C %.<.Y 3 : - - > 3 7 o.o. .6 : 0 R b 3 4 b  .6 : 6 } S 3 : 3 : : q C q 4 a q ",
"*.( 8 < , , , ; @ @ = ; ; ; ; % % 3 4 5 q b Y <.R C C %.<.R 3 : > ; - - > 6 7 S > 3 Y b 3 b R 3 3 3 , 6  .g.Y % 0 3 4 C q 3 3 Y 3.",
"6 < , , < 8 , O O $ ; @ o o ; g & 3 4 5 C Y %.8.R b q Y 8.8.C 3 6 > ; - = - 6 7 : 6 S b 0 8.s.0 , 6 3 : 6 3.Y , q q C C 3 , 3 d , ",
", , : : < 6 , O ; ; ; @ O = < *.3 3 4 C C C Y Y 4 4 4 b Y %.Y S 6 2 > - @ @ - 6 1 1 3 3 3 @.r.b 3 6 3 : , q Y q 0 S C 4 3 3 3 8 , ",
"s < : @ ; , : @ s , ; : ^ *.6.} 3 4 4 5 C C 4 3 q b q q 3 3 3 0 > > > - @ X @ > 7 : 1 0 7 S @.S , , 3 0 0 q S <.6 q q 3 3 q q < , ",
"s < : : : ; ; : : < , , 6 d 3.3.3 3 b %.%.b q b C Y Y Y C b 3 , , 6 6 > @ @ @ @ 6 6 6 6 7 } _ 6 6 _ 6 : d g.} 3 6 0 6 : , 0 0 , < ",
"> ; ; ; ; = - > < < 6 d 0 6 d <.<.Y q C Y C Y <.R Y Y R R C q 0 3 6 6 > $ @ @ $ 7 7 7 7 _ } _ 6 6 _ 7 , 7 } d 7 d d 7 6 6 6 6 : 6 ",
"< > ; ; = = ; < > : 6 } d > , Y <.Y q q C Y R 8.Y 4 3 b C 4 3 q 0 6 6 , > : : : g.g.y.3.3.3.} 7 d o._ 6 6 , , d d 6 6 6 6 , > : s ",
"+.s ; @ @ @ = ; - - , d d 6 , 3 , 3 4 C C q b Y q 3 , 3 4 3 3 q d s 6 6 6 7 7 7 } o.} _ _ } _ 7 } } d 6 6 - - 7 6 : : 6 6 > : , d ",
"s : @ @ ; ; = O 6 7 s 6 d _ 3 $ $ & 4 C 4 , 3 q 3 & % 3 3 , , 0 0 6 > , 6 _ } } d d d 7 _ o.3.o.7 6 : > 6 - $ 6 : $ $ , 6 > : , d ",
"= @ = > _ o.6 ; y.g.o.7 d o.3 + 3 3 q 4 , % % 3 & % % % % & , , , : $ $ > 7 _ o.o.o._ 6 6 7 d 7 - $ @ @ , > - 3 : - - : > > : > < ",
"@ ; > 6 } y.o.7 g.y._ 6 7 _ 6 % S q 3 3 , % % , % , , % % 3 3 : : - @ @ $ > 7 } 6 6 : @ @ @ $ - @ $ @ @ > > : , : > : - : , > : - ",
"; : > : > d o.o.d 6 > , 6 6 6 0 S 3 , 3 3 3 : % 3 Y Y 3 3 R Y 3 , : @ @ @ : s } : : ; @ $ , d } - , : $ > , : : - > : $ : 6 6 > @ ",
"> + 6 6 3 S 6 _ g.7 : - : > > : 0 3 , , , , , , : <.z.<.Y <.Y , } $ $ > $ : d _ : > $ $ , 6 , 7 _ : $ , 6 : @ - 6 - - : : : , > > ",
"6 % S S 3 0 6 d _ , @ @ $ - - % @ $ : 3 3 3 3 3 <.<.S 3 Y y.q $ : - : : $ > 7 6 6 6 : $ : : $ - 7 $ @ - : - : 6 7 > : 6 , , 6 < > ",
"3 , Y Y 3 3 , 0 d : $ - : > : : @ % : , : : 3 6 k.3.0 6 S  .6 @ o , 6 - - , , 6 , < : : , , : , 6 $ @ $ : > d x.3.7 7 7 , > , : 3 ",
": % q S : : , 6 d 3 > , 6 6 > > , 3 , % @ @ 3 S d S Y S d 3 : : @ 6 6 : 6 6 : 6 : , > : 6 6 , 6 : @ @ - : > _ x.o.7 7 7 > : > - 6 ",
"% % 3 q , % 3 3 0 , > , 6 , : - , , : @ + $ d g.: 3 0 0 : % : 3 , 6 > > d , $ 6 , 6 > - > - @ $ @ @ $ : - $ > 7 , - > 6 , , 6 6 7 ",
"& 3 3 C 3 $ 3 , 6 , , 6 6 , : : : , , : $ % 6 } 0 6 , % : 3 0 0 7 , - , 6 : $ , 6 7 6 : > - @ - : : , 6 > $ @ $ , - , 6 , > 6 6 : ",
"3 3 3 Y 3 % 3 , 6 , , 6 7 6 > , : 3 6 3 : $ % : S S 3 $ % 0 S 6 6 > , 6 : : > : , 7 6 > 6 , , d 6 6 6 7 6 > - - 7 , 6 7 : $ : - # ",
", 3 , Y 0 % q , , : : 6 6 6 > < , 6 6 > % $ % : : d 0 $ @ > 6 : : > d 6 @ : 6 - , 6 , > , , , d , , , 6 6 , , , 6 > 6 6 - @ ; $ 1 ",
"6 , 6 Y Y 3 , 3 , , , , : ; @ @ = ; - ; 6 0 6 % , : 6 } 6 = ; 6 6 6 6 > - - > 6 _ 7 , : - - - - : : : < d d < ; ; ; : < > ; ; ; : ",
"^ 6 , 3 3 , 3 b % 3 3 3 > ; = ; > > > > 6 d 0 , 3 , 3 6 > @ @ - 6 6 6 3 , > > > d 7 , : : : > , ; : , 6 s s s < : : : : : ; ; ; 6 ",
"7 > % : % % , b % 3 q 0 > - - : 6 6 6 6 6 6 3 3 3 3 6 , : = @ @ 6 6 6 < 3 , : - , , > : - : > 6 : , s s 6 < s ( < : ; ; ; ; = ; 7 ",
": $ % : : % % 3 % , 3 3 , : : > < 6 6 , : , 3 3 3 3 6 , , , : = : > , , , > > : , , > : : : , 6 , 6 s 6 , , < s : ; @ @ = = @ @ 6 ",
"- $ - 3 , % % 3 , , , , 3 , > : > > > , : : , 3 3 3 0 0 7 7 > = $ - > > : : , 6 6 6 6 6 6 6 7 d < < , : ; $ ; ; ; ; @ @ = ; = @ > ",
", : : 6 3 : 3 q 3 , % , 3 3 , : 6 , , 6 6 3 , 3 3 3 0 S d 6 : = $ $ - : : , 3 6 6 6 , , 6 6 7 7 < , ; @ @ @ @ O : : ; @ = ; ; = ; ",
"6 : > 6 3 , 3 } 3 3 , , , 3 3 3 0 6 6 S S 0 , , 3 3 6 } _ 6 : > - $ @ : 6 7 6 > > - $ ; > 6 6 , < , : ; : : ; ; s s : @ O @ ; ; ; ",
": - > 6 6 , 3 d 0 3 3 , , , 3 q S 0 0 }  .7 , : 3 : 6 } } 6 6 _ , $ @ > _ o.6 $ : $ @ $ , 6 6 > < < < < < < s s ( ^ : O . O = ; ; ",
": : : > > - : , : : 3 0 3 3 q 8.Y q q q S q 6 , : 6 7 6 6 , 6 6 , : - : 6 6 6 > - - - : > , > : d , : : : 6 ^ : @ < < ; O @ ; ; ; ",
"$ @ - 6 6 , % @ 6 : , 3 q q C %.C C b q q 0 6 0 : : 6 , 6 : 6 6 6 > - : , 6 6 , : - $ - : > > : d < , , ; , < @ O : < ; @ = ; ; = ",
"@ o @ : ^ 7 > - 6 : % 3 Y %.C 5 q C b q 3 3 6 d : $ 6 : 7 $ 3 6 6 > - - > 6 6 6 , : $ $ : , 6 6 s 6 6 , ; ; : @ O ; < ; ; : ; = . ",
"- @ @ - 6 s 6 > 6 : : 3 Y %.C 4 4 4 4 3 3 3 3 6 > @ 6 : 7 $ 3 6 , > : : > , 6 6 3 > $ $ > 6 d _ 6 < s < ; : < ; = : : : : > > ; O ",
"6 > : > > ; - - : : , 3 q C C 4 5 4 4 b b q 3 : : - , - 6 - 3 , : : > > > > > , > - $ - , d } o.< < 6 , $ : < : : > : : : < < : 6 ",
"- : > 6 > - ; - - > 3 3 3 4 5 5 #.5 5 C R C 3 : - , > : - , , : - : > : : % - : $ @ @ - , 7 d d < < 6 , $ ; : ; < < > : ; : > < s ",
"- - : > ; = = : - , 3 , 3 4 5 5 #.#.C C b 3 , : : _ , , @ } 6 : - : : : @ @ $ : @ @ $ : 6 6 6 , < , s 6 : : : @ < < < : ; ; ; : , ",
"_ < : ; @ O @ @ > , , & 3 C &.C 5 C C 5 3 & : : , g.6 d @ k.d , : : : $ @ @ @ : = $ - , 6 6 , : , , s d < < , @ , < < , ; = = ; , ",
"s < ; ; @ O @ @ , ; % , 9 < 9 9 3 4 4 3 , & 3 3 3  .y.} d 0 , @ > : : - - - ; ; > O o ; , ; @ : , 3 6 q q 4 3 3 b R Y q 0 q , @ > ",
"< : @ @ O O @ ; . o @ < 8 8 8 k & 3 3 3 % % & , 3 Y <.Y S  .S , , , : : - - ; - ; = = , , ; , < , 3 3 4 q q 5 5 &.%.Y 3 q b 6 % 0 ",
"< : @ O O @ ; < @ ; < k 8 , % % $ % 3 3 % % % , 3 0 6 , 6 d d 6 3 3 3 3 , > ; ; O ; < < , ; , 8 S S Y C C b 4 4 %.%.C 3 3 q 0 , 6 ",
"s < ; = @ = ; < ; , < k g < < 6 $ % , 3 3 3 3 3 Y 3 : $ % , , : 3 0 7 7 7 , - = o ; < , ; ; , , d d S S b q 4 4 C C 4 3 3 q 0 3 3 ",
"< : ; = @ O @ ; < : : < 6 6 < 8 : % , q  .Y S Y y.d : $ % : > , 3 0 d d 6 , - @ O ; : : : : , % : : 3 3 3 3 3 3 q q q 3 3 3 6 3 q ",
"< ; @ O o . . O s : ; ; : : ; : 3 & 3 Y y.<.Y <. .6 % $ % % , 0 3 3 6 6 , : = @ ; ; : , , , < , 0 0 q 0 3 3 3 3 q b q q 0 3 3 , 3 ",
"s : = O o . . O O . O ; : < < s 3 3 q <. .q d 3.0 : @ $ $ $ > d 3 3 3 3 > - @ @ : ; : 6 q 3 8 Y a.<.Y 0 3 3 3 4 b b q 0 3 , , , 3 ",
"' < ; @ O O @ ; @ ; : < < ; ; , , 3 Y <.q , 3  .6 % $ : - $ > } 0 3 6 3 > : ; = : ; : d d 9 a a.<.q 3 % : 3 Y <.Y q 0 3 , % % , <.",
"^ > ; = @ O @ s @ - @ = s @ . : % k.y.: 3 d 3 : 3 : % : : : > , @ 6 , % , ; @ < $ > 3 6 q Y R Y q S q 0 , , 6 q  .0 : : , , : % <.",
": - - > ; @ - 6 @ ; ; ; ^ < @ @ : Y Y 3 0 3 % : 3 : - : > > > 6 , d 6 : , ; = < > 6 S Y R w.f.f.w.<.q 3 , 6 S 3. . .} 0 : % , 3 $ ",
"@ @ : 0 6 > : , $ : > > 6 7 > @ : , 3 d S : @ : 6 : - : > > > , , s 6 , , , , ( d } } q q C C C s.<.q 3 6 d } 3.} 3. .d , : 3 Y 3 ",
"@ % 3 q d , : , 6 > : > ; > < $ % $ : d d % @ : 6 > - : : - - : , 6 6 < , , < ( y.g.a.Y q 4 4 4 C q 0 q d d 7 6 d 6 , , 3 0 Y  .+ ",
"3 3 0 b 0 3 3 3 7 % : 3 : @ @ % $ $ , 6 6 , > : 6 > ; : ; ; ; $ , , s < , , , < S } Y q 3 4 4 * 3 , 3 3 d 7 > ; < > : : 3 q R <.d ",
"b C b q 3 3 3 3 3 % % 0 S - @ @ , : 3 6 : 3 6 : 6 , : > : ; @ $ @ @ < s < < d 6 0 Y Y q 4 * * % 3 , : , 6 6 > - - > 6 3 , 3 C a.k ",
"4 5 b 4 3 3 3 3 : : % 3 l. .- -  .6 0 0 : , d , 6 , > > > - - ; O O , ( < s o.( Y y.s.w.%.5 * * , & % % > > ; - = - > : : , 3 Y , ",
"3 3 b 4 3 3 3 3 3 3 @ % k.v.S 3 v.q q d : > 7 6 6 , > < < > : : , ; d } , < d < @ : 3 4 4 4 & % % % % : > ; ; = @ @ X @ : 3 3 , 6 ",
"0 3 , , , 3 3 3 3 3 a.4 + 3 <.Y f.%.q 3 3 6 6 6 > 7 6 > , > - : > : 6 ( < : : ; $ : , 3 6 < < 3 , , : : , - @ ; = ; - $ - , 3 3 , "
};
