/* XPM */
static char *ab75c92471154dd9e90d078a5c77f74fpOif96mjQm3TGSZy[] = {
/* columns rows colors chars-per-pixel */
"65 65 152 2 ",
"   c #674F37",
".  c #664D39",
"X  c #6C523D",
"o  c #71553E",
"O  c #79573C",
"+  c #75593E",
"@  c #7F613F",
"#  c #6F5442",
"$  c #6F5944",
"%  c #745A44",
"&  c #7B5E45",
"*  c #745C4A",
"=  c #7A5E4A",
"-  c #7E6145",
";  c #7D624B",
":  c #7E6352",
">  c #85653F",
",  c #826446",
"<  c #846A45",
"1  c #896847",
"2  c #83654C",
"3  c #88664A",
"4  c #85694D",
"5  c #8A6C4D",
"6  c #916F4E",
"7  c #8D704E",
"8  c #93734E",
"9  c #836652",
"0  c #8A6753",
"q  c #856A53",
"w  c #8B6D53",
"e  c #83675B",
"r  c #856B5B",
"t  c #8B6E59",
"y  c #916F53",
"u  c #916E5A",
"i  c #8E7154",
"p  c #867058",
"a  c #8D725A",
"s  c #927455",
"d  c #987755",
"f  c #967955",
"g  c #9A7A56",
"h  c #93755A",
"j  c #98775A",
"k  c #96795C",
"l  c #9A7C5D",
"z  c #A07F5D",
"x  c #937661",
"c  c #967A62",
"v  c #9C7D62",
"b  c #9D7F69",
"n  c #A17F62",
"m  c #9E815D",
"M  c #A2835E",
"N  c #948067",
"B  c #9E8163",
"V  c #9D826A",
"C  c #A38464",
"Z  c #A88765",
"A  c #A68965",
"S  c #AA8B65",
"D  c #A3866A",
"F  c #A8876A",
"G  c #A5896B",
"H  c #AD8C6B",
"J  c #AD8F6B",
"K  c #AE8E69",
"L  c #A8896D",
"P  c #AA8B6C",
"I  c #AB8E6E",
"U  c #AC8E6C",
"Y  c #AB8C6B",
"T  c #B08F6D",
"R  c #AE906C",
"E  c #AF916F",
"W  c #AE916C",
"Q  c #B09069",
"!  c #B1916B",
"~  c #B2926B",
"^  c #B1906D",
"/  c #B3936D",
"(  c #B2916E",
")  c #B3926F",
"_  c #B3956F",
"`  c #B5956E",
"'  c #B4946E",
"]  c #B6966F",
"[  c #B1926D",
"{  c #A68B72",
"}  c #A88A70",
"|  c #AC8D71",
" . c #AC8E74",
".. c #AB8D71",
"X. c #AA8F7C",
"o. c #A79070",
"O. c #AF9171",
"+. c #AD9072",
"@. c #AD9172",
"#. c #AC937A",
"$. c #B29170",
"%. c #B09172",
"&. c #B49370",
"*. c #B19472",
"=. c #B59471",
"-. c #B69670",
";. c #B49672",
":. c #B79673",
">. c #B39573",
",. c #B79973",
"<. c #B69973",
"1. c #B89871",
"2. c #B99970",
"3. c #BA9A71",
"4. c #B99973",
"5. c #BA9A73",
"6. c #BB9B74",
"7. c #BB9B75",
"8. c #BA9A74",
"9. c #BB9A77",
"0. c #BC9C75",
"q. c #BC9C76",
"w. c #BD9D76",
"e. c #BE9E77",
"r. c #BA9C76",
"t. c #B39579",
"y. c #B69A7A",
"u. c #BA9978",
"i. c #BB9A79",
"p. c #BC9B78",
"a. c #BD9C79",
"s. c #BF9F79",
"d. c #BB9C7D",
"f. c #BD9F7D",
"g. c #BA9D7A",
"h. c #BEA17C",
"j. c #C1A17B",
"k. c #C1A07F",
"l. c #C5A57F",
"z. c #C0A47F",
"x. c #AF9682",
"c. c #B29985",
"v. c #BE9F80",
"b. c #BB9E80",
"n. c #BFA282",
"m. c #BFA280",
"M. c #C0A383",
"N. c #C4A380",
"B. c #C2A482",
"V. c #C6A582",
"C. c #C4A682",
"Z. c #C9AB87",
/* pixels */
"M S K ' s.l.p.K &.s.k.u.$.K Z C C m C A v D | v k k u 0 0 t t t 9 ; ; - - - - ; ; q V b q = 9 D d./ ;./ > < ! K Z 1.q.' ' q.1.K l ",
"M K K S / j.s.S V.N.u.S l l M C A C Y Y C C L C s s t 9 9 0 0 = ; ; ; 9 9 9 9 2 9 = 9 9 ; 9 a L +.;.9./ 8 M s.! ! 1.9.' ' q.1.K A ",
"l l l M K *.E C I I P v j j l m C C P P l h l l u h s 0 0 t 0 ; = ; 9 0 a a a w w ; 2 9 q a c  .$./ S M 8 d S C 9.1.1.' 1.1.' K Y ",
"A l m ;.B.f.E P i s l l l v C A A C C C h i s h h c c x x v x t 2 9 q a c c c h t w x h t t h } v./ l M l 8 M q.1.;.;.1.1./ ! K A ",
"I A A *.M.n.+.B j h s i s l D +.D B l h k k l v k v v v b D n x q q w a c c c x w w c h q q q v L A l P E l K Z.Y K _ ,._ S S K S ",
"P I G l C t.G 5 k s w 5 w i l D v v i 5 k C C D k v v v v v c s w w t a a h h h a q q q q a w h s A A I I M C A M A / _ R A A S S ",
"+.@.G l k B B h i w w w w w w s c v s 3 l L D D k v v l l c h w 4 w a h a a a a c q q 2 t x a h h A P Y A l M f m A K Y S A A A S ",
"I v k B k 4 w v c h i i w 4 q w v } c w v | L D l v C v v v h w 4 w x c h a a h c w a w a h w w s 5 5 l h s C Y C A S C C S S C S ",
"D h i h h 4 i D v c c w q c c D F D c w w D t.| v C C l l C v h w s k k k c k i & s i w v k w k B j j i j l i I C 5 l ;.P m A A K ",
"k i i k v k B @.V v c i h D V D v k s y s l C v s l v l l B l j w w k F D s w w w w w w c k s v D B C B ..I j C B 7 f A C P E C Y ",
"l j k B B v B D k h c i h D v v C s h C v h h h h l B C C C v v l w 4 4 , & 4 c v i w h c k c D D D L I t...s 5 j B +.G f m E Y Y ",
"B B B v l l k h 5 i v a w k c C D l C I D h h l l l v C v l j l v c i 4 4 w k c B i w k k k v v L ..t.t.t.I l j s C t.G s j Y Y A ",
"l B v l l v l h s h C h w l B L D A I P l h l v l j h l j s i s D v h s h l l l h h k l h h l h v D L L B v D L k j k m m C G C B ",
"l B v l v B v l v l v h l L D L A L +.A s j C C D C v v C B l h D h i v v s i l h v C v v v l h k k k v i 2 v G B B m B A A C G v ",
"z l l l l l l s C v n h l I F D P Y E A l B P P I I L G | @.D h 5 5 v y.y.v w s l C v v D v s k D v k L c i D L D I I D D B C W v ",
"l d l l l j s 5 v n F v l F D L I A G G C C P L D L D C L | v 5 + , h B v h s h l l w s C h 3 h l 5 5 L G k I G C G B l G +.I G l ",
"v s 3 s w 5 h s l C C v l j v | G I B h v D I I L D D C v h w 5 4 4 + - l l l B B P A y 1 d C z l g l m C S S S Y C l C Y A A Y Z ",
"s s w 5 5 h C h l v C C B i w l k h i h D D B D B L L h w h v k i h 4 i D B C A v D A l g Z K S Z M Z S K K K S S M M S P S S S K ",
"h v h h s h B i w l B C C h 5 w s 4 2 h ....D L L L v w 5 h B v w h i k D B B C A C C M Z I K K K K K K ! K S Z K M P $.K S / P C ",
"L C l D l 4 5 3 4 v D v C B s 4 k i 4 i D L D L @.k 4 w l l l v h k h B L D P G +.C l C P P S Z K S S K ! ! K S K l Z &.P K / C C ",
"L C v C h 4 s i h v B B C l w w k c i 4 i k h a l 3 , h C B v v j h i v C C I C A l s C E E P S Y S S K / *.*.*.A s l A C A D s I ",
"C D B l h v t.| v s s v C w 3 c k B k 4 w w , - , 4 i k l l h h s 4 , s j l A l 5 5 7 C E E I I Y S P K E *.$.E C s l C v C C s B ",
"l D C v l C y.t.l s w s h 5 w v k v h i i i 2 2 , 5 h j s w 5 w l s 5 l j l Y C w 5 i l A G P I P Y P Y I L A C B B C C C C C v s ",
"l l l D v i v v h C l 3 , w w s k a w i k a i k i - , j j 3 3 s s i i l i s C l A B l l l B D | I I | +.| D v s v A D C C v v D G ",
"k s s s w w w s k k c h 4 3 w i a c h w i k h k 5 5 s B B h s l C s 5 l C l s l l B j C l 4 j B L D C v i 4 i v v v B C B l l v D ",
"w w w w w w w h c c v k 5 3 w i B V c i a k k k h i s B C l h l C l s l A A B l j B l B l 7 j s l l B L v i s B k l v C B j s s i ",
"4 4 4 w w w w s h h k s , & 4 4 c V c w a k k k h 4 < s l s s f d d s s l C v h j B l l l j j 4 i i c D c w w v l l v B v h w w 4 ",
"4 4 w w w 4 w w y w w w , & , & w a w 2 w h h h j 4 4 l A C l C 1 5 7 7 s s h h l l h h l v l i h k h w 2 ; q s c k k h h i w w w ",
"0 w w w w w 0 w s w w 0 0 w 0 2 ; q 2 ; i k h h w 4 5 l P P A A 8 8 d z l s l A m s w i j v v V c c a = o & q q a i a h a w 4 4 q ",
"0 w t w 0 w w w s w 0 u k c x w 2 w q 9 a c h i , 4 s l A P A C M M Z T Y m C P j 5 w i h k h B x c t = % 9 w q q w k B v i 4 4 q ",
"0 w t 0 w w w t w 0 w h k v v h q a q 2 a k i w w B G A A E E A S S K / $.S l s 5 5 k h h k w i q 9 ; ; 9 w t t q a B D B a w q w ",
"0 w t 0 0 0 w 0 0 w u x k c v c 2 q 2 - q i w 4 s L t.A C Y Y C S T ! ! / K f O , s L B k v , & ; # X ; t q q a q a c V c q 2 q q ",
"0 0 0 t t t t t t x v v l l l l i 5 - & 4 k v c h v C l l l l s M S ! K M M l f s k v F c , , l h , % ; 9 q q a x 9 = q a q ; & q ",
"u h h t q 0 e 9 a c B v l l l l s i 4 3 w k v x k h w 5 s l C C d d 8 g M Z M l v k h v k , 4 C k w 4 w w q q a a t t x x t ; = s ",
"u h s t q 0 h c h c B B l l l l j h i w i k x h w 4 3 s n Z A A C z g M ! 0.9.$.v s q 0 4 q h D k h a h a q q a q t x b c a q ; s ",
"u y 0 0 q a V  .a k v v l l l f s s h s w w s c w 4 w C | I Z C Z A A S R _ ;.*.v c t = % w v k h i h h a q 9 q = w x x c c a w w ",
"h y w 5 w i h k i k B B m m d s i i h h q , a V c s s l B C A I A A A S R _ _ @.L c c a ; 4 i i h h h s w 4 ; = = 9 0 0 t k h 4 w ",
"h h h h h s i w v B A A C M l f s s h h w , w D v c l h h h l A L C B W r.h.h.y.G a V X.x - 4 c l k h i w 2 = = 0 0 2 , w i w 4 w ",
"h h l l l k j j C A A A C A A M l h h h w , 0 v k v v l l l l h l i i l A A A D a q { c.a % : c k l k i q 2 0 0 h t 0 4 w i w w s ",
"l l l j s s l C C C C M C S K Y B h i h i , 4 a c B C l l l l j 5 4 7 7 5 < 4 i - a x.#.;   - 2 i j k i 4 2 t x b h w w s h h h h ",
"l s l f l m d f C C A A A A S Y G B D D w w c V c k l v j j l s w i h i < 5 i i + 2 V a = w k c h l w 5 y w w v v k w 2 w h l h j ",
"l s l j l m 8 8 g m M M A S R Y G B D B w i c c k k v B l l l s j k j i i s l k 2 - ; % - V G B B G v l k w 4 w 0 w w w w s h s j ",
"f s l l l l d g C Z A C A R Y A B B B k i k V a k k k h h j m C I L B f s f l l L c 9 % a @.I B C L D v v s w w q s l l h s s s s ",
"5 i B m l m g M ' / R / R A A G B B B k k G { a v B v k k j l C L L B f s f f j h h t ; k @.A G C C v l l k y w w k C C l f s s 5 ",
"4 i C C l m M K ' K / 9.E l m @.@.G B k V #.{ a k V B B C l i s j l l f 8 f l m i v v a c L B G I D v j h h w , y j v l l l l l 5 ",
"7 s G C l m M S ;./ ;.g.W j k I @.@.V k B G c q i c i w k s i l j n A M m m C A G L F k v L B A P C n l h h w O l n C z M C M M l ",
"h f C m m M g M / _ <.t.G k k B V o.D k a i q 2 a c w 4 k l s B l C Z C C Z S S C h s 4 w C C C v l l j y h k 3 n C Z C C C M M A ",
"k s l l m A l z l S I C B B B B B @...l w , ; w v L C B t.A 5 i s h l l M A S A ;.B v w , s l d l j l s 3 s n j s l C A C C Z Z C ",
"w 5 l D l D F s s s j j f f m A A D A P F l s l I I P C B v h w i l j s B G P I G B | C v l @ 7 5 s s s s h h h 5 n L C z z M Z C ",
"y 3 j D D } } h w v D i , 7 m M I :.:.&.$.C d d l m C l l v v v i i h v B k j B j j I C C G l $.7 s l l v v v h h s h C S T S C l ",
"v 3 3 j v F v , k B v i 7 l B l l C C n C l s 8 f l l h h l v B i a k D D i h L t.C B 5 5 l l ;.m l l l l B C v l 2 3 l C C M d 3 ",
"l 5 5 y s s s w k s s v D G C C l n l s l C C C m M l s s l v B i w w k v i l t.b...D v A C 5 s C m l l l l l l s , s l 6 8 g 6 s ",
"5 s z l 5 3 h C 4 w l G L B C Y D F n j C T / _ S C l s f B C B w w ; 2 i a k D L v l B I L s 5 s j B C B k s w 5 w C C 6 8 M d w ",
"d M Z M j s s h w k v v B I L B l l j l S / E R ;.K M g l m m j i a w 4 a c k h l h w w j j s j j j k j s i s l s l F C d l M d w ",
"K / Z g l l s , v v l l B I B i h h h C *.<.*.,.r.;.S M m m l h a k i q c B c k h k h v D k w 5 v l h i 4 , w l s l C C l g d d | ",
"K s.;.g 8 s d l k j v D B i w i l h s C t.;./ ,.;._ R A C A A B w w ; ; a k h c k a - 4 k h i 5 i h v v i - , 5 < 7 l C M d d S t.",
"' q.;.M g K *.P s k s , i i q v h 4 3 l $.u.,.*.<.A *.g.A s k B a q ; ; 9 9 q a w i i a v D h - i a c k C l < s , s l l 7 5 f C Y ",
"Z Z K ! R S K *.A B C l k D D D c w 4 w l A *.h.d.I B l i 4 2 ; q ; - - ; - - ; q w c V v i w h B c h h G D 5 5 l A <.9.S f f m m ",
"K g g C R R / r.;.G @.C w B  .V h h h s 5 5 s C P A h 5 w 4 & % q 9 9 q q q q q t a c c h w a V h c c h B B 5 s y.h.B.h.K l M K A ",
"/ M 8 g A / / K E +.d.C 4 a a w i h v v i , , 5 i l k a h w = ; = - ; 9 q r a c c c a ; q c V c x V D v B D j B r.h.s.K M M Y ;./ ",
"I C M Z S A M M R h.g.B k k ; - l l l l k h h k h k a a x 9 % : % ; : q r a a a a t = X 2 b V c V c a 4 k B i i Y <.,.M l S / S R ",
"$.A S ;.S 8 f R h.h.A 7 l B w i B v l v C D C B { k 2 ; q : = e * : q r a a q 9 ; % # = q a c c b a 2 % 4 i 2 f ,.h._ m g S *.S K ",
"I C C / S d g R _ S A s i v v D v B C D D D B l D a q 9 : e e : # $ % % = ; = % = % = - 9 w a x a t a w c l l r.z.r.Y M C R E S Y ",
"l j l P ;._ C f 5 8 ;.*.f s l C B C D C B B C D w a c a : : e * * $ X . # ; : : ; q 9 = - a x q = % & a @.t.I h.,.S A _ ,._ C m l ",
"l D C Y V.s.r.8 g ;.h.h.Y l C C C C C C C C C v h c c t e e 9 = * * * * = ; : ; 9 c N p 4 a c h j D C h k B l 5 f ,.q.,.' 1.9.C i "
};
