/* XPM */
static char *d52262142e484c7793962f8f3320a7369CZUL65WqgRrdBu8[] = {
/* columns rows colors chars-per-pixel */
"65 65 241 2 ",
"   c #000003",
".  c #000018",
"X  c #020125",
"o  c #00002B",
"O  c #140A2F",
"+  c #000336",
"@  c #031639",
"#  c #220A3C",
"$  c #11233D",
"%  c #28243A",
"&  c #000644",
"*  c #05194B",
"=  c #291843",
"-  c #1B2944",
";  c #092D50",
":  c #1A3658",
">  c #272B46",
",  c #2C294F",
"<  c #29374A",
"1  c #35364B",
"2  c #283B56",
"3  c #383E55",
"4  c #142D64",
"5  c #0D3568",
"6  c #423A53",
"7  c #144B5C",
"8  c #2A465A",
"9  c #314752",
"0  c #374759",
"q  c #34445A",
"w  c #365458",
"e  c #004768",
"r  c #025777",
"t  c #175371",
"y  c #274866",
"u  c #354A63",
"i  c #3B4D62",
"p  c #2C5469",
"a  c #385666",
"s  c #3D536A",
"d  c #264972",
"f  c #295977",
"g  c #375975",
"h  c #0C6479",
"j  c #3A636A",
"k  c #276678",
"l  c #3B6778",
"z  c #337279",
"x  c #474859",
"c  c #4E4D5A",
"v  c #4A555D",
"b  c #484E65",
"n  c #564F66",
"m  c #4D5362",
"M  c #42556B",
"N  c #43596D",
"B  c #49586A",
"V  c #565665",
"C  c #5B5C64",
"Z  c #5B5C6B",
"A  c #455C73",
"S  c #495E74",
"D  c #445E79",
"F  c #625B6A",
"G  c #6A5D77",
"H  c #45696B",
"J  c #5A646A",
"K  c #4B736D",
"L  c #4A6175",
"P  c #476976",
"I  c #4C657C",
"U  c #556778",
"Y  c #51697E",
"T  c #4B7473",
"R  c #497777",
"E  c #547B78",
"W  c #66676C",
"Q  c #70656F",
"!  c #686675",
"~  c #6C6C74",
"^  c #736B76",
"/  c #6A7476",
"(  c #737376",
")  c #74757B",
"_  c #79767A",
"`  c #7B7C7C",
"'  c #80787E",
"]  c #4C827D",
"[  c #57857C",
"{  c #68877F",
"}  c #84867F",
"|  c #115782",
" . c #325A83",
".. c #086682",
"X. c #296784",
"o. c #396785",
"O. c #2C7387",
"+. c #39778B",
"@. c #476A84",
"#. c #4E6A83",
"$. c #536D85",
"%. c #536E89",
"&. c #586D88",
"*. c #477987",
"=. c #43748B",
"-. c #4A7C8C",
";. c #567186",
":. c #56728C",
">. c #59748C",
",. c #5A6F90",
"<. c #487992",
"1. c #567590",
"2. c #597691",
"3. c #507E93",
"4. c #5C7A94",
"5. c #5E7E99",
"6. c #726F82",
"7. c #7A7684",
"8. c #7D7C82",
"9. c #617D95",
"0. c #617F99",
"q. c #817D86",
"w. c #358487",
"e. c #4A8688",
"r. c #558886",
"t. c #558B8C",
"y. c #4A948C",
"u. c #59958C",
"i. c #4C8594",
"p. c #548B94",
"a. c #558A97",
"s. c #5B9494",
"d. c #5A949A",
"f. c #5C9998",
"g. c #678681",
"h. c #628C82",
"j. c #7B8483",
"k. c #669789",
"l. c #65849B",
"z. c #63829C",
"x. c #639A96",
"c. c #629D9B",
"v. c #5EA29E",
"b. c #65A39D",
"n. c #69A599",
"m. c #6CAB99",
"M. c #6BAB9E",
"N. c #73AA9B",
"B. c #75B29D",
"V. c #6888A2",
"C. c #639BA3",
"Z. c #7497B0",
"A. c #68A7A3",
"S. c #6CACA3",
"D. c #72AEA4",
"F. c #6DB2A3",
"G. c #6FB6A7",
"H. c #73B4A4",
"J. c #7AB5A5",
"K. c #75B9A5",
"L. c #7ABAA5",
"P. c #74B4AA",
"I. c #76BBAA",
"U. c #7ABDAB",
"Y. c #7ABAB1",
"T. c #79C3AC",
"R. c #7CC2AC",
"E. c #7EC5B1",
"W. c #7ECAB1",
"Q. c #848484",
"!. c #878986",
"~. c #85838A",
"^. c #8A858B",
"/. c #8C8B8B",
"(. c #928E8D",
"). c #8C918C",
"_. c #93928E",
"`. c #8A8591",
"'. c #8D8C92",
"]. c #938E92",
"[. c #8C9692",
"{. c #949493",
"}. c #9B9594",
"|. c #969896",
" X c #9B9B95",
".X c #9E9C9A",
"XX c #A19F97",
"oX c #A29E9B",
"OX c #9FA19B",
"+X c #A4A39C",
"@X c #A9A79D",
"#X c #A09DA3",
"$X c #81BBA8",
"%X c #ACABA3",
"&X c #A9A8A4",
"*X c #B1AEA4",
"=X c #B2AEAA",
"-X c #B4B2A6",
";X c #B9B5A6",
":X c #B5B4AB",
">X c #B9B6AC",
",X c #BCBAAD",
"<X c #B7B6B1",
"1X c #BCBBB2",
"2X c #C1BFAD",
"3X c #C1BEB2",
"4X c #82C4AD",
"5X c #85C8AD",
"6X c #84CBB3",
"7X c #86C9B5",
"8X c #8BD3B5",
"9X c #8AD6B8",
"0X c #8CD4BA",
"qX c #91D7B9",
"wX c #92DBBC",
"eX c #BEC0B4",
"rX c #94E0BC",
"tX c #C2C0AF",
"yX c #C4C2B4",
"uX c #C5C3B9",
"iX c #C9C7B8",
"pX c #CDCBBC",
"aX c #D1CEBD",
"sX c #D3D1BF",
"dX c #94DCC1",
"fX c #99E3C3",
"gX c #A3EECE",
"hX c #CCCCC1",
"jX c #D1CEC1",
"kX c #D4D3C3",
"lX c #D9D6C5",
"zX c #DAD8C7",
"xX c #D7D6C8",
"cX c #DDDBCB",
"vX c #DEDDD1",
"bX c #E1DECC",
"nX c #E2DFD2",
"mX c #E4E3D2",
"MX c #EAE8D5",
"NX c #EBE9D8",
"BX c #F3F2E1",
/* pixels */
"#.4.0.I N 9.4.2.i 9.9.0.M ;.5.z.L I z.z.%.M z.4.4.i 4.5.z.S Y 0.0.4.i 4.2.5.L S 5.4.4.i 4.4.z.L I 0.4.%.M 0.4.0.i >.5.0.L S 0.5.$.",
":.4.4.>.$.V.:.5.I 0.:.2.N z.2.5.>.>.5.>.4.Y 0.;.0.I z.:.5.%.>.5.%.l.I V.5.l.>.>.V.2.I i z.4.z.>.;.4.5.z.s 5.2.z.Y 5.>.4.;.;.0.4.4.",
"1.4.>.L s 5.2.L S l.2.#.q L %.>.Y S z.z.A N >.>.@.M 5.5.5.N N >.I A s :.#.2.L >.V.2.L q >.2.I S $.4.4.D u 4.2.$.i z.>.5.>.>.2.4.4.",
"s I I s - A I M < D g y @ : 2 < $ M ;.I : q Y I s - A L $.q < 3 3 > 2 u $ u u i I g D - y g 8 i M ;.S > 2 I Y A $ S Y $.N i s I A ",
"S >.>.I a t.4XJ./ ;X;X,X) yXpXjX+Xu.$X4X$Xe.n.M.J.5X4XJ.$X{ N.5X4X$X[ 5X4XB.w % uXtXW ~ xXpXxX Xu.$X$XB.K $XL.5Xx.L.J.U.k.A 4.s I ",
">.4.2.>.t.I.E.v.!.NXbXNX XxXzXpXW f <.D.wX4X6X6X8XfXS.b.Y.l *.wX6Xt.H 6X9X9XB.F &XuXkXW :XkXkX_.b.0XH.u.r.U.c.7X0XI.6XE.P %.5.:.2.",
">.4.2.>.r.dX7XF.J {.&X|.~ q.1X<X! k =.=.d.C.C.C.C.d.<.3.p.l *.A.u.t.[ 7XK.6Xk.! +XuXcXW `.&X:X_.u.P.P.7XH c.H.b.S.p.c.A.y ;.5.4.2.",
"S >.>.Y o w.y.r > Z 8.'.> ^ ^ q.F 5 g d d 5 5 5 5 y d d d * 2 g o.s.P H.6XH.@ ~ +XlX@X+ ~ V V 1 j l t.r.* d 5 5 d y 4 5 y L 2.;.L ",
"M s N y _.3X>X<X1 /.pXxXW ; t.m.k.r.r.r.] R N.D.B.E R E ] r.u.T l s.y f.K.6Xr.^ +X2XbXyX>X1X%X@ $ [ r.r.n.N.B.J.K n.J.N.9 i S %.S ",
">.0.V.%./.vXzX>Xj.xXpX&Xv M.dXfXfX0XwXwXR.s.7X6XD.d.I.I.E.wX8XT.n.g p <.p.E.t.V {.,X&X>XzXlX>Xx f C.8X9XfXwX6XU.j 0X0X0Xn.$.z.V.2.",
">.2.1.>.J {.3XQ.{.jX(.Q.v 6XqXH.qX6X6X7Xx.t.4XS.A.S.H.0XfX0X4X4XK.c.a 3.i.d.l F ].,X@X@X*X-X;X_ 7 c.-.S.P.p.o.s.[ L.U.U.u.A 1.:.$.",
"S L u 2 1 m 8.W C 1XoX8.x H.0XH.L.s.r r r r k O.w.s.r.e.y.u.u.e.e.] @ e O.r e F '. X*X;X;X,X%X_ *.o.-.g y =.=.p.K k.M.s.j s I 2 2 ",
"N S u : /.uX+X=X1X%X1X&X; N.6XM.e.3 %X:X:X>X:X:X>X6 ~ 1X1Xq.|.1X<X%X`  XQ. Xj.  F `.^.-X-X.X+X' y s.6XN.E R.n.e.a u.s.i.h.s s s i ",
"I 1.4.@.%XkXiXpXuX*X X`.x r.S.H.z >XNXzXkXkXpXcXBX/.,XmXNX|.xXxX1XkX` ;XmXiX[.8.~ V ^.%X_.8.q._ k.L.T.s.H R.M.I.T b.E.E.x.>.z.0.;.",
"#.V.l.4.m ~.&X-X-X,X1X^.m i.f.S.l XX,XkXaX2X-X%X%X_.xX,XpX.X{.&XyX,Xv /.pXjXkXcXiXC 7.) *XpX<X> z S.S.=.R E.b.P.T o.A.D.t.S %.$.L ",
"$.l.4.S O G G q.^.~.~.q.3 -.p.@.: c +XpXpXyX-X8., ` kX;XpX+X6 ' ]._ = ' _ 8..X;XkX+X> 1 %XlXxX+Xe k O.w.*.y.+.h : & O.f p < %.1.D ",
"q L L 2 H h.[ 8 w H ; P E P T j 8 ].+X,X;X,X X` /.hX3X;X,XW > h.r.[ [ h.E + V +XuXmX` @ *X@X@X&X  j.).{ C !.[.{.C Q.Q.( C 9 I I i ",
";.l.l.%.B.fXE.-.R b.p.P.Y.7X0XG.k oX&X-X*X%X,XpXcXlXaX-X+XQ R qXdXfXdXwX7XR v :X%X1X|.W 2X,X-Xc &XmXNXvX+XBXxXjX` :XuXkX.X:.V.l.2.",
">.:.:.$.N.R.s.-.p *.P.S.c.d.3.i.p ~ oX*X{.+X,XXX:XuX+X.X7.x s.M.H.6X6X4XU.F.v ~ |.%X|.~ ,X,X|.F %XyXjX1XOXNXsXlX` ~ &X%X( :.5.2.>.",
"s :.5.$.R U.I.e.* h ..w.w.O.+.=.* + j.+X@X;XkX:X) Z 6.! F o t.b.L.6X6XI.I.M.o 3 _ (.c ~ iX}.~.( * .XoXm v 1X+X{.C ;XyX@XW #.Y N i ",
"2 L Y i P S.7XD.m [.|.|.|./.J < ) Q.x |.@X%XiXlXyXq < y a < t.S.s.p.p.b.S.H.K ^ {.~ ` ~ .X.XuXQ.~ OX{.|.o _  X/.( lX,X-XW q L M q ",
";.V.5.2.P b.H.E.[.BXcXcXmXpX@X8.cXcXC x Q.@X%X-XzX{ y.S.A.E R i.=.=.o.-.s.M.u.%XmXiXuX.XzX3XbX%X*XmXkXuXC %XzXcX_.3X%X+XW s 0.0.#.",
"D 5.>.$.u.S.7XR.` lXuXuXpX@XjXcXNXcXkXC ~ 8.oX*X,X/ S.$Xs.a g =.R.qX4Xo.o.p.e |.uX,XQ.Z '.%X,X( Q.+X@X).) ,X,X XV cXiXhX%X@.l.4.#.",
"A >.5.;.p v.7XD.< oX>XuX%X_.>XuX1XyXNX+XZ ^ n W 8.3 z f.t.8 p b.H.K.6X4Xi.<.& C 7.7.G = ! ].{.n 6 }.}.Q X ^.%X&XW ,X,X&XW Y >.D 2 ",
"i Y Y i H G.R.N.3 iXMX/.  # # ^ ~ 1XzX,XxXuX/.{./.V h.k.k.9 T I.J.t.H.rX4X[ h.H E k.T H H a T k.[ k.h.{ { h.q /.~ {.-X+XQ.q M L i ",
";.z.0.,.n.R.S.i.~ bXOXH.4X$X$XB.+ ,X=X&XpXxXzXlXzXj.H.6X6Xr.$XH.P.U.r.4X6X7X0XP.dXgXP.f.n.b.H.U.0XE.6X7X6X0Xk.1 C lX,X1X@X#.2.z.9.",
";.>.$.D [ A.s.X.Z |.o.4X0XR.T.0XH %X:X+X;X,X2X,XtX/ e.K.9Xr.N.F.M.s.E s.6X8XI.I.b.f.b.-.c.H.s.*.H.P.M.M.D.K.d.p x kX3XjX` #.5.%.#.",
"$.z.5.S a =.....b &.p.7Xb.4XL.K.$X+ !.~ ! /.8./.Q.q u.n.R.n.r.K.M.M.k.P.R.K.F.7Xp.*.s.t.t.e.o.g + e O.+.X...<.X.q *XpX;XW #.0.2.@.",
"N #.#.I X < |.!.9 f <.J.e.J.0XF.n.Q Q. X` W {.x ( x *.H.H.0X$XU.0Xx.p.i.M.f.M.f.l k.k.k.k.h.< + _ ( Q.` J {.@ J pXuX,X,X!.8 Y I s ",
"%.2.4.%.x yXcXmX/ +.d.7Xp.wXqXS.r iXkXlXlX!.uX*XNX!.r n.H.K.S.L.R.R.K.M.K.F.p.; k.wX7XdX6X8XJ.  uXmXMXnX+XbX_ kXuX-X;X1X|.#.l.5.2.",
">.2.2.o.:XbX,XiX/ <.l p.p.U.J.3.d ` -XyX%Xq .X}.kX/.e *.c.c.c.H.I.U.K.H.b.d.g K 7XG.K.R.F.M.0XT :XiXuXjX{.pXpX,X-X,X:X'.c $.4.:.:.",
"S 5.$.5 +X@X3X;X; e * r X.r ..| ; x |.pX&Xm uX,XpXW o h r X.X.O.w.+.+.O.t e : u.I.L.6X8X6XM.K.x.o  X_.Z . *X,X_._.~._ ^ 6 $.0.4.%.",
"q I U & <XuX+X XC ` !.8.Q.OXQ.!.) } :X&X|.( %X2X*X_.{.|. X/ ` {.{.{.'.{.) 8.% r.E.qX8XR.M.S.H.] 8.Q.&X{.~  X_..XJ X H T @ q Y I i ",
">.l.l.@.1X>X|.+X` uXpXuX*XjXkXpX'.+X,X&X+X( +X{.3XmXkXuXbX.XzXBXzXcXmXmX%X=XW *.S.R.L.R.L.M.S.e.oXpXlXkXiXlXzXxX` z P.7XE >.z.2.I ",
">.>.:.>.m 7.{.>X` -XoX%X%X@X-X/.+ q.%X.Xx q Q..X&X%X%X%X;X{ 1XyXiXpXkX'.oX%XW y d.H.F.6XR.F.A.j ~ {.,XyXyX,X%X7.1 M.R.9Xk.$.z.4.I ",
"%.0.9.%._.kXjXnX( ~ Z Z ~./.) q.V F ^ ^ F   , _ !././.(.8.& * !.(.(.{.q.7.! % g =.-.=.o.o.-.-.y F Z /.{.(.^.^ 7.V N.8XU.[ $.$.#.Y ",
"q I Y * 1XMXkX>Xm /. X.Xm X !.v   H h.h.[ [ [ k.9 1 /.|./.!.|._._._.` J ).).< . < h.h.h.h.E H - + { H o i E K j > N.7X0XT q N N q ",
">.z.l.@.;XkX*X{.Q.NXuXuX) uXMXpX|.u.Y.4X0XfX0X6X6Xj.mXzXmXkXkXzXlXbXkX/.pXMX%XR 7XgXY.C.c.d.b.w k.0XY.N.U $Xf.+.8 b.E.9Xk.&.V.l.>.",
">.>.:.>.C .X:X!.Q.yX8.8.~ NX3XxXpXk d.M.L.qXM.x.T.[.nXpXpX,X-X&X,X2XyX+X-X*X_ J.wXE.+.o.c.-.<.p L.9XT.0X8 *.i.p.p x.S.A.E %.:.%.;.",
"%.9.$.u x ,XiX8.> W 8.^ , :X;X,X-X5 S.8Xx.H.R.L.n./ %X@X}.].}.}.}.}.}.~..X{.n n.W.S.| d.dXqXc.4 r.W.T.K.y =.F.E.j b.b.S.u.$.0.4.%.",
"q I M + /.pXiX>XW /.W /.!.Q.,X,X!.t =.M.5XH.F.H.I.8 + H T T R T T E T E T w X *.A.-.s.c.i.I.I.y l P.9Xb.+ T S.I.j u.6XE.E q Y I i ",
">.V.;.@./.>X,X.X].uX1XpXkX,X-X%X!.t =.6XqXK.M.M.f.8 T 7X6XR.I.R.R.L.I.R.wX9Xk.y <. .qXA.o.K.F.g r.W.6Xf.H x.s.=.T 5XI.E.N.>.V.z.5.",
"$.>.4.4.b 8..X.X7.].%X+X+X&X X6.V g =.b.U.L.K.A.o.y p.K.S.S.f.p.i.@.i.p.c.6X[ y =.-.P.L.U.D.i.g ] 6X6Xx.[ R.K.-.: *.H.R.n.%.5.2.$.",
"u D A L 1 ! 7.~.q.7.! 7.q.7.! ! x O g X.X.p.e.i.o.2 p.s.f.t.P : n.U.g 4 @.A.r.g =.=.+.=.X.k t * u.S.R.t.T L.6XE.a p.T.S.] %.2.D 2 ",
"2 M i > w E E H i K E / J x 3 K 9 O @ J 7.! ! i * @ j T j - r.t.I.qXR.R.n.t.P @ q m Z b / ~ ) m a K.I.x.H E.6XL.[ @.S.U.K 3 M u < ",
">.V.V.2.r.7X6X0XY.8XI.7XT s.U.0XB.6 eXzXcXMXmXiX-XJ M.S.H.w g C.L.H.W.6Xc.o.p x iXcXzX/.nXvXNX1Xz b.S.x.R F.I.W.T <.f.U.N.$.V.l.$.",
":.:.:.>.l p.f.K.T.n.P.f.8 I.7X7Xx.|.NX:XyXpXyXpXNXj.G.S.I.r.] L.c.+.p.U.s.s.7 ~.nXjXcX` &XpXpX.X*.b.P.t T 7XP.t.a <.p.d.*.%.2.2.I ",
">.0.>.>.j <.i.p.p.i.i.i.u t.S.P.k iXzX-X%X+X*X&X'.9 u.G.M.a M.P.-.S.l I.f.p.z ,XpX1X&XW ~.+X%XW p c.D.f T E.M.o.y  .o.f.e.&.0.#.I ",
"u I L i - 8 a j j j a j 9 8 P T ; pXpX2X^., ~ W x % J g.H X n.8Xn.c.p.6XR.p.z iXsX,XQ.o V W ( Z > 5 n.l w E H a w a a H 9 q s 8 q ",
"$.l.z.>.P f.s.M.S.M.R.I.H S.U.S.r..XyX,XQ.> -XbXQ.~ NXpX-XJ e.6XR.p.T.rXR.d.k >XaX-XjXC ! +XkXpXyXQ...e.T I.H.L.S.R.4XU.w Y ;.:.I ",
"$.>.4.>.j f.b.I.P.E.rX6Xj S.E.U.t. X1X-Xj.) ;XsX+X! pXyXyX) t b.6X8X5X8XL.s.e uXsX/.%X( %X,X%X,XkXcX[.* L v.A.A.p.P.I.F.r.$.0.0.$.",
"S 5.V.4.: k i.S.P.R.6Xc.p t.S.c.e pX=X6.Z c '.{./.x %XyX,X` * X.i.i.p.i.i.+.5 {.aXuX1XW uXlX/.%X-XyX&X+ ; | O.=.o.+.i.+.p >.0.5.$.",
"S 2.2.#.< L 8 *.A.F.qXP.y 9 ] a + W ! J w w J J x $ ) %X-XW < J B b ; s B B * XXlXsX|.3 ,XsX%X7.;X%X~ x m Z Z q 2 M b B q q I I q ",
"#.;.>.l :XkXx : f.R.wX0XR.5XF.x.< j H.x.s.s.s.b.[ % Q.{.3X+XyXcXzXzXW yXcXjX1 q. X,X+X3 @XaX,X~.oX^.J pXmXzXkX~ % kXcXcX,Xg z.>.I ",
";.5.z.o.>XxX,X( j S.5X8X9X6Xb.f.g P d.=.*.*.i.i.F.U /.*X,XW 8.&XpXcX).pXpX&XZ x ~.-X+Xx (.pX,X~.^.b &XmXiXpXpX#Xq +XyXpXpXP V.5.%.",
"S >.2.f *XiX:X{.- =.p.P.P.i.=.=.y ] c. .6X6XS.p.s.{ uX3X|.n 1 %X,XkX_ -X,X(.! X ~ ^.^.x @XsX,X) 3 ) kXaXsXyX'.7.C %X+X.X_.s z.:.s ",
"- N $.u W ~ m J > q S g y N y : = u.R.5X9XM.K.b.s.H c ` c x _.+XQ./.x J W V m < < V C x %XsX;Xx @ m {./.!.( n Z 1 {.-X].n q I s - ",
"I 9.9.g %XcXjXpX/.zXzX:Xq pX:X X(.t E.qXF.F.S.i.-.j.uX>X&X{.) .X^.:Xg.t.L.7XP.L.4XM.4XJ ` ;XaX%XiX&XpX,X) xXpXxX+X@X,X X! I 9.4.>.",
"%.4.4.o.-XuX.X X_.bX,XyX` oX%X%X/.t p.S.F.M.p.o.X./ lX&Xq.W {.pXyX X8 <.T.6XT.H.8XY.+.m /.:X;X%XyXyX-X/.n oX,XuX,XkX+X~.! ;.4.:.2.",
";.l.4.g c ^.~.) Q.%X+X>XW ^.'.&X~ d o.l t.e.o.<.o.m {.~.}.x Q.3X%X^.q o.-.d.c.b.f.p.d < 7.~.) 8. XoX:X/.Z ^.%X%X%X>X{.! c >.l.4.#.",
"i Y I 2 1 V Z x > x ~ ~ o V ~ ! & 2 8 - + . 8 g 2   1 ^ C X C ! W c - : 2 2 : : 2 2 > X q C C x > W Z q > ! ! F Z Z x * X s $.#.s ",
"L >.>.I S >.2 I M >.#.2.M $.%.%.S L >.>.%.M 4.%.4.M 4.2.5.S I >.$.>.i ;.;.4.I I $.A #.i >.$.2.L I :.%.;.s >.#.>.u ;.>.4.I L >.>.$.",
"1.4.2.>.%.z.%.4.Y 5.2.>.S 2.:.V.$.%.4.:.>.$.5.>.#.N Z.Z.Z.;.%.2.2.2.A 2.0.2.I >.z.4.1.S 5.;.>.$.$.1.2.2.I V.>.1.L 9.:.2.>.;.2.2.2.",
"1.z.5.4.L 5.4.z.I z.4.1.s 0.4.5.s $.z.V.4.Y l.2.%.u 2.4.z.Y L 4.4.%.S V.5.4.N >.z.5.2.S V.2.2.S L 5.4.:.s 5.4.:.u l.2.5.>.;.z.5.#.",
"q S L i q S N N < S S L q i S A < q s S M 9 L A S 9 N S S q i S A N < N N S i q S N N < S N L q i L S M 2 S N N > M S L i q L L q "
};
